<svg xmlns="http://www.w3.org/2000/svg" width="45.17" height="44.595" viewBox="0 0 45.17 44.595"><g id="blogging" transform="translate(0)"><path id="&#x41A;&#x43E;&#x43D;&#x442;&#x443;&#x440;_109944" data-name="&#x41A;&#x43E;&#x43D;&#x442;&#x443;&#x440; 109944" d="M44.508,42.295H43.45V23.061a3.576,3.576,0,0,0-3.572-3.572H35.157v-2.63l4.382-6.065A1.71,1.71,0,0,1,39.5,12.74l-2.83,3.917a.662.662,0,0,0,1.073.775l2.83-3.917a3.039,3.039,0,0,0-.226-3.835l1.332-1.843a2.889,2.889,0,0,0-4.683-3.384l-5.866,8.119a4.757,4.757,0,0,0-.695-.052H14.473a4.73,4.73,0,0,0-4.725,4.725v2.245H5.292A3.576,3.576,0,0,0,1.72,23.061V34.818a.662.662,0,0,0,1.323,0V23.061a2.251,2.251,0,0,1,2.248-2.248H9.749v1.573H5.029a.662.662,0,0,0-.662.662V42.295H3.044V38.347a.662.662,0,0,0-1.323,0v3.948H.662A.662.662,0,0,0,0,42.956v1.62a3.28,3.28,0,0,0,3.276,3.276H36.171a.662.662,0,0,0,0-1.323H3.276a1.955,1.955,0,0,1-1.953-1.953v-.958H19.056v.009a2.155,2.155,0,0,0,2.152,2.152h2.754a2.155,2.155,0,0,0,2.152-2.152v-.009H43.847v.958a1.955,1.955,0,0,1-1.953,1.953H39.877a.662.662,0,0,0,0,1.323h2.017a3.28,3.28,0,0,0,3.276-3.276v-1.62A.662.662,0,0,0,44.508,42.295ZM26.944,21.638l1.571,1.135-1.611.575Zm2.829.412-2.538-1.834L35.994,8.095l2.538,1.834ZM38.065,5.228A1.565,1.565,0,0,1,40.6,7.062l-1.3,1.794L36.769,7.022ZM24.79,43.627a.83.83,0,0,1-.829.829H21.208a.83.83,0,0,1-.829-.829v-.009H24.79v.009ZM5.69,42.295V23.709H9.749v2.966a4.732,4.732,0,0,0,4.063,4.678v5.031a.662.662,0,0,0,1.13.468L20.393,31.4H27a.662.662,0,0,0,0-1.323H20.119a.662.662,0,0,0-.468.194l-4.517,4.517V30.737a.662.662,0,0,0-.662-.662,3.405,3.405,0,0,1-3.4-3.4v-9.43a3.405,3.405,0,0,1,3.4-3.4H30.208l-4.433,6.135a.681.681,0,0,0-.125.372l-.092,3.93a.671.671,0,0,0,.884.639l3.7-1.321a.669.669,0,0,0,.314-.236l3.375-4.671v7.984a3.405,3.405,0,0,1-3.4,3.4.662.662,0,0,0,0,1.323,4.73,4.73,0,0,0,4.725-4.725V23.709H39.48V42.295Zm35.113,0V23.047a.662.662,0,0,0-.662-.662H35.157V20.812h4.721a2.251,2.251,0,0,1,2.248,2.248V42.295Z" transform="translate(0 -3.257)"></path><path id="&#x41A;&#x43E;&#x43D;&#x442;&#x443;&#x440;_109945" data-name="&#x41A;&#x43E;&#x43D;&#x442;&#x443;&#x440; 109945" d="M176.484,234.225h-7.322a.662.662,0,1,0,0,1.323h7.322a.662.662,0,0,0,0-1.323Z" transform="translate(-153.635 -213.848)"></path><path id="&#x41A;&#x43E;&#x43D;&#x442;&#x443;&#x440;_109946" data-name="&#x41A;&#x43E;&#x43D;&#x442;&#x443;&#x440; 109946" d="M176.484,181.252h-7.322a.662.662,0,1,0,0,1.323h7.322a.662.662,0,0,0,0-1.323Z" transform="translate(-153.635 -165.549)"></path></g></svg>