<svg xmlns="http://www.w3.org/2000/svg" width="35.459" height="43.01" viewBox="0 0 35.459 43.01"><g id="docs" transform="translate(-44.944)"><g id="&#x421;&#x433;&#x440;&#x443;&#x43F;&#x43F;&#x438;&#x440;&#x43E;&#x432;&#x430;&#x442;&#x44C;_8246" data-name="&#x421;&#x433;&#x440;&#x443;&#x43F;&#x43F;&#x438;&#x440;&#x43E;&#x432;&#x430;&#x442;&#x44C; 8246" transform="translate(44.944)"><g id="&#x421;&#x433;&#x440;&#x443;&#x43F;&#x43F;&#x438;&#x440;&#x43E;&#x432;&#x430;&#x442;&#x44C;_8245" data-name="&#x421;&#x433;&#x440;&#x443;&#x43F;&#x43F;&#x438;&#x440;&#x43E;&#x432;&#x430;&#x442;&#x44C; 8245" transform="translate(0)"><path id="&#x41A;&#x43E;&#x43D;&#x442;&#x443;&#x440;_6068" data-name="&#x41A;&#x43E;&#x43D;&#x442;&#x443;&#x440; 6068" d="M80.146,10.657,69.746.257A.878.878,0,0,0,69.125,0H49.21a4.271,4.271,0,0,0-4.266,4.266V38.744A4.271,4.271,0,0,0,49.21,43.01H76.137A4.271,4.271,0,0,0,80.4,38.744V11.278A.879.879,0,0,0,80.146,10.657ZM70,3l7.4,7.4H72.514A2.51,2.51,0,0,1,70,7.89Zm8.644,35.747a2.513,2.513,0,0,1-2.51,2.51H49.21a2.513,2.513,0,0,1-2.51-2.51V4.266a2.513,2.513,0,0,1,2.51-2.511H68.248V7.89a4.266,4.266,0,0,0,4.266,4.266h6.134V38.744Z" transform="translate(-44.944 0)"></path></g></g><g id="&#x421;&#x433;&#x440;&#x443;&#x43F;&#x43F;&#x438;&#x440;&#x43E;&#x432;&#x430;&#x442;&#x44C;_8248" data-name="&#x421;&#x433;&#x440;&#x443;&#x43F;&#x43F;&#x438;&#x440;&#x43E;&#x432;&#x430;&#x442;&#x44C; 8248" transform="translate(63.006 29.526)"><g id="&#x421;&#x433;&#x440;&#x443;&#x43F;&#x43F;&#x438;&#x440;&#x43E;&#x432;&#x430;&#x442;&#x44C;_8247" data-name="&#x421;&#x433;&#x440;&#x443;&#x43F;&#x43F;&#x438;&#x440;&#x43E;&#x432;&#x430;&#x442;&#x44C; 8247" transform="translate(0)"><path id="&#x41A;&#x43E;&#x43D;&#x442;&#x443;&#x440;_6069" data-name="&#x41A;&#x43E;&#x43D;&#x442;&#x443;&#x440; 6069" d="M261.236,351.492h-.393a.878.878,0,0,0,0,1.755h.393a.878.878,0,1,0,0-1.755Z" transform="translate(-259.965 -351.492)"></path></g></g><g id="&#x421;&#x433;&#x440;&#x443;&#x43F;&#x43F;&#x438;&#x440;&#x43E;&#x432;&#x430;&#x442;&#x44C;_8250" data-name="&#x421;&#x433;&#x440;&#x443;&#x43F;&#x43F;&#x438;&#x440;&#x43E;&#x432;&#x430;&#x442;&#x44C; 8250" transform="translate(51.641 29.526)"><g id="&#x421;&#x433;&#x440;&#x443;&#x43F;&#x43F;&#x438;&#x440;&#x43E;&#x432;&#x430;&#x442;&#x44C;_8249" data-name="&#x421;&#x433;&#x440;&#x443;&#x43F;&#x43F;&#x438;&#x440;&#x43E;&#x432;&#x430;&#x442;&#x44C; 8249" transform="translate(0)"><path id="&#x41A;&#x43E;&#x43D;&#x442;&#x443;&#x440;_6070" data-name="&#x41A;&#x43E;&#x43D;&#x442;&#x443;&#x440; 6070" d="M134.072,351.492h-8.526a.878.878,0,1,0,0,1.755h8.526a.878.878,0,1,0,0-1.755Z" transform="translate(-124.669 -351.492)"></path></g></g><g id="&#x421;&#x433;&#x440;&#x443;&#x43F;&#x43F;&#x438;&#x440;&#x43E;&#x432;&#x430;&#x442;&#x44C;_8252" data-name="&#x421;&#x433;&#x440;&#x443;&#x43F;&#x43F;&#x438;&#x440;&#x43E;&#x432;&#x430;&#x442;&#x44C; 8252" transform="translate(51.641 25.516)"><g id="&#x421;&#x433;&#x440;&#x443;&#x43F;&#x43F;&#x438;&#x440;&#x43E;&#x432;&#x430;&#x442;&#x44C;_8251" data-name="&#x421;&#x433;&#x440;&#x443;&#x43F;&#x43F;&#x438;&#x440;&#x43E;&#x432;&#x430;&#x442;&#x44C; 8251" transform="translate(0)"><path id="&#x41A;&#x43E;&#x43D;&#x442;&#x443;&#x440;_6071" data-name="&#x41A;&#x43E;&#x43D;&#x442;&#x443;&#x440; 6071" d="M145.857,303.747H125.548a.878.878,0,1,0,0,1.755h20.309a.878.878,0,1,0,0-1.755Z" transform="translate(-124.67 -303.747)"></path></g></g><g id="&#x421;&#x433;&#x440;&#x443;&#x43F;&#x43F;&#x438;&#x440;&#x43E;&#x432;&#x430;&#x442;&#x44C;_8254" data-name="&#x421;&#x433;&#x440;&#x443;&#x43F;&#x43F;&#x438;&#x440;&#x43E;&#x432;&#x430;&#x442;&#x44C; 8254" transform="translate(51.641 21.505)"><g id="&#x421;&#x433;&#x440;&#x443;&#x43F;&#x43F;&#x438;&#x440;&#x43E;&#x432;&#x430;&#x442;&#x44C;_8253" data-name="&#x421;&#x433;&#x440;&#x443;&#x43F;&#x43F;&#x438;&#x440;&#x43E;&#x432;&#x430;&#x442;&#x44C; 8253" transform="translate(0)"><path id="&#x41A;&#x43E;&#x43D;&#x442;&#x443;&#x440;_6072" data-name="&#x41A;&#x43E;&#x43D;&#x442;&#x443;&#x440; 6072" d="M145.857,256H125.548a.878.878,0,1,0,0,1.756h20.309a.878.878,0,0,0,0-1.756Z" transform="translate(-124.67 -256)"></path></g></g><g id="&#x421;&#x433;&#x440;&#x443;&#x43F;&#x43F;&#x438;&#x440;&#x43E;&#x432;&#x430;&#x442;&#x44C;_8256" data-name="&#x421;&#x433;&#x440;&#x443;&#x43F;&#x43F;&#x438;&#x440;&#x43E;&#x432;&#x430;&#x442;&#x44C; 8256" transform="translate(51.641 17.494)"><g id="&#x421;&#x433;&#x440;&#x443;&#x43F;&#x43F;&#x438;&#x440;&#x43E;&#x432;&#x430;&#x442;&#x44C;_8255" data-name="&#x421;&#x433;&#x440;&#x443;&#x43F;&#x43F;&#x438;&#x440;&#x43E;&#x432;&#x430;&#x442;&#x44C; 8255" transform="translate(0)"><path id="&#x41A;&#x43E;&#x43D;&#x442;&#x443;&#x440;_6073" data-name="&#x41A;&#x43E;&#x43D;&#x442;&#x443;&#x440; 6073" d="M145.857,208.255H125.548a.878.878,0,1,0,0,1.755h20.309a.878.878,0,1,0,0-1.755Z" transform="translate(-124.67 -208.255)"></path></g></g></g></svg>