<svg xmlns="http://www.w3.org/2000/svg" width="45.621" height="39.206" viewBox="0 0 45.621 39.206"><g id="headset" transform="translate(0 -36)"><g id="&#x421;&#x433;&#x440;&#x443;&#x43F;&#x43F;&#x438;&#x440;&#x43E;&#x432;&#x430;&#x442;&#x44C;_8258" data-name="&#x421;&#x433;&#x440;&#x443;&#x43F;&#x43F;&#x438;&#x440;&#x43E;&#x432;&#x430;&#x442;&#x44C; 8258" transform="translate(34.929 64.513)"><g id="&#x421;&#x433;&#x440;&#x443;&#x43F;&#x43F;&#x438;&#x440;&#x43E;&#x432;&#x430;&#x442;&#x44C;_8257" data-name="&#x421;&#x433;&#x440;&#x443;&#x43F;&#x43F;&#x438;&#x440;&#x43E;&#x432;&#x430;&#x442;&#x44C; 8257"><path id="&#x41A;&#x43E;&#x43D;&#x442;&#x443;&#x440;_6074" data-name="&#x41A;&#x43E;&#x43D;&#x442;&#x443;&#x440; 6074" d="M392.891,356a.891.891,0,1,0,.891.891A.891.891,0,0,0,392.891,356Z" transform="translate(-392 -356)"></path></g></g><g id="&#x421;&#x433;&#x440;&#x443;&#x43F;&#x43F;&#x438;&#x440;&#x43E;&#x432;&#x430;&#x442;&#x44C;_8260" data-name="&#x421;&#x433;&#x440;&#x443;&#x43F;&#x43F;&#x438;&#x440;&#x43E;&#x432;&#x430;&#x442;&#x44C; 8260" transform="translate(8.91 64.513)"><g id="&#x421;&#x433;&#x440;&#x443;&#x43F;&#x43F;&#x438;&#x440;&#x43E;&#x432;&#x430;&#x442;&#x44C;_8259" data-name="&#x421;&#x433;&#x440;&#x443;&#x43F;&#x43F;&#x438;&#x440;&#x43E;&#x432;&#x430;&#x442;&#x44C; 8259"><path id="&#x41A;&#x43E;&#x43D;&#x442;&#x443;&#x440;_6075" data-name="&#x41A;&#x43E;&#x43D;&#x442;&#x443;&#x440; 6075" d="M100.891,356a.891.891,0,1,0,.891.891A.891.891,0,0,0,100.891,356Z" transform="translate(-100 -356)"></path></g></g><g id="&#x421;&#x433;&#x440;&#x443;&#x43F;&#x43F;&#x438;&#x440;&#x43E;&#x432;&#x430;&#x442;&#x44C;_8262" data-name="&#x421;&#x433;&#x440;&#x443;&#x43F;&#x43F;&#x438;&#x440;&#x43E;&#x432;&#x430;&#x442;&#x44C; 8262" transform="translate(0 36)"><g id="&#x421;&#x433;&#x440;&#x443;&#x43F;&#x43F;&#x438;&#x440;&#x43E;&#x432;&#x430;&#x442;&#x44C;_8261" data-name="&#x421;&#x433;&#x440;&#x443;&#x43F;&#x43F;&#x438;&#x440;&#x43E;&#x432;&#x430;&#x442;&#x44C; 8261" transform="translate(0 0)"><path id="&#x41A;&#x43E;&#x43D;&#x442;&#x443;&#x440;_6076" data-name="&#x41A;&#x43E;&#x43D;&#x442;&#x443;&#x440; 6076" d="M42.057,59.257V54.712C42.057,44.386,33.153,36,22.811,36,12.583,36,3.564,44.277,3.564,54.712v4.545A4.463,4.463,0,0,0,0,63.622v3.564a4.461,4.461,0,0,0,3.695,4.389,2.678,2.678,0,0,0,2.542,1.848H9.064a2.673,2.673,0,0,0,5.193-.891V58.276a2.673,2.673,0,0,0-5.193-.891H8.91V54.712A13.256,13.256,0,0,1,12.3,45.826a2.674,2.674,0,0,0,2.874-.26,13.176,13.176,0,0,1,15.269,0,2.674,2.674,0,0,0,2.874.26,13.256,13.256,0,0,1,3.391,8.886v2.673h-.153a2.673,2.673,0,0,0-5.193.891V72.533a2.673,2.673,0,0,0,5.193.891h2.826a2.678,2.678,0,0,0,2.542-1.848,4.461,4.461,0,0,0,3.695-4.389V63.622A4.463,4.463,0,0,0,42.057,59.257ZM3.564,69.706a2.677,2.677,0,0,1-1.782-2.52V63.622A2.677,2.677,0,0,1,3.564,61.1ZM9.8,62.731a.891.891,0,0,0,.891-.891V58.276a.891.891,0,1,1,1.782,0V72.533a.891.891,0,1,1-1.782,0V68.968a.891.891,0,1,0-1.782,0v2.673H6.237a.892.892,0,0,1-.891-.891V60.058a.892.892,0,0,1,.891-.891H8.91V61.84A.891.891,0,0,0,9.8,62.731ZM7.128,54.712v2.673H6.237a2.66,2.66,0,0,0-.891.153V54.712a16.42,16.42,0,0,1,4.469-11.2l1.143,1.143A15.025,15.025,0,0,0,7.128,54.712Zm25.577-10.62a.874.874,0,0,1-1.166.068,14.95,14.95,0,0,0-17.457,0,.874.874,0,0,1-1.166-.067L11.09,42.265a17.562,17.562,0,0,1,23.441,0Zm7.57,26.659a.892.892,0,0,1-.891.891H36.711V68.968a.891.891,0,1,0-1.782,0v3.564a.891.891,0,0,1-1.782,0V58.276a.891.891,0,0,1,1.782,0V61.84a.891.891,0,1,0,1.782,0V59.167h2.673a.892.892,0,0,1,.891.891Zm0-13.212a2.66,2.66,0,0,0-.891-.153h-.891V54.712a15.025,15.025,0,0,0-3.83-10.057l1.143-1.143a16.419,16.419,0,0,1,4.469,11.2Zm3.564,9.648a2.677,2.677,0,0,1-1.782,2.52V61.1a2.677,2.677,0,0,1,1.782,2.52Z" transform="translate(0 -36)"></path></g></g></g></svg>