<svg xmlns="http://www.w3.org/2000/svg" id="idea_1_" data-name="idea (1)" width="32.037" height="45.17" viewBox="0 0 32.037 45.17"><path id="&#x41A;&#x43E;&#x43D;&#x442;&#x443;&#x440;_109947" data-name="&#x41A;&#x43E;&#x43D;&#x442;&#x443;&#x440; 109947" d="M106.467,16.019a16.028,16.028,0,0,0-3.788-10.345.666.666,0,0,0-1.017.861,14.687,14.687,0,0,1-.542,19.574,6.132,6.132,0,0,0-1.694,4.344V30.5A2.329,2.329,0,0,1,97.1,32.823H83.8A2.329,2.329,0,0,1,81.47,30.5v-.043a6.1,6.1,0,0,0-1.683-4.333A14.673,14.673,0,0,1,90.652,1.334,14.533,14.533,0,0,1,99.66,4.58a.666.666,0,0,0,.836-1.037A15.852,15.852,0,0,0,90.67,0l-.226,0A16.019,16.019,0,0,0,78.821,27.037a4.778,4.778,0,0,1,1.317,3.392q0,.034,0,.067a3.665,3.665,0,0,0,2.923,3.584v1.6h-.07a.666.666,0,1,0,0,1.332h.07v1.158h-.07a.666.666,0,1,0,0,1.332h.07v.851a2.008,2.008,0,0,0,1.463,1.93,3.386,3.386,0,0,0,3.345,2.889h5.158a3.386,3.386,0,0,0,3.345-2.889,2.008,2.008,0,0,0,1.463-1.93V39.5h.07a.666.666,0,1,0,0-1.332h-.07V37.01h.07a.666.666,0,1,0,0-1.332h-.07v-1.6a3.665,3.665,0,0,0,2.923-3.584c0-.021,0-.043,0-.066a4.809,4.809,0,0,1,1.33-3.407,15.954,15.954,0,0,0,4.379-11.005ZM96.5,40.351a.673.673,0,0,1-.672.672H89.2a.666.666,0,0,0,0,1.332H95a2.052,2.052,0,0,1-1.969,1.482H87.869A2.053,2.053,0,0,1,85.9,42.355h.019a.666.666,0,1,0,0-1.332h-.853a.673.673,0,0,1-.672-.672V39.5H96.5v.851Zm0-2.183H84.393V37.01H96.5Zm-12.11-2.49V34.155H96.5v1.523Z" transform="translate(-74.43 0)"></path><path id="&#x41A;&#x43E;&#x43D;&#x442;&#x443;&#x440;_109948" data-name="&#x41A;&#x43E;&#x43D;&#x442;&#x443;&#x440; 109948" d="M185.064,111.3a.666.666,0,0,0-.531-.447l-4.517-.69-2.026-4.317a.674.674,0,0,0-1.206,0l-2.026,4.317-4.517.69a.675.675,0,0,0-.376,1.124l3.288,3.37-.778,4.766a.673.673,0,0,0,.98.69l4.032-2.229,4.032,2.229a.674.674,0,0,0,.98-.69l-.778-4.766,3.288-3.37A.666.666,0,0,0,185.064,111.3Zm-4.631,3.357a.666.666,0,0,0-.181.572l.611,3.744-3.154-1.743a.666.666,0,0,0-.645,0l-3.154,1.743.611-3.744a.667.667,0,0,0-.181-.572l-2.617-2.683,3.587-.548a.666.666,0,0,0,.5-.375l1.574-3.354,1.574,3.354a.666.666,0,0,0,.5.375l3.587.548Z" transform="translate(-161.279 -96.171)"></path><path id="&#x41A;&#x43E;&#x43D;&#x442;&#x443;&#x440;_109949" data-name="&#x41A;&#x43E;&#x43D;&#x442;&#x443;&#x440; 109949" d="M249.467,278.285v1.837a.667.667,0,0,0,1.332,0v-1.837A.667.667,0,0,0,249.467,278.285Z" transform="translate(-234.025 -253.147)"></path><path id="&#x41A;&#x43E;&#x43D;&#x442;&#x443;&#x440;_109950" data-name="&#x41A;&#x43E;&#x43D;&#x442;&#x443;&#x440; 109950" d="M153.331,220.215l-1.57.547a.666.666,0,0,0,.438,1.258l1.57-.547A.666.666,0,0,0,153.331,220.215Z" transform="translate(-144.547 -200.75)"></path><path id="&#x41A;&#x43E;&#x43D;&#x442;&#x443;&#x440;_109951" data-name="&#x41A;&#x43E;&#x43D;&#x442;&#x443;&#x440; 109951" d="M328.581,221.475l1.57.547a.666.666,0,0,0,.438-1.258l-1.57-.547A.666.666,0,0,0,328.581,221.475Z" transform="translate(-305.766 -200.752)"></path><path id="&#x41A;&#x43E;&#x43D;&#x442;&#x443;&#x440;_109952" data-name="&#x41A;&#x43E;&#x43D;&#x442;&#x443;&#x440; 109952" d="M302.014,110.922a.665.665,0,0,0,.513-.24l1.214-1.461a.666.666,0,0,0-1.025-.851l-1.214,1.461A.671.671,0,0,0,302.014,110.922Z" transform="translate(-281.332 -98.591)"></path><path id="&#x41A;&#x43E;&#x43D;&#x442;&#x443;&#x440;_109953" data-name="&#x41A;&#x43E;&#x43D;&#x442;&#x443;&#x440; 109953" d="M189.461,112.991a.671.671,0,0,0,.512-1.092l-1.048-1.261a.667.667,0,0,0-1.025.851l1.048,1.261A.665.665,0,0,0,189.461,112.991Z" transform="translate(-177.746 -100.66)"></path></svg>