<svg xmlns="http://www.w3.org/2000/svg" width="42.937" height="45.749" viewBox="0 0 42.937 45.749"><g id="social-media" transform="translate(-15.731)"><path id="&#x41A;&#x43E;&#x43D;&#x442;&#x443;&#x440;_110001" data-name="&#x41A;&#x43E;&#x43D;&#x442;&#x443;&#x440; 110001" d="M53.644,0H51.677a.671.671,0,0,0,0,1.34h1.967a3.681,3.681,0,0,1,3.684,3.671V20.522a3.681,3.681,0,0,1-3.684,3.671H51.413a.67.67,0,0,0-.407.138l-4.093,3.131v-2.6a.67.67,0,0,0-.67-.67H38.085a3.666,3.666,0,0,1-1.876-.512V16.158A4.09,4.09,0,0,0,34.4,12.767V5.011A3.682,3.682,0,0,1,38.085,1.34h9.392a.671.671,0,0,0,0-1.34H38.085A5.024,5.024,0,0,0,33.06,5.011v7.166a4.109,4.109,0,0,0-.956-.113H19.835a4.1,4.1,0,0,0-4.1,4.093v1.447a.671.671,0,0,0,1.34,0V16.158A2.761,2.761,0,0,1,19.835,13.4H32.1a2.761,2.761,0,0,1,2.763,2.753v7.791a.671.671,0,0,0,0,.177V28.39c0,.084-.005.168-.013.252H33.473a3.109,3.109,0,0,0-3.056,2.544.672.672,0,0,0-.174.1l-3,2.315V31.813a.67.67,0,0,0-.67-.67h-6.74a2.761,2.761,0,0,1-2.763-2.753V21.626a.671.671,0,0,0-1.34,0V28.39a4.1,4.1,0,0,0,4.1,4.093h6.07v2.478a.68.68,0,0,0,1.08.531l3.381-2.611v7.54a3.107,3.107,0,0,0,3.107,3.1h4.113v1.564a.68.68,0,0,0,1.08.531l2.713-2.095h.8a3.107,3.107,0,0,0,3.107-3.1v-1.19a.671.671,0,0,0-1.34,0v1.19A1.765,1.765,0,0,1,42.18,42.18H41.15a.67.67,0,0,0-.41.14l-1.814,1.4v-.87a.67.67,0,0,0-.67-.67H33.473a1.765,1.765,0,0,1-1.766-1.759v-8.68a1.765,1.765,0,0,1,1.766-1.759H42.18a1.765,1.765,0,0,1,1.766,1.759v3.29a.671.671,0,0,0,1.34,0v-3.29a3.107,3.107,0,0,0-3.107-3.1H36.2c.005-.084.008-3.469.008-3.469a5.017,5.017,0,0,0,1.876.361h7.487v3.285a.68.68,0,0,0,1.077.532l4.991-3.817h2a5.024,5.024,0,0,0,5.024-5.011V5.011A5.024,5.024,0,0,0,53.644,0Z" transform="translate(0)"></path><path id="&#x41A;&#x43E;&#x43D;&#x442;&#x443;&#x440;_110002" data-name="&#x41A;&#x43E;&#x43D;&#x442;&#x443;&#x440; 110002" d="M276.006,54.608a1.4,1.4,0,0,0-1.718,1.334,3.938,3.938,0,0,1-.985,2.607l-1.847,2.09a.669.669,0,0,0-.561-.3h-3.605a.67.67,0,0,0-.67.67v8.111a.67.67,0,0,0,.67.67h3.605a.67.67,0,0,0,.609-.392,4.683,4.683,0,0,0,2.436.687h6.371a1.754,1.754,0,0,0,1.731-1.816c-.02-.43,0-6.2,0-6.332a1.735,1.735,0,0,0-1.731-1.733L277,60.19l.137-.325a5.233,5.233,0,0,0-.276-4.605,1.366,1.366,0,0,0-.855-.651Zm-5.782,13.837h-2.265V61.674h2.265Zm10.087-6.905a.393.393,0,0,1,.392.392c0,.128,0,.474,0,.943-.01,2.591-.017,5.045,0,5.453a.392.392,0,0,1-.392.412H273.94A3.337,3.337,0,0,1,271.847,68l-.282-.228V62.54l2.743-3.1a5.277,5.277,0,0,0,1.321-3.494.037.037,0,0,1,.069-.018,3.885,3.885,0,0,1,.2,3.419l-.529,1.253a.67.67,0,0,0,.615.931Z" transform="translate(-228.467 -49.656)"></path><path id="&#x41A;&#x43E;&#x43D;&#x442;&#x443;&#x440;_110003" data-name="&#x41A;&#x43E;&#x43D;&#x442;&#x443;&#x440; 110003" d="M73.121,199.486a.67.67,0,0,0,0,1.34H75.1l-.369,2.232a.67.67,0,1,0,1.323.219l.405-2.451h1.617l-.369,2.232a.67.67,0,1,0,1.323.219l.405-2.451H82.12a.67.67,0,0,0,0-1.34H79.653l.27-1.635h2.2a.67.67,0,1,0,0-1.34H80.145l.369-2.232a.67.67,0,0,0-1.323-.219l-.405,2.451H77.169l.369-2.232a.67.67,0,1,0-1.323-.219l-.405,2.451H73.121a.67.67,0,1,0,0,1.34h2.468l-.27,1.635Zm3.826-1.635h1.617l-.27,1.635H76.677Z" transform="translate(-51.651 -176.207)"></path><path id="&#x41A;&#x43E;&#x43D;&#x442;&#x443;&#x440;_110004" data-name="&#x41A;&#x43E;&#x43D;&#x442;&#x443;&#x440; 110004" d="M223.73,368.969a2.254,2.254,0,0,0-1.983-.446,2.493,2.493,0,0,0-1.86,2.516,3.291,3.291,0,0,0,.99,2.356,9.833,9.833,0,0,0,2.547,1.757.67.67,0,0,0,.628,0c2.123-1.126,3.537-2.256,3.537-4.112a2.478,2.478,0,0,0-1.926-2.5A2.248,2.248,0,0,0,223.73,368.969Zm2.519,2.07c0,1-.664,1.742-2.511,2.758-1.846-1.016-2.511-1.757-2.511-2.758a1.146,1.146,0,0,1,.835-1.214,1.007,1.007,0,0,1,.236-.028.925.925,0,0,1,.844.539.67.67,0,0,0,1.2-.024.871.871,0,0,1,1.028-.468A1.133,1.133,0,0,1,226.249,371.04Z" transform="translate(-185.911 -335.529)"></path></g></svg>