<svg xmlns="http://www.w3.org/2000/svg" id="target" width="39.258" height="47.113" viewBox="0 0 39.258 47.113"><g id="Page-1_24_" transform="translate(0 0)"><g id="_x30_25---Arrow-Target"><path id="Shape_139_" d="M62.31,0A19.621,19.621,0,0,0,48.873,33.926a.785.785,0,0,0,1.074-1.146,18.059,18.059,0,1,1,24.726,0,.785.785,0,0,0,1.074,1.146A19.621,19.621,0,0,0,62.31,0Z" transform="translate(-42.681 0)"></path><path id="Shape_138_" d="M119.174,76.443a.785.785,0,0,0,.576-.252,14.918,14.918,0,1,0-21.9,0,.785.785,0,0,0,1.153-1.066,13.348,13.348,0,1,1,19.591,0,.785.785,0,0,0,.576,1.318Z" transform="translate(-89.173 -46.435)"></path><path id="Shape_137_" d="M161.119,120.059a.785.785,0,0,0,1.109.042,10.207,10.207,0,1,0-13.882,0,.785.785,0,1,0,1.068-1.151,8.637,8.637,0,1,1,11.746,0A.785.785,0,0,0,161.119,120.059Z" transform="translate(-135.658 -92.987)"></path><path id="Shape_136_" d="M205.789,161.714a.785.785,0,0,0,1.034-.4,5.5,5.5,0,1,0-10.075,0,.785.785,0,1,0,1.438-.628,3.926,3.926,0,1,1,7.2,0A.785.785,0,0,0,205.789,161.714Z" transform="translate(-182.156 -139.482)"></path><path id="Shape_135_" d="M117.157,221.549a1.57,1.57,0,0,0,1.328-2.392l-7.321-11.985a1.575,1.575,0,0,0-1.087-.74l-3.69-.608-1.583-8.839a1.57,1.57,0,0,0-3.141,0l-1.584,8.839-3.69.61a1.57,1.57,0,0,0-1.078.733l-7.327,11.988a1.57,1.57,0,0,0,1.327,2.393,1.6,1.6,0,0,0,.509-.084l7.93-2.638,0,.027a.778.778,0,0,0,.01.32c-.006.089-.015.177-.015.267a5.509,5.509,0,0,0,10.989,0,4.767,4.767,0,0,0-.046-.628l7.961,2.653A1.592,1.592,0,0,0,117.157,221.549Zm-7.337-13.563,7.325,11.988-8.741-2.914-1.721-9.6Zm-6.6-10.784a.756.756,0,0,0,.01-.139.757.757,0,0,0,.013.139l3.254,18.143a5.794,5.794,0,0,0-6.532,0Zm-13.9,22.773,7.325-11.993,3.141-.518-1.729,9.6Zm13.907,3a3.553,3.553,0,1,1,3.926-3.533A3.749,3.749,0,0,1,103.234,222.973Z" transform="translate(-83.605 -177.434)"></path></g></g></svg>