<svg xmlns="http://www.w3.org/2000/svg" viewBox="0 0 60 60"><defs><style>      .cls-1 {        fill: #fff;        opacity: 0;      }      .cls-2 {        fill: #1a64b6;      }      .cls-3 {        fill: #1e8aff;      }      .cls-4 {        fill: #ffd17e;      }      .cls-5 {        fill: #ffeac3;      }      .cls-6 {        fill: #54a5ff;      }      .cls-7 {        fill: #89c1ff;      }      .cls-8 {        font-size: 13.04px;        font-family: Gotham-Bold, Gotham;        font-weight: 700;      }    </style></defs><g id="Layer_2" data-name="Layer 2"><g id="Layer_1-2" data-name="Layer 1"><g><rect class="cls-1" width="60" height="60"></rect><polygon class="cls-2" points="30 28.18 55.88 28.18 52.85 42.03 30 42.03 30 28.18"></polygon><polygon class="cls-3" points="30 28.18 4.12 28.18 7.15 42.03 30 42.03 30 28.18"></polygon><polygon class="cls-4" points="46.78 4.12 30 4.12 23.93 43.55 46.78 43.55 46.78 4.12"></polygon><rect class="cls-5" x="13.22" y="4.12" width="16.78" height="39.43"></rect><path class="cls-3" d="M37.63,23.83a7.65,7.65,0,0,0-3.08-6.12v-3A4.55,4.55,0,0,0,30,10.18l-3,7.59,3,7.58h7.63Z"></path><path class="cls-6" d="M25.45,14.73v3a7.65,7.65,0,0,0-3.08,6.12v1.52H30V10.18A4.55,4.55,0,0,0,25.45,14.73Z"></path><polygon class="cls-3" points="52.85 42.03 55.88 55.88 30 55.88 23.93 48.96 30 42.03 52.85 42.03"></polygon><polygon class="cls-6" points="7.15 42.03 4.12 55.88 30 55.88 30 42.03 7.15 42.03"></polygon><polygon class="cls-7" points="4.12 28.18 4.12 55.88 16.25 42.03 4.12 28.18"></polygon><polygon class="cls-6" points="55.88 28.18 55.88 55.88 43.75 42.03 55.88 28.18"></polygon><text class="cls-8" transform="translate(20.02 37.47)">HR</text></g></g></g></svg>