<svg xmlns="http://www.w3.org/2000/svg" viewBox="0 0 32.19 24.2">
  <g id="Layer_2" data-name="Layer 2">
    <g id="Layer_1-2" data-name="Layer 1">
      <path d="M16.09,0H28.4a3.63,3.63,0,0,1,3.69,2.89,4.41,4.41,0,0,1,.1,1v16.5a3.67,3.67,0,0,1-3.83,3.85q-12.27,0-24.54,0A3.66,3.66,0,0,1,0,21.09a3.77,3.77,0,0,1,0-.67V3.78A3.62,3.62,0,0,1,2.82.11,4.79,4.79,0,0,1,3.89,0h12.2M2,22.49a2.87,2.87,0,0,0,1.94.63h24.4a2.57,2.57,0,0,0,1.72-.53l-.22-.24-7-7.17a1.55,1.55,0,0,1-.24-.28.53.53,0,0,1,.74-.73,1.88,1.88,0,0,1,.3.27l6.93,7.05.27.25a2.78,2.78,0,0,0,.31-1.45V4.87l-.32.24L18.62,15.43a3.89,3.89,0,0,1-2.4,1,4,4,0,0,1-2.81-1.13q-6-5.1-12-10.18C1.3,5,1.21,5,1.08,4.88V20.44a2.48,2.48,0,0,0,.35,1.35,2,2,0,0,1,.25-.33l6.86-7a2.52,2.52,0,0,1,.3-.27.49.49,0,0,1,.67,0,.51.51,0,0,1,.1.67,2.09,2.09,0,0,1-.24.28c-1.73,1.76-3.45,3.54-5.19,5.29-.69.7-1.43,1.35-2.18,2M16.1,1.09H13.48c-3.2,0-6.41,0-9.62,0a2.61,2.61,0,0,0-2.71,2,.48.48,0,0,0,.18.54l13,11a2.57,2.57,0,0,0,3.63,0l5.5-4.66,7.46-6.32c.16-.14.25-.27.16-.46A5.91,5.91,0,0,0,30.44,2a2.54,2.54,0,0,0-2.14-.89H16.1"/>
    </g>
  </g>
</svg>
