<svg xmlns="http://www.w3.org/2000/svg" viewBox="0 0 60 60"><defs><style>      .cls-1, .cls-8 {        fill: #fff;      }      .cls-1 {        opacity: 0;      }      .cls-2 {        fill: #76a0ff;      }      .cls-3 {        fill: #3262ea;      }      .cls-4 {        fill: #4480ea;      }      .cls-5 {        fill: #0d39d3;      }      .cls-6 {        fill: #020e2d;      }      .cls-7 {        fill: #9fc2ff;      }    </style></defs><g id="Layer_2" data-name="Layer 2"><g id="Layer_1-2" data-name="Layer 1"><g><rect class="cls-1" width="60" height="60"></rect><g><rect class="cls-2" x="6.83" y="12.62" width="46.34" height="39.72" rx="6.81"></rect><path class="cls-3" d="M53.17,19.42V45.54a6.79,6.79,0,0,1-6.8,6.8H30V12.62H46.37a6.8,6.8,0,0,1,6.8,6.8Z"></path><path class="cls-4" d="M46.37,11H13.63a8.46,8.46,0,0,0-8.46,8.45V45.54A8.46,8.46,0,0,0,13.63,54H46.37a8.46,8.46,0,0,0,8.46-8.46V19.42A8.46,8.46,0,0,0,46.37,11Zm5.15,34.57a5.17,5.17,0,0,1-5.15,5.15H13.63a5.17,5.17,0,0,1-5.15-5.15V19.42a5.16,5.16,0,0,1,5.15-5.14H46.37a5.16,5.16,0,0,1,5.15,5.14Z"></path><path class="cls-5" d="M54.83,19.42V45.54A8.46,8.46,0,0,1,46.37,54H30V50.69H46.37a5.17,5.17,0,0,0,5.15-5.15V19.42a5.16,5.16,0,0,0-5.15-5.14H30V11H46.37a8.46,8.46,0,0,1,8.46,8.45Z"></path><path class="cls-6" d="M20.07,6h0a1.65,1.65,0,0,1,1.65,1.66v9.93a1.65,1.65,0,0,1-1.65,1.65h0a1.65,1.65,0,0,1-1.66-1.65V7.66A1.66,1.66,0,0,1,20.07,6Z"></path><path class="cls-6" d="M39.93,6h0a1.66,1.66,0,0,1,1.66,1.66v9.93a1.65,1.65,0,0,1-1.66,1.65h0a1.65,1.65,0,0,1-1.65-1.65V7.66A1.65,1.65,0,0,1,39.93,6Z"></path><g><circle class="cls-7" cx="30" cy="26.95" r="1.66"></circle><path class="cls-8" d="M30,25.3v3.31a1.66,1.66,0,1,1,0-3.31Z"></path></g><g><circle class="cls-7" cx="30" cy="39.66" r="1.66"></circle><path class="cls-8" d="M30,38v3.31A1.66,1.66,0,1,1,30,38Z"></path></g><circle class="cls-8" cx="18.05" cy="26.95" r="1.66"></circle><circle class="cls-7" cx="41.51" cy="26.95" r="1.66"></circle><circle class="cls-8" cx="18.05" cy="39.66" r="1.66"></circle><circle class="cls-7" cx="41.51" cy="39.66" r="3.63"></circle><path class="cls-6" d="M41.51,45.45a5.79,5.79,0,1,1,5.79-5.79A5.8,5.8,0,0,1,41.51,45.45Zm0-8.27A2.48,2.48,0,1,0,44,39.66,2.49,2.49,0,0,0,41.51,37.18Z"></path></g><path class="cls-8" d="M45.36,35l-9,7.33c-.9.73.38,2,1.27,1.27l9-7.33c.9-.73-.38-2-1.28-1.27Z"></path><path class="cls-8" d="M36.06,36.41a39.48,39.48,0,0,1,4.46,4.68,11.16,11.16,0,0,0,4,3.42c1.05.46,2-1.09.91-1.55a11.15,11.15,0,0,1-4-3.55,36.31,36.31,0,0,0-4.14-4.27c-.87-.76-2.15.5-1.27,1.27Z"></path></g></g></g></svg>