<svg xmlns="http://www.w3.org/2000/svg" viewBox="0 0 60 60"><defs><style>      .cls-1 {        fill: #fff;        opacity: 0;      }      .cls-2 {        fill: #f1f2f2;      }      .cls-3 {        fill: #f6b445;      }      .cls-4 {        fill: #fed049;      }      .cls-5 {        fill: #49aaee;      }    </style></defs><g id="Layer_2" data-name="Layer 2"><g id="Layer_1-2" data-name="Layer 1"><g><rect class="cls-1" width="60" height="60"></rect><g><path class="cls-2" d="M49.22,24.35,30,36.78,10.78,24.35V5.13A1.11,1.11,0,0,1,11.87,4H48.09a1.11,1.11,0,0,1,1.13,1.08V24.35Z"></path><g><path class="cls-3" d="M10.78,24.35,4,19.83,10.78,13Z"></path><path class="cls-3" d="M56,19.83l-6.78,4.52V13Z"></path></g><path class="cls-4" d="M49.22,24.25,56,19.83V51.48a4.56,4.56,0,0,1-1.32,3.2L47,47,34.52,34.52,34.21,34Z"></path><path class="cls-3" d="M47,47l7.72,7.72A4.56,4.56,0,0,1,51.48,56h-43a4.56,4.56,0,0,1-3.2-1.32L13,47,25.48,34.52l.31-.48L30,36.78,34.21,34l.31.48Z"></path><path class="cls-4" d="M25.79,34l-.31.48L13,47,5.32,54.68A4.56,4.56,0,0,1,4,51.48V19.83Z"></path><circle class="cls-5" cx="42.43" cy="17.57" r="13.57"></circle></g></g></g></g></svg>