<svg xmlns="http://www.w3.org/2000/svg" viewBox="0 0 60 60"><defs><style>      .cls-1 {        fill: #fff;        opacity: 0;      }      .cls-2 {        fill: #ffdf40;      }      .cls-3 {        fill: #ffbe40;      }      .cls-4 {        fill: #4d4d80;      }      .cls-5 {        fill: #59abff;      }      .cls-6 {        fill: #4d87ff;      }      .cls-7 {        fill: #48aaee;        stroke: #fff;        stroke-miterlimit: 10;        stroke-width: 0.5px;      }      .cls-8 {        fill: #443d66;      }    </style></defs><g id="Layer_2" data-name="Layer 2"><g id="Layer_1-2" data-name="Layer 1"><g><rect class="cls-1" width="60" height="60"></rect><g><path class="cls-2" d="M34,40.56H8.57A4.58,4.58,0,0,1,4,36a4.41,4.41,0,0,1,.6-2.22L19.82,6.37a4.53,4.53,0,0,1,8,0L42.35,32.54a1.53,1.53,0,0,1,.07,1.35,1.54,1.54,0,0,1-1,.87,9.13,9.13,0,0,0-6,4.93,1.53,1.53,0,0,1-1.38.87Z"></path><path class="cls-3" d="M34,40.56a1.53,1.53,0,0,0,1.38-.87,9.13,9.13,0,0,1,6-4.93,1.54,1.54,0,0,0,1-.87,1.53,1.53,0,0,0-.07-1.35L27.79,6.38A4.54,4.54,0,0,0,23.8,4V40.56Z"></path><g><path class="cls-4" d="M23.8,25.33a1.52,1.52,0,0,1-1.52-1.53V17.71a1.53,1.53,0,0,1,3,0V23.8A1.52,1.52,0,0,1,23.8,25.33Z"></path><circle class="cls-4" cx="23.8" cy="29.9" r="1.52"></circle></g><g><circle class="cls-5" cx="43.81" cy="43.81" r="12.19"></circle><path class="cls-6" d="M56,43.81A12.19,12.19,0,0,0,43.81,31.62V56A12.19,12.19,0,0,0,56,43.81Z"></path><circle class="cls-7" cx="43.81" cy="43.81" r="9.14"></circle></g><g><path class="cls-8" d="M25.33,29.9a1.53,1.53,0,0,0-1.53-1.53v3.05A1.52,1.52,0,0,0,25.33,29.9Z"></path><path class="cls-8" d="M25.33,23.8V17.71a1.52,1.52,0,0,0-1.53-1.52v9.14A1.52,1.52,0,0,0,25.33,23.8Z"></path></g></g></g></g></g></svg>