<svg xmlns="http://www.w3.org/2000/svg" xmlns:xlink="http://www.w3.org/1999/xlink" viewBox="0 0 60 60"><defs><style>      .cls-1 {        fill: #fff;        opacity: 0;      }      .cls-2 {        fill: url(#linear-gradient);      }      .cls-3 {        fill: url(#linear-gradient-2);      }    </style><linearGradient id="linear-gradient" x1="30" y1="12.2" x2="30" y2="48.76" gradientTransform="matrix(1, 0, 0, -1, 0, 62)" gradientUnits="userSpaceOnUse"><stop offset="0" stop-color="#ffedad"></stop><stop offset="1" stop-color="#ffffe5"></stop></linearGradient><linearGradient id="linear-gradient-2" x1="26.85" y1="18.29" x2="26.85" y2="51.8" gradientTransform="matrix(1, 0, 0, -1, 0, 62)" gradientUnits="userSpaceOnUse"><stop offset="0" stop-color="#fd5900"></stop><stop offset="1" stop-color="#ffde00"></stop></linearGradient></defs><g id="Layer_2" data-name="Layer 2"><g id="Layer_1-2" data-name="Layer 1"><g><rect class="cls-1" width="60" height="60"></rect><g><path class="cls-2" d="M56,17.81V48.28a1.52,1.52,0,0,1-1.52,1.52H11.62a1.53,1.53,0,0,1-1.53-1.52V43.71L4,25.43V16.29l6.09-3,39.61,3h4.78A1.52,1.52,0,0,1,56,17.81Z"></path><path class="cls-3" d="M49.7,16.29H4V11.72A1.52,1.52,0,0,1,5.52,10.2H48.18a1.52,1.52,0,0,1,1.52,1.52Zm0,9.14V42.19a1.52,1.52,0,0,1-1.52,1.52H5.52A1.52,1.52,0,0,1,4,42.19V25.43Zm-32,12.19a1.53,1.53,0,0,0-1.52-1.53h-6.1a1.53,1.53,0,0,0,0,3h6.1A1.52,1.52,0,0,0,17.71,37.62Zm4.06-6.1A1.52,1.52,0,0,0,20.25,30H10.09a1.53,1.53,0,0,0,0,3H20.25A1.53,1.53,0,0,0,21.77,31.52Zm23.36,4.07A3.55,3.55,0,0,0,41.58,32h-6.1a3.56,3.56,0,0,0,0,7.11h6.1A3.55,3.55,0,0,0,45.13,35.59Z"></path></g></g></g></g></svg>