<svg xmlns="http://www.w3.org/2000/svg" viewBox="0 0 60 60"><defs><style>      .cls-1 {        fill: #fff;        opacity: 0;      }      .cls-2 {        fill: #f8f3f1;      }      .cls-3 {        fill: #e5e1e5;      }      .cls-4 {        fill: #35bcc7;      }      .cls-5 {        fill: #20abb9;      }      .cls-6 {        fill: #fdd330;      }      .cls-7 {        fill: #c9c0c7;      }      .cls-8 {        fill: #fca62f;      }      .cls-9 {        fill: #f98824;      }      .cls-10 {        fill: #fee265;      }      .cls-11 {        fill: #5591d6;      }      .cls-12 {        fill: #1475cb;      }    </style></defs><g id="Layer_2" data-name="Layer 2"><g id="Layer_1-2" data-name="Layer 1"><g><rect class="cls-1" width="60" height="60"></rect><g><g><path class="cls-2" d="M38,4.9V55.1A1.07,1.07,0,0,1,37,56.18H4.06A1.08,1.08,0,0,1,3,55.1V4.9A1.08,1.08,0,0,1,4.06,3.82H37A1.07,1.07,0,0,1,38,4.9Z"></path><g><path class="cls-3" d="M38,24.77V55.1A1.07,1.07,0,0,1,37,56.18H33.41A16.58,16.58,0,0,1,38,24.77Z"></path><path class="cls-3" d="M38,4.9V55.1A1.08,1.08,0,0,1,37,56.18H33A1.08,1.08,0,0,0,34,55.1V4.9A1.08,1.08,0,0,0,33,3.82h4A1.08,1.08,0,0,1,38,4.9Z"></path></g></g><g><g><path class="cls-4" d="M12.93,15.35H8.77a1.16,1.16,0,0,1-1.16-1.16V10A1.16,1.16,0,0,1,8.77,8.87h4.16A1.16,1.16,0,0,1,14.09,10v4.16A1.16,1.16,0,0,1,12.93,15.35Z"></path><path class="cls-5" d="M14.09,10v4.16a1.16,1.16,0,0,1-1.16,1.16h-3a1.16,1.16,0,0,0,1.16-1.16V10A1.16,1.16,0,0,0,9.94,8.87h3A1.16,1.16,0,0,1,14.09,10Z"></path><path class="cls-6" d="M10.82,13.68a.82.82,0,0,1-.58-.24l-.88-.88a.81.81,0,1,1,1.15-1.15l.31.3,3.44-3.44a.81.81,0,1,1,1.15,1.15l-4,4A.78.78,0,0,1,10.82,13.68Z"></path></g><path class="cls-7" d="M21.37,13.14H18.79a.82.82,0,0,1-.81-.82.81.81,0,0,1,.81-.81h2.58a.81.81,0,0,1,.81.81A.82.82,0,0,1,21.37,13.14Z"></path><path class="cls-7" d="M33.4,16.17H18.79a.82.82,0,0,1-.81-.82.81.81,0,0,1,.81-.81H33.4a.82.82,0,0,1,.82.81A.82.82,0,0,1,33.4,16.17Z"></path></g><g><g><path class="cls-4" d="M12.93,25.92H8.77a1.16,1.16,0,0,1-1.16-1.16V20.6a1.16,1.16,0,0,1,1.16-1.16h4.16a1.16,1.16,0,0,1,1.16,1.16v4.16A1.16,1.16,0,0,1,12.93,25.92Z"></path><path class="cls-5" d="M14.09,20.6v4.16a1.16,1.16,0,0,1-1.16,1.16h-3a1.16,1.16,0,0,0,1.16-1.16V20.6a1.16,1.16,0,0,0-1.16-1.16h3A1.16,1.16,0,0,1,14.09,20.6Z"></path><path class="cls-6" d="M10.82,24.25a.82.82,0,0,1-.58-.24l-.88-.88A.82.82,0,1,1,10.51,22l.31.31,3.44-3.44A.81.81,0,1,1,15.41,20l-4,4a.78.78,0,0,1-.57.24Z"></path></g><path class="cls-7" d="M21.37,23.71H18.79a.82.82,0,0,1-.81-.82.81.81,0,0,1,.81-.81h2.58a.81.81,0,0,1,.81.81A.82.82,0,0,1,21.37,23.71Z"></path><path class="cls-7" d="M33.4,26.74H18.79a.82.82,0,0,1-.81-.82.81.81,0,0,1,.81-.81H33.4a.82.82,0,0,1,.82.81A.82.82,0,0,1,33.4,26.74Z"></path></g><g><g><path class="cls-8" d="M12.93,36.49H8.77a1.16,1.16,0,0,1-1.16-1.16V31.17A1.16,1.16,0,0,1,8.77,30h4.16a1.16,1.16,0,0,1,1.16,1.16v4.16A1.16,1.16,0,0,1,12.93,36.49Z"></path><path class="cls-9" d="M14.09,31.17v4.16a1.16,1.16,0,0,1-1.16,1.16h-3a1.16,1.16,0,0,0,1.16-1.16V31.17A1.16,1.16,0,0,0,9.94,30h3A1.16,1.16,0,0,1,14.09,31.17Z"></path></g><path class="cls-7" d="M21.37,34.28H18.79a.82.82,0,0,1-.81-.82.81.81,0,0,1,.81-.81h2.58a.81.81,0,0,1,.81.81A.82.82,0,0,1,21.37,34.28Z"></path><path class="cls-7" d="M33.4,37.31H18.79a.82.82,0,0,1-.81-.82.81.81,0,0,1,.81-.81H33.4a.82.82,0,0,1,.82.81A.82.82,0,0,1,33.4,37.31Z"></path></g><g><g><path class="cls-10" d="M12.93,47.06H8.77A1.16,1.16,0,0,1,7.61,45.9V41.74a1.16,1.16,0,0,1,1.16-1.16h4.16a1.16,1.16,0,0,1,1.16,1.16V45.9A1.16,1.16,0,0,1,12.93,47.06Z"></path><path class="cls-6" d="M14.09,41.74V45.9a1.16,1.16,0,0,1-1.16,1.16h-3A1.16,1.16,0,0,0,11.1,45.9V41.74a1.16,1.16,0,0,0-1.16-1.16h3A1.16,1.16,0,0,1,14.09,41.74Z"></path></g><path class="cls-7" d="M21.37,44.85H18.79A.82.82,0,0,1,18,44a.81.81,0,0,1,.81-.81h2.58a.81.81,0,0,1,.81.81A.82.82,0,0,1,21.37,44.85Z"></path><path class="cls-7" d="M33.4,47.88H18.79a.82.82,0,0,1,0-1.64H33.4a.82.82,0,1,1,0,1.64Z"></path></g></g><g><circle class="cls-11" cx="40.44" cy="36.49" r="16.57"></circle><path class="cls-12" d="M57,36.49A16.57,16.57,0,0,1,40.45,53.06,18.18,18.18,0,0,1,38.63,53a16.57,16.57,0,0,0,0-32.95,15.56,15.56,0,0,1,1.81-.1A16.57,16.57,0,0,1,57,36.49Z"></path><circle class="cls-2" cx="40.44" cy="36.49" r="12.7"></circle></g></g></g></g></svg>