<svg xmlns="http://www.w3.org/2000/svg" viewBox="0 0 39.09 34.06">
  <g id="Layer_2" data-name="Layer 2">
    <g id="Layer_1-2" data-name="Layer 1">
      <g>
        <path d="M0,6.12c.07-.33.13-.65.21-1A6.78,6.78,0,0,1,6.75,0c5.32,0,10.64,0,16,0a10.14,10.14,0,0,1,2.35.44.57.57,0,0,1,.43.79c-.13.31-.44.38-.84.29a10.73,10.73,0,0,0-2.16-.37c-5.18,0-10.36,0-15.53,0a5.62,5.62,0,0,0-5.6,4.25,6.37,6.37,0,0,0-.18,1.51q0,3,0,6a5.62,5.62,0,0,0,2.68,4.93,1.51,1.51,0,0,1,.76,1.4c0,.82,0,1.65,0,2.48v.44c.15-.14.25-.21.33-.3.84-.83,1.69-1.65,2.5-2.51a1.91,1.91,0,0,1,1.63-.67,4.46,4.46,0,0,0,.52,0v-.57a12.32,12.32,0,0,1,.26-3.37,6.78,6.78,0,0,1,6.44-4.94c3.82,0,7.65,0,11.48,0h.5c0-.26,0-.49,0-.71,0-1.08,0-2.16-.09-3.24a5.08,5.08,0,0,0-1.31-2.83.92.92,0,0,1-.25-.56A.75.75,0,0,1,27,2a.57.57,0,0,1,.71.21,6.11,6.11,0,0,1,1.62,3.35c.13,1.22.1,2.46.14,3.69v.57H31.1a11,11,0,0,1,2.92.22,6.81,6.81,0,0,1,5,6.51c0,2.12,0,4.24,0,6.37A6.62,6.62,0,0,1,36,28.61a.61.61,0,0,0-.3.59c0,1.21,0,2.41,0,3.62A1.11,1.11,0,0,1,35.06,34a1.1,1.1,0,0,1-1.27-.35C32.6,32.43,31.4,31.24,30.21,30a.91.91,0,0,0-.7-.29H16.65a7,7,0,0,1-4.54-1.51,2.28,2.28,0,0,1-.39-.37.53.53,0,0,1,0-.73.54.54,0,0,1,.73-.11,1.06,1.06,0,0,1,.21.16,5.67,5.67,0,0,0,3.82,1.38c4.32,0,8.65,0,13,0A2,2,0,0,1,31,29.2c1,1.08,2.12,2.13,3.18,3.19l.32.29c0-.19,0-.32,0-.44q0-1.62,0-3.24a1.44,1.44,0,0,1,.7-1.28,5.62,5.62,0,0,0,2.68-5c0-2,0-4,0-6a5.61,5.61,0,0,0-4.57-5.56A5.44,5.44,0,0,0,32.2,11H16.44a5.61,5.61,0,0,0-5.69,5.64c0,2.1,0,4.2,0,6.3a10.32,10.32,0,0,0,.38,2c.11.46.06.76-.28.9s-.63,0-.81-.46a7.11,7.11,0,0,1-.48-2.69v-2.8a1.46,1.46,0,0,0-1.43.39c-.92,1-1.89,1.92-2.86,2.87a1,1,0,0,1-1.81-.43,1.39,1.39,0,0,1,0-.41c0-1,0-2,0-3a.53.53,0,0,0-.26-.5A6.77,6.77,0,0,1,.06,14,1.83,1.83,0,0,0,0,13.75Z"/>
        <path d="M22.72,23.81c.3-.32.56-.61.86-.92l-.29-.21a1.82,1.82,0,0,1-.87-1.52c0-.77,0-1.53,0-2.29a1.9,1.9,0,0,1,1.21-1.7,4.13,4.13,0,0,0-8.11,0l.14.11A1.9,1.9,0,0,1,16.76,19q0,1,0,2a1.92,1.92,0,1,1-3.84,0c0-.64,0-1.28,0-1.91a2,2,0,0,1,1.19-1.89.65.65,0,0,0,.29-.42,5.32,5.32,0,0,1,10.33-.08.82.82,0,0,0,.47.6,1.81,1.81,0,0,1,1,1.66c0,.71,0,1.43,0,2.14A1.93,1.93,0,0,1,25,22.88a.66.66,0,0,0-.33.31,3.39,3.39,0,0,1-1.52,1.65.72.72,0,0,0-.29.31,1.87,1.87,0,0,1-1.62,1.11,2,2,0,0,1-1.91-.8,1.47,1.47,0,0,1,.25-2,2.19,2.19,0,0,1,2.86,0,3.76,3.76,0,0,1,.29.32M23.58,20c0,.33,0,.66,0,1a.77.77,0,0,0,.74.81.74.74,0,0,0,.74-.76c0-.7,0-1.4,0-2.1a.72.72,0,0,0-.75-.74.73.73,0,0,0-.73.77c0,.34,0,.68,0,1m-8,0h0V19a.73.73,0,0,0-.73-.73.71.71,0,0,0-.74.71c0,.72,0,1.44,0,2.17a.73.73,0,0,0,.74.72.76.76,0,0,0,.73-.74c0-.35,0-.71,0-1.06M21,25.11c.4,0,.76-.22.77-.48s-.34-.5-.77-.5-.76.21-.78.47.36.51.78.51"/>
        <path d="M30.05,16H27.88c-.44,0-.7-.23-.7-.58s.26-.57.7-.58H32.3c.43,0,.67.21.68.56s-.24.6-.68.6H30.05"/>
        <path d="M29.52,18.57H27.85c-.41,0-.67-.23-.67-.57s.26-.59.68-.59h3.35c.45,0,.7.21.71.57s-.24.59-.69.59H29.52"/>
        <path d="M9.24,7.64a.87.87,0,1,1-.87-.86.86.86,0,0,1,.87.86"/>
        <path d="M5.76,6.78A.86.86,0,1,1,5.7,8.5a.85.85,0,0,1-.82-.87.84.84,0,0,1,.88-.85"/>
        <path d="M11.86,7.63A.85.85,0,0,1,11,8.5a.86.86,0,0,1,0-1.72.85.85,0,0,1,.88.85"/>
      </g>
    </g>
  </g>
</svg>
