<svg xmlns="http://www.w3.org/2000/svg" xmlns:xlink="http://www.w3.org/1999/xlink" viewBox="0 0 36 18">
  <defs>
    <style>
      .cls-1, .cls-3 {
        fill: #fff;
      }

      .cls-1 {
        opacity: 0;
      }

      .cls-2 {
        fill: url(#linear-gradient);
      }
    </style>
    <linearGradient id="linear-gradient" x1="18" y1="18.9" x2="18" y2="1.1" gradientTransform="matrix(1, 0, 0, -1, 0, 19)" gradientUnits="userSpaceOnUse">
      <stop offset="0" stop-color="#0ae"/>
      <stop offset="1" stop-color="#05a"/>
    </linearGradient>
  </defs>
  <g id="Layer_2" data-name="Layer 2">
    <g id="Layer_1-2" data-name="Layer 1">
      <g>
        <rect class="cls-1" width="36" height="18"/>
        <g>
          <path class="cls-2" d="M36,.1H0V17.9H18.2"/>
          <path class="cls-3" d="M17.8,3.66v8.39L14.72,3.66H11.63L9,10.62C8.7,8.88,6.88,8.25,5.46,7.77c-1-.31-2-.71-2-1.26,0-.4.56-.79,1.58-.71a5.85,5.85,0,0,1,2.61.71L8.94,4.37a9.2,9.2,0,0,0-4-1A5,5,0,0,0,1.35,4.69,3.2,3.2,0,0,0,.47,6.75,2.9,2.9,0,0,0,1.74,9.28a9.21,9.21,0,0,0,2.37,1c1,.31,1.82.63,1.82,1.18-.08.71-.87.87-1.42.87a4.47,4.47,0,0,1-2.93-.79L.47,13.71a7.43,7.43,0,0,0,4,1,5.7,5.7,0,0,0,3.48-1.11l-.16.71h3L11.31,13A6.72,6.72,0,0,0,15,13l.4,1.34h5.38V11.18h1.11c2.77,0,4.43-1.35,4.43-3.72,0-2.69-1.59-3.8-5-3.8Zm-5.77,7,1.1-3.56h.08l1.11,3.56A3.73,3.73,0,0,1,12,10.62ZM20.81,8.8V6h.79c1,0,1.82.32,1.82,1.35s-.79,1.5-1.82,1.5Z"/>
        </g>
      </g>
    </g>
  </g>
</svg>
