<svg xmlns="http://www.w3.org/2000/svg" viewBox="0 0 60 60"><defs><style>      .cls-1 {        fill: #fff;        opacity: 0;      }      .cls-2 {        fill: #e6ecff;      }      .cls-3 {        fill: #d0dbf7;      }      .cls-4 {        fill: #4294ff;      }      .cls-5 {        fill: #376cfb;      }    </style></defs><g id="Layer_2" data-name="Layer 2"><g id="Layer_1-2" data-name="Layer 1"><g><rect class="cls-1" width="60" height="60"></rect><g id="Time_Checklist" data-name="Time Checklist"><circle class="cls-2" cx="26.9" cy="26.9" r="21.69"></circle><circle class="cls-3" cx="26.9" cy="26.9" r="18.6"></circle><circle class="cls-4" cx="43.17" cy="43.17" r="11.62"></circle><path class="cls-5" d="M41.62,47.05a.83.83,0,0,1-.55-.23L38,43.72a.77.77,0,0,1,1.09-1.1l2.55,2.56,5.65-5.66a.78.78,0,0,1,1.1,0,.77.77,0,0,1,0,1.09l-6.2,6.2a.81.81,0,0,1-.55.23Z"></path><g><path class="cls-4" d="M31.55,32.32A.8.8,0,0,1,31,32.1l-4.65-4.65a.8.8,0,0,1-.22-.55V18.38a.77.77,0,0,1,.77-.78.78.78,0,0,1,.78.78v8.2L32.1,31a.78.78,0,0,1,0,1.1.8.8,0,0,1-.55.22Z"></path><path class="cls-4" d="M26.9,13.73a.77.77,0,0,1-.77-.78h0V11.4a.77.77,0,0,1,.77-.77.78.78,0,0,1,.78.77V13a.78.78,0,0,1-.78.78Z"></path><path class="cls-4" d="M19.93,15.6a.76.76,0,0,1-.67-.39l-.78-1.34a.78.78,0,1,1,1.34-.78h0l.78,1.34a.78.78,0,0,1-.28,1.06A.79.79,0,0,1,19.93,15.6Z"></path><path class="cls-4" d="M14.82,20.7a.78.78,0,0,1-.39-.1l-1.34-.78a.78.78,0,0,1,.78-1.34l1.34.78a.77.77,0,0,1-.39,1.44Z"></path><path class="cls-4" d="M13,27.68H11.4a.78.78,0,0,1-.77-.78.77.77,0,0,1,.77-.77H13a.77.77,0,0,1,.78.77A.78.78,0,0,1,13,27.68Z"></path><path class="cls-4" d="M13.48,35.42A.77.77,0,0,1,13.09,34l1.34-.78a.78.78,0,0,1,.78,1.35l-1.34.77A.76.76,0,0,1,13.48,35.42Z"></path><path class="cls-4" d="M19.15,41.1a.77.77,0,0,1-.77-.78.76.76,0,0,1,.1-.39l.78-1.34a.76.76,0,0,1,1-.28.77.77,0,0,1,.29,1.06h0l-.78,1.34A.76.76,0,0,1,19.15,41.1Z"></path><path class="cls-4" d="M26.9,43.17a.76.76,0,0,1-.77-.77h0V40.85a.77.77,0,0,1,.77-.78.78.78,0,0,1,.78.78V42.4a.78.78,0,0,1-.78.77Z"></path><path class="cls-4" d="M42.4,27.68H40.85a.78.78,0,0,1-.78-.78.77.77,0,0,1,.78-.77H42.4a.77.77,0,0,1,.77.77A.78.78,0,0,1,42.4,27.68Z"></path><path class="cls-4" d="M39,20.7a.77.77,0,0,1-.78-.77.76.76,0,0,1,.39-.67l1.34-.78a.77.77,0,0,1,1.06.29.76.76,0,0,1-.28,1.05l-1.34.78a.76.76,0,0,1-.39.1Z"></path><path class="cls-4" d="M33.87,15.6a.79.79,0,0,1-.67-1.17L34,13.09A.77.77,0,0,1,35,12.81a.78.78,0,0,1,.28,1.06h0l-.77,1.34a.79.79,0,0,1-.68.39Z"></path></g></g></g></g></g></svg>