<svg xmlns="http://www.w3.org/2000/svg" viewBox="0 0 60 60"><defs><style>      .cls-1 {        fill: #fff;        opacity: 0;      }      .cls-2 {        fill: #f0cd00;      }      .cls-3 {        fill: #ffde50;      }      .cls-4 {        fill: #ffea94;      }      .cls-5 {        fill: #faa300;      }      .cls-6 {        fill: #ffbd00;      }      .cls-7 {        fill: #f68e00;      }    </style></defs><g id="Layer_2" data-name="Layer 2"><g id="Layer_1-2" data-name="Layer 1"><g><rect class="cls-1" width="60" height="60"></rect><g><g><path class="cls-2" d="M47.76,30A17.82,17.82,0,1,1,42,16.93,17.76,17.76,0,0,1,47.76,30Z"></path><path class="cls-3" d="M47.76,30a17.76,17.76,0,0,1-17.1,17.75,17.76,17.76,0,0,1,0-35.5A17.76,17.76,0,0,1,47.76,30Z"></path><path class="cls-4" d="M42,16.93,16.93,42a17.64,17.64,0,0,1-2.25-3L39,14.68A17.64,17.64,0,0,1,42,16.93Z"></path><path class="cls-4" d="M46.53,23.51l-23,23A17.93,17.93,0,0,1,19,44L44,19A17.6,17.6,0,0,1,46.53,23.51Z"></path><path class="cls-5" d="M43.8,30a13.8,13.8,0,0,1-23.56,9.76A13.13,13.13,0,0,1,18.72,38a13.59,13.59,0,0,1-1.56-2.88,13.75,13.75,0,0,1-1-4.9V30A13.8,13.8,0,0,1,30,16.2h.17a13.75,13.75,0,0,1,4.9,1A14.05,14.05,0,0,1,38,18.72a13.13,13.13,0,0,1,1.81,1.52,13.81,13.81,0,0,1,4,9.76Z"></path><path class="cls-6" d="M39.76,20.24,20.24,39.76A13.13,13.13,0,0,1,18.72,38a13.59,13.59,0,0,1-1.56-2.88,13.75,13.75,0,0,1-1-4.9V30A13.8,13.8,0,0,1,30,16.2h.17a13.75,13.75,0,0,1,4.9,1A14.05,14.05,0,0,1,38,18.72,13.13,13.13,0,0,1,39.76,20.24Z"></path><path class="cls-7" d="M43.8,30A13.8,13.8,0,0,1,30,43.8l-.78,0a13.8,13.8,0,0,0,0-27.56l.78,0A13.8,13.8,0,0,1,43.8,30Z"></path></g><path class="cls-7" d="M29.55,28.94V23.35A2.82,2.82,0,0,1,31,25.82a1.36,1.36,0,1,0,2.71,0,5.56,5.56,0,0,0-4.17-5.37v-1.1a1.36,1.36,0,1,0-2.72,0v1.1a5.55,5.55,0,0,0-4.18,5.37A4.91,4.91,0,0,0,24,29.5a6.49,6.49,0,0,0,2.79,1.55v5.6a2.82,2.82,0,0,1-1.46-2.47,1.36,1.36,0,0,0-2.72,0,5.55,5.55,0,0,0,4.18,5.37v1.1a1.36,1.36,0,1,0,2.72,0v-1.1a5.56,5.56,0,0,0,4.17-5.37,5,5,0,0,0-1.4-3.7A6.48,6.48,0,0,0,29.55,28.94ZM26,27.58a2.21,2.21,0,0,1-.59-1.76,2.82,2.82,0,0,1,1.46-2.47v4.81A2.8,2.8,0,0,1,26,27.58Zm3.59,9.07V31.83A2.27,2.27,0,0,1,31,34.18,2.82,2.82,0,0,1,29.55,36.65Z"></path><path class="cls-4" d="M31.36,28.94V23.35a2.82,2.82,0,0,1,1.46,2.47,1.36,1.36,0,0,0,2.72,0,5.55,5.55,0,0,0-4.18-5.37v-1.1a1.36,1.36,0,1,0-2.72,0v1.1a5.55,5.55,0,0,0-4.18,5.37,5,5,0,0,0,1.39,3.68,6.49,6.49,0,0,0,2.79,1.55v5.6a2.82,2.82,0,0,1-1.46-2.47,1.36,1.36,0,0,0-2.72,0,5.55,5.55,0,0,0,4.18,5.37v1.1a1.36,1.36,0,1,0,2.72,0v-1.1a5.55,5.55,0,0,0,4.18-5.37,5,5,0,0,0-1.41-3.7A6.48,6.48,0,0,0,31.36,28.94Zm-3.59-1.36a2.21,2.21,0,0,1-.59-1.76,2.82,2.82,0,0,1,1.46-2.47v4.81A3.07,3.07,0,0,1,27.77,27.58Zm3.59,9.07V31.83a2.27,2.27,0,0,1,1.46,2.35A2.82,2.82,0,0,1,31.36,36.65Z"></path></g></g></g></g></svg>