<svg xmlns="http://www.w3.org/2000/svg" xmlns:xlink="http://www.w3.org/1999/xlink" viewBox="0 0 60 60"><defs><style>      .cls-1 {        fill: #fff;        opacity: 0;      }      .cls-2 {        fill: url(#linear-gradient);      }      .cls-3 {        fill: url(#linear-gradient-2);      }      .cls-4 {        fill: url(#linear-gradient-3);      }      .cls-5 {        fill: url(#linear-gradient-4);      }      .cls-6 {        fill: url(#linear-gradient-5);      }      .cls-7 {        fill: url(#linear-gradient-6);      }      .cls-8 {        fill: url(#linear-gradient-7);      }      .cls-9 {        fill: url(#linear-gradient-8);      }      .cls-10 {        fill: url(#linear-gradient-9);      }      .cls-11 {        fill: url(#linear-gradient-10);      }      .cls-12 {        fill: url(#linear-gradient-11);      }      .cls-13 {        fill: url(#linear-gradient-12);      }      .cls-14 {        fill: url(#linear-gradient-13);      }      .cls-15 {        fill: url(#linear-gradient-14);      }      .cls-16 {        fill: url(#linear-gradient-15);      }      .cls-17 {        fill: url(#linear-gradient-16);      }      .cls-18 {        fill: url(#linear-gradient-17);      }      .cls-19 {        fill: url(#linear-gradient-18);      }      .cls-20 {        fill: url(#linear-gradient-19);      }      .cls-21 {        fill: url(#linear-gradient-20);      }      .cls-22 {        fill: url(#linear-gradient-21);      }      .cls-23 {        fill: url(#linear-gradient-22);      }      .cls-24 {        fill: url(#linear-gradient-23);      }      .cls-25 {        fill: url(#linear-gradient-24);      }      .cls-26 {        fill: url(#linear-gradient-25);      }      .cls-27 {        fill: url(#linear-gradient-26);      }      .cls-28 {        fill: url(#linear-gradient-27);      }      .cls-29 {        fill: url(#linear-gradient-28);      }      .cls-30 {        fill: url(#linear-gradient-29);      }      .cls-31 {        fill: url(#linear-gradient-30);      }      .cls-32 {        fill: url(#linear-gradient-31);      }      .cls-33 {        fill: url(#linear-gradient-32);      }      .cls-34 {        fill: url(#linear-gradient-33);      }      .cls-35 {        fill: url(#linear-gradient-34);      }      .cls-36 {        fill: url(#linear-gradient-35);      }      .cls-37 {        fill: url(#linear-gradient-36);      }      .cls-38 {        fill: url(#linear-gradient-37);      }      .cls-39 {        fill: url(#linear-gradient-38);      }      .cls-40 {        fill: url(#linear-gradient-39);      }      .cls-41 {        fill: url(#linear-gradient-40);      }      .cls-42 {        fill: url(#linear-gradient-41);      }      .cls-43 {        fill: url(#linear-gradient-42);      }      .cls-44 {        fill: url(#linear-gradient-43);      }      .cls-45 {        fill: url(#linear-gradient-44);      }      .cls-46 {        fill: url(#linear-gradient-45);      }    </style><linearGradient id="linear-gradient" x1="17.71" y1="43.57" x2="47.31" y2="13.98" gradientTransform="matrix(1, 0, 0, -1, 1.84, 62.22)" gradientUnits="userSpaceOnUse"><stop offset="0" stop-color="#00aefc"></stop><stop offset="1" stop-color="#3f3cee"></stop></linearGradient><linearGradient id="linear-gradient-2" x1="33.27" y1="4.86" x2="24.48" y2="68.15" gradientTransform="matrix(1, 0, 0, -1, 1.84, 62.22)" gradientUnits="userSpaceOnUse"><stop offset="0" stop-color="#00aefc" stop-opacity="0"></stop><stop offset="1" stop-color="#18cffc"></stop></linearGradient><linearGradient id="linear-gradient-3" x1="21.87" y1="41.53" x2="60.34" y2="14.24" gradientTransform="matrix(1, 0, 0, -1, 1.84, 62.22)" gradientUnits="userSpaceOnUse"><stop offset="0" stop-color="#e5f3ff"></stop><stop offset="1" stop-color="#b3ccff"></stop></linearGradient><linearGradient id="linear-gradient-4" x1="42.87" y1="29.66" x2="60.11" y2="26.63" xlink:href="#linear-gradient-3"></linearGradient><linearGradient id="linear-gradient-5" x1="37.6" y1="36.57" x2="55.55" y2="71.63" gradientTransform="matrix(1, 0, 0, -1, 1.84, 62.22)" gradientUnits="userSpaceOnUse"><stop offset="0" stop-color="#3f3cee" stop-opacity="0"></stop><stop offset="1" stop-color="#2f43bc"></stop></linearGradient><linearGradient id="linear-gradient-6" x1="40.18" y1="17.69" x2="27.76" y2="30.11" xlink:href="#linear-gradient-5"></linearGradient><linearGradient id="linear-gradient-7" x1="-551.26" y1="-1048.55" x2="-549.32" y2="-1050.49" gradientTransform="matrix(0.71, 0.71, 0.71, -0.71, 1160.38, -329.22)" gradientUnits="userSpaceOnUse"><stop offset="0" stop-color="#f9f7fc"></stop><stop offset="1" stop-color="#f0ddfc"></stop></linearGradient><linearGradient id="linear-gradient-8" x1="-550.21" y1="-1049.6" x2="-551.56" y2="-1048.24" gradientTransform="matrix(0.71, 0.71, 0.71, -0.71, 1160.38, -329.22)" gradientUnits="userSpaceOnUse"><stop offset="0" stop-color="#e9edf5" stop-opacity="0"></stop><stop offset="1" stop-color="#fff"></stop></linearGradient><linearGradient id="linear-gradient-9" x1="-550.63" y1="-1049.67" x2="-548.57" y2="-1045.85" gradientTransform="matrix(0.71, 0.71, 0.71, -0.71, 1160.38, -329.22)" gradientUnits="userSpaceOnUse"><stop offset="0" stop-color="#f0ddfc" stop-opacity="0"></stop><stop offset="0.29" stop-color="#c8b7e0" stop-opacity="0.29"></stop><stop offset="0.59" stop-color="#a595c8" stop-opacity="0.59"></stop><stop offset="0.84" stop-color="#8f81b8" stop-opacity="0.84"></stop><stop offset="1" stop-color="#8779b3"></stop></linearGradient><linearGradient id="linear-gradient-10" x1="-551.14" y1="-1048.47" x2="-550.34" y2="-1049.62" xlink:href="#linear-gradient-9"></linearGradient><linearGradient id="linear-gradient-11" x1="-548.63" y1="-1046.5" x2="-546.7" y2="-1048.44" xlink:href="#linear-gradient-7"></linearGradient><linearGradient id="linear-gradient-12" x1="-547.59" y1="-1047.55" x2="-548.94" y2="-1046.19" xlink:href="#linear-gradient-8"></linearGradient><linearGradient id="linear-gradient-13" x1="-548" y1="-1047.62" x2="-545.95" y2="-1043.8" xlink:href="#linear-gradient-9"></linearGradient><linearGradient id="linear-gradient-14" x1="-548.51" y1="-1046.42" x2="-547.72" y2="-1047.56" xlink:href="#linear-gradient-9"></linearGradient><linearGradient id="linear-gradient-15" x1="-168.22" y1="-1048.55" x2="-166.28" y2="-1050.48" gradientTransform="translate(665.18 -824.43) rotate(-135)" xlink:href="#linear-gradient-7"></linearGradient><linearGradient id="linear-gradient-16" x1="-167.19" y1="-1049.58" x2="-168.54" y2="-1048.22" gradientTransform="translate(665.18 -824.43) rotate(-135)" xlink:href="#linear-gradient-8"></linearGradient><linearGradient id="linear-gradient-17" x1="-167.59" y1="-1049.68" x2="-165.53" y2="-1045.85" gradientTransform="translate(665.18 -824.43) rotate(-135)" xlink:href="#linear-gradient-9"></linearGradient><linearGradient id="linear-gradient-18" x1="-168.1" y1="-1048.47" x2="-167.31" y2="-1049.61" gradientTransform="translate(665.18 -824.43) rotate(-135)" xlink:href="#linear-gradient-9"></linearGradient><linearGradient id="linear-gradient-19" x1="-165.61" y1="-1046.48" x2="-163.67" y2="-1048.42" gradientTransform="translate(665.18 -824.43) rotate(-135)" xlink:href="#linear-gradient-7"></linearGradient><linearGradient id="linear-gradient-20" x1="-164.55" y1="-1047.54" x2="-165.91" y2="-1046.19" gradientTransform="translate(665.18 -824.43) rotate(-135)" xlink:href="#linear-gradient-8"></linearGradient><linearGradient id="linear-gradient-21" x1="-164.97" y1="-1047.62" x2="-162.91" y2="-1043.8" gradientTransform="translate(665.18 -824.43) rotate(-135)" xlink:href="#linear-gradient-9"></linearGradient><linearGradient id="linear-gradient-22" x1="-165.48" y1="-1046.42" x2="-164.68" y2="-1047.56" gradientTransform="translate(665.18 -824.43) rotate(-135)" xlink:href="#linear-gradient-9"></linearGradient><linearGradient id="linear-gradient-23" x1="-543.45" y1="-1064.84" x2="-542.04" y2="-1066.75" gradientTransform="matrix(0.71, 0.71, 0.71, -0.71, 1160.38, -329.22)" gradientUnits="userSpaceOnUse"><stop offset="0" stop-color="#ffda45"></stop><stop offset="0.3" stop-color="#ffce3e"></stop><stop offset="0.86" stop-color="#ffae2b"></stop><stop offset="1" stop-color="#ffa425"></stop></linearGradient><linearGradient id="linear-gradient-24" x1="-543.35" y1="-1066.07" x2="-543.4" y2="-1061.08" gradientTransform="matrix(0.71, 0.71, 0.71, -0.71, 1160.38, -329.22)" gradientUnits="userSpaceOnUse"><stop offset="0" stop-color="#ffda45" stop-opacity="0"></stop><stop offset="1" stop-color="#b53759"></stop></linearGradient><linearGradient id="linear-gradient-25" x1="-6.74" y1="-1064.83" x2="-5.32" y2="-1066.74" gradientTransform="translate(774.26 -715.35) rotate(-135)" xlink:href="#linear-gradient-23"></linearGradient><linearGradient id="linear-gradient-26" x1="-6.63" y1="-1066.07" x2="-6.68" y2="-1061.08" gradientTransform="translate(774.26 -715.35) rotate(-135)" xlink:href="#linear-gradient-24"></linearGradient><linearGradient id="linear-gradient-27" x1="-548.24" y1="-1047.81" x2="-546.51" y2="-1054.7" xlink:href="#linear-gradient-23"></linearGradient><linearGradient id="linear-gradient-28" x1="-547.44" y1="-1052.64" x2="-550.04" y2="-1039.44" xlink:href="#linear-gradient-24"></linearGradient><linearGradient id="linear-gradient-29" x1="-550.12" y1="-1052.6" x2="-544.35" y2="-1053.25" xlink:href="#linear-gradient-9"></linearGradient><linearGradient id="linear-gradient-30" x1="-547.89" y1="-1051.96" x2="-546.97" y2="-1055.02" xlink:href="#linear-gradient-24"></linearGradient><linearGradient id="linear-gradient-31" x1="-165.2" y1="-1047.81" x2="-163.47" y2="-1054.7" gradientTransform="translate(665.18 -824.43) rotate(-135)" xlink:href="#linear-gradient-23"></linearGradient><linearGradient id="linear-gradient-32" x1="-164.57" y1="-1051.77" x2="-167.17" y2="-1038.57" gradientTransform="translate(665.18 -824.43) rotate(-135)" xlink:href="#linear-gradient-24"></linearGradient><linearGradient id="linear-gradient-33" x1="-167.63" y1="-1052.54" x2="-161.85" y2="-1053.19" gradientTransform="translate(665.18 -824.43) rotate(-135)" xlink:href="#linear-gradient-24"></linearGradient><linearGradient id="linear-gradient-34" x1="-164.85" y1="-1051.96" x2="-163.93" y2="-1055.02" gradientTransform="translate(665.18 -824.43) rotate(-135)" xlink:href="#linear-gradient-24"></linearGradient><linearGradient id="linear-gradient-35" x1="16.32" y1="-270.15" x2="16.32" y2="-274.51" gradientTransform="matrix(0.71, -0.71, -0.71, -0.71, -173.43, -147.98)" xlink:href="#linear-gradient-3"></linearGradient><linearGradient id="linear-gradient-36" x1="16.41" y1="-273.09" x2="16.08" y2="-267.22" gradientTransform="matrix(0.71, -0.71, -0.71, -0.71, -173.43, -147.98)" gradientUnits="userSpaceOnUse"><stop offset="0" stop-color="#e5f3ff" stop-opacity="0"></stop><stop offset="1" stop-color="#fff"></stop></linearGradient><linearGradient id="linear-gradient-37" x1="-537.73" y1="-1053.93" x2="-566.6" y2="-1015.41" gradientTransform="matrix(0.71, 0.71, 0.71, -0.71, 1160.38, -329.22)" gradientUnits="userSpaceOnUse"><stop offset="0" stop-color="#b3ccff" stop-opacity="0"></stop><stop offset="1" stop-color="#9fb0cb"></stop></linearGradient><linearGradient id="linear-gradient-38" x1="-542.36" y1="-1038.97" x2="-537.47" y2="-1040.06" gradientTransform="matrix(0.71, 0.71, 0.71, -0.71, 1160.38, -329.22)" gradientUnits="userSpaceOnUse"><stop offset="0" stop-color="#8b788a"></stop><stop offset="1" stop-color="#6e566e"></stop></linearGradient><linearGradient id="linear-gradient-39" x1="37.39" y1="36.69" x2="36.68" y2="39.16" gradientTransform="matrix(1, 0, 0, -1, 1.84, 62.22)" gradientUnits="userSpaceOnUse"><stop offset="0" stop-color="#8b788a" stop-opacity="0"></stop><stop offset="1" stop-color="#9e8c92"></stop></linearGradient><linearGradient id="linear-gradient-40" x1="-539.12" y1="-1039.51" x2="-540.99" y2="-1035.24" gradientTransform="matrix(0.71, 0.71, 0.71, -0.71, 1160.38, -329.22)" gradientUnits="userSpaceOnUse"><stop offset="0" stop-color="#555a66" stop-opacity="0"></stop><stop offset="1" stop-color="#555a66"></stop></linearGradient><linearGradient id="linear-gradient-41" x1="4.29" y1="-271.45" x2="4.29" y2="-271.96" gradientTransform="matrix(0.71, -0.71, -0.71, -0.71, -173.43, -147.98)" xlink:href="#linear-gradient-3"></linearGradient><linearGradient id="linear-gradient-42" x1="2.16" y1="33.73" x2="48.3" y2="33.73" gradientTransform="matrix(1, 0, 0, -1, 1.84, 62.22)" gradientUnits="userSpaceOnUse"><stop offset="0" stop-color="#ff7044"></stop><stop offset="1" stop-color="#f92814"></stop></linearGradient><linearGradient id="linear-gradient-43" x1="18.86" y1="50.12" x2="20.42" y2="48.55" xlink:href="#linear-gradient-42"></linearGradient><linearGradient id="linear-gradient-44" x1="10.81" y1="40.1" x2="12.51" y2="38.4" gradientTransform="matrix(1, 0, 0, -1, 1.84, 62.22)" gradientUnits="userSpaceOnUse"><stop offset="0" stop-color="#92f37f"></stop><stop offset="1" stop-color="#4ab272"></stop></linearGradient><linearGradient id="linear-gradient-45" x1="49.23" y1="36.75" x2="51.68" y2="34.3" xlink:href="#linear-gradient-44"></linearGradient></defs><g id="Layer_2" data-name="Layer 2"><g id="Layer_1-2" data-name="Layer 1"><g><rect class="cls-1" width="60" height="60"></rect><g><circle class="cls-2" cx="31.49" cy="30.35" r="24.51"></circle><path class="cls-3" d="M48.75,17.46a23.69,23.69,0,0,0-2.67-1.7,23.69,23.69,0,0,0-1.7-2.67c-3.43-4.67-8-7.24-12.89-7.24S22,8.42,18.6,13.09a23.69,23.69,0,0,0-1.7,2.67,22.82,22.82,0,0,0-2.67,1.7C9.56,20.89,7,25.47,7,30.35s2.57,9.46,7.24,12.89a22.82,22.82,0,0,0,2.67,1.7,22.82,22.82,0,0,0,1.7,2.67c3.43,4.67,8,7.24,12.89,7.24S41,52.28,44.38,47.61a22.82,22.82,0,0,0,1.7-2.67,23.69,23.69,0,0,0,2.67-1.7c4.67-3.43,7.24-8,7.24-12.89s-2.57-9.46-7.24-12.89ZM31.49,53.7c-1.35,0-2.77-2-3.9-5.43a33.18,33.18,0,0,0,7.8,0C34.26,51.69,32.83,53.7,31.49,53.7Zm0-6.35a31.35,31.35,0,0,1-4.27-.29,52.88,52.88,0,0,1-1.65-9.54c1.92.14,3.9.21,5.92.21s4-.07,5.91-.21a52.93,52.93,0,0,1-1.64,9.54A31.46,31.46,0,0,1,31.49,47.35ZM31.49,7c1.34,0,2.77,2,3.9,5.43a33.18,33.18,0,0,0-7.8,0C28.72,9,30.14,7,31.49,7Zm0,6.35a31.46,31.46,0,0,1,4.27.29,53.25,53.25,0,0,1,1.64,9.54C35.49,23,33.51,23,31.49,23s-4,.07-5.92.21a53.2,53.2,0,0,1,1.65-9.54A31.35,31.35,0,0,1,31.49,13.35Zm-6.23,17c0-2.06.08-4.07.22-6,1.94-.14,3.95-.22,6-.22s4.07.08,6,.22c.14,1.94.22,3.95.22,6s-.08,4.07-.22,6c-1.94.14-4,.22-6,.22s-4.07-.08-6-.22C25.34,34.42,25.26,32.41,25.26,30.35Zm-.94,5.92a53,53,0,0,1-9.54-1.65,31.58,31.58,0,0,1,0-8.54,53.09,53.09,0,0,1,9.54-1.64c-.14,1.91-.21,3.89-.21,5.91S24.18,34.35,24.32,36.27ZM38.66,24.44a53.25,53.25,0,0,1,9.54,1.64,31.58,31.58,0,0,1,0,8.54,53.2,53.2,0,0,1-9.54,1.65c.14-1.92.21-3.9.21-5.92S38.8,26.35,38.66,24.44Zm-.09-1.17A55.61,55.61,0,0,0,37,13.83a27.87,27.87,0,0,1,8.22,2.79A28,28,0,0,1,48,24.83,55.61,55.61,0,0,0,38.57,23.27Zm-14.16,0A55.61,55.61,0,0,0,15,24.83a27.7,27.7,0,0,1,2.78-8.21A27.87,27.87,0,0,1,26,13.83a55.61,55.61,0,0,0-1.56,9.44Zm-10.84,11c-3.42-1.13-5.43-2.55-5.43-3.9s2-2.77,5.43-3.9a33.18,33.18,0,0,0,0,7.8Zm10.84,3.18A55.61,55.61,0,0,0,26,46.87a27.86,27.86,0,0,1-8.22-2.78A27.86,27.86,0,0,1,15,35.87a55.61,55.61,0,0,0,9.44,1.56Zm14.16,0A55.61,55.61,0,0,0,48,35.87a28.15,28.15,0,0,1-2.78,8.22A27.86,27.86,0,0,1,37,46.87,55.61,55.61,0,0,0,38.57,37.43Zm10.84-11c3.42,1.13,5.43,2.56,5.43,3.9s-2,2.77-5.43,3.9a33.18,33.18,0,0,0,0-7.8Zm5.15,1.3a15.2,15.2,0,0,0-5.32-2.56A29.68,29.68,0,0,0,47,17.68C51,20.25,53.72,23.78,54.56,27.75ZM44.16,14.8a29.68,29.68,0,0,0-7.51-2.2,15.2,15.2,0,0,0-2.56-5.32C38.06,8.12,41.59,10.86,44.16,14.8ZM28.89,7.28a15.19,15.19,0,0,0-2.57,5.32,29.73,29.73,0,0,0-7.5,2.2C21.39,10.86,24.91,8.12,28.89,7.28ZM15.94,17.68a29.68,29.68,0,0,0-2.2,7.51,15.35,15.35,0,0,0-5.33,2.56C9.25,23.78,12,20.25,15.94,17.68ZM8.41,33a15.35,15.35,0,0,0,5.33,2.57,29.73,29.73,0,0,0,2.2,7.5C12,40.45,9.25,36.93,8.41,33ZM18.82,45.9a29.73,29.73,0,0,0,7.5,2.2,15.35,15.35,0,0,0,2.57,5.33c-4-.84-7.5-3.59-10.07-7.53Zm15.27,7.53a15.35,15.35,0,0,0,2.56-5.33,29.68,29.68,0,0,0,7.51-2.2c-2.57,3.94-6.1,6.69-10.07,7.53ZM47,43a29.73,29.73,0,0,0,2.2-7.5A15.19,15.19,0,0,0,54.56,33C53.72,36.93,51,40.45,47,43Z"></path><path class="cls-4" d="M23.06,7.33A24.6,24.6,0,0,0,9.22,20.1a5.41,5.41,0,0,0,1.1,6l.5.5a12,12,0,0,0,8.46,3.51.86.86,0,0,0,0-1.72H16.65a2.21,2.21,0,1,1,0-4.41h2.06A9.32,9.32,0,0,0,25.3,21.3l3.18-3.18A3.73,3.73,0,0,1,31.1,17,3.68,3.68,0,0,0,34.42,15a2.35,2.35,0,0,0-2.12-3.38H28.19A2.19,2.19,0,0,1,26,9.38a2.19,2.19,0,0,0-3-2.05Z"></path><path class="cls-5" d="M55.43,25.07a3.37,3.37,0,0,0-3.3-2.63h-5.3a5.68,5.68,0,0,0-5.68,5.68v.69a5,5,0,0,0,5,5,2.54,2.54,0,0,1,2.54,2.54V43a1.75,1.75,0,0,0,3.2,1,24.35,24.35,0,0,0,3.88-10.14,24.87,24.87,0,0,0-.33-8.74Z"></path><path class="cls-6" d="M42.45,8.43a24.28,24.28,0,0,1,2.59,11A24.53,24.53,0,0,1,9.56,41.32,24.51,24.51,0,1,0,42.45,8.43Z"></path><path class="cls-7" d="M43.86,20.22C42.63,19,39.58,20,33.76,25.44L30.36,25l-1.1-1.13a1.49,1.49,0,0,0-2.12,0,1.46,1.46,0,0,0-.32.47L26,23.49a1.5,1.5,0,0,0-2.13,0,1.55,1.55,0,0,0-.39.68L22.12,24a1.18,1.18,0,0,0-.95.37l-2.25,2.25c-.24.24-.23.58,0,.69l6.78,6.61c-2,2.3-3.78,4.57-5.17,6.53L17.16,40a.5.5,0,0,0-.41.16L15.7,41.21c-.2.2-.22.49,0,.61l2.54,2.46c-.43.93-.55,1.59-.26,1.87l8.1,8.1a24.52,24.52,0,0,0,29.88-22Z"></path><circle class="cls-8" cx="24.88" cy="24.55" r="1.5"></circle><circle class="cls-9" cx="24.88" cy="24.55" r="1.25"></circle><path class="cls-10" d="M26.31,24.07a1.45,1.45,0,0,1-.36.59,1.5,1.5,0,0,1-2.13,0,1.45,1.45,0,0,1-.36-.59A1.5,1.5,0,0,0,26,25.61,1.52,1.52,0,0,0,26.31,24.07Z"></path><circle class="cls-11" cx="24.88" cy="24.55" r="1.5"></circle><path class="cls-12" d="M29.26,26a1.5,1.5,0,0,1-2.12-2.13A1.5,1.5,0,1,1,29.26,26Z"></path><circle class="cls-13" cx="28.2" cy="24.95" r="1.25"></circle><path class="cls-14" d="M29.63,24.48a1.62,1.62,0,0,1-.37.59,1.51,1.51,0,0,1-2.12,0,1.59,1.59,0,0,1-.36-.59A1.49,1.49,0,0,0,27.14,26a1.51,1.51,0,0,0,2.49-1.54Z"></path><path class="cls-15" d="M29.26,26a1.5,1.5,0,0,1-2.12-2.13A1.5,1.5,0,1,1,29.26,26Z"></path><circle class="cls-16" cx="39.54" cy="39.2" r="1.5"></circle><circle class="cls-17" cx="39.54" cy="39.2" r="1.25"></circle><path class="cls-18" d="M40,37.77a1.54,1.54,0,0,0-.59.37A1.49,1.49,0,0,0,40,40.62a1.49,1.49,0,0,1-1.54-.36A1.51,1.51,0,0,1,40,37.77Z"></path><circle class="cls-19" cx="39.54" cy="39.2" r="1.5"></circle><path class="cls-20" d="M38.07,34.82a1.5,1.5,0,1,0,2.12,0A1.49,1.49,0,0,0,38.07,34.82Z"></path><circle class="cls-21" cx="39.13" cy="35.88" r="1.25"></circle><path class="cls-22" d="M39.6,34.46A1.5,1.5,0,0,0,39,36.94a1.51,1.51,0,0,0,.58.37,1.5,1.5,0,0,1-1.53-2.49A1.47,1.47,0,0,1,39.6,34.46Z"></path><path class="cls-23" d="M38.07,34.82a1.5,1.5,0,1,0,2.12,0A1.49,1.49,0,0,0,38.07,34.82Z"></path><path class="cls-24" d="M15.66,41.82l3.22,2.07,3.23-3.22L17.16,40a.5.5,0,0,0-.41.16L15.7,41.21C15.5,41.41,15.48,41.7,15.66,41.82Z"></path><path class="cls-25" d="M16,40.9l-.32.31c-.2.2-.22.49,0,.61l3.23,2.07,2.48-2.48-4.94-.67a.48.48,0,0,0-.41.16Z"></path><path class="cls-26" d="M22.26,48.42,20.19,45.2,23.41,42l.67,4.94a.49.49,0,0,1-.16.41l-1.05,1.05c-.2.2-.49.22-.61,0Z"></path><path class="cls-27" d="M23.19,48.07l-.32.31c-.2.2-.49.22-.61,0L20.19,45.2l2.49-2.49.67,4.95a.54.54,0,0,1-.16.41Z"></path><path class="cls-28" d="M18.92,27.32l10.25,4.41,6.11-6.1L22.12,24a1.18,1.18,0,0,0-.95.37l-2.25,2.25C18.68,26.87,18.69,27.21,18.92,27.32Z"></path><path class="cls-29" d="M19.72,25.83l-.8.8c-.24.24-.23.58,0,.69l10.25,4.41,4.66-4.65L20.67,25.46A1.18,1.18,0,0,0,19.72,25.83Z"></path><path class="cls-30" d="M25.58,26.06l-4.91-.6a1.18,1.18,0,0,0-1,.37l-.8.8c-.24.24-.23.58,0,.69l3.78,1.62Z"></path><path class="cls-31" d="M18.92,27.32l10.25,4.41,2.1-2.1-11.36-4-1,1c-.24.24-.23.58,0,.69Z"></path><path class="cls-32" d="M36.77,45.16,32.35,34.91l6.1-6.1L40.08,42a1.22,1.22,0,0,1-.38.94l-2.25,2.25c-.24.24-.58.24-.68,0Z"></path><path class="cls-33" d="M38.25,44.36l-.8.8c-.24.24-.58.24-.68,0L32.35,34.91,37,30.26l1.63,13.16A1.22,1.22,0,0,1,38.25,44.36Z"></path><path class="cls-34" d="M38,38.5l.61,4.92a1.22,1.22,0,0,1-.38.94l-.8.8c-.24.24-.58.24-.68,0l-1.63-3.78Z"></path><path class="cls-35" d="M36.77,45.16,32.35,34.91l2.1-2.1,4,11.36-1,1c-.24.24-.58.24-.68,0Z"></path><path class="cls-36" d="M36.66,32.37C29.5,39.53,19.3,47.51,17.94,46.15s6.62-11.57,13.78-18.73,10.77-8.56,12.14-7.2,0,5-7.2,12.15Z"></path><path class="cls-37" d="M36.13,32.16C29.32,39,19.73,46.68,18.57,45.51S25.12,34.76,31.92,28s10.15-8.26,11.31-7.09-.29,4.49-7.1,11.3Z"></path><path class="cls-38" d="M36.66,32.37c7.16-7.16,8.57-10.78,7.2-12.15L17.94,46.15C19.3,47.51,29.5,39.53,36.66,32.37Z"></path><path class="cls-39" d="M37.76,22.88q-.66.57-1.38,1.23c-.12.12-.11.29,0,.31a4.07,4.07,0,0,1,2.16,1.1,4,4,0,0,1,1.1,2.16c0,.13.2.14.31,0q.66-.72,1.23-1.38a1.09,1.09,0,0,0,.29-1,3.81,3.81,0,0,0-1-1.74,3.92,3.92,0,0,0-1.75-1A1.12,1.12,0,0,0,37.76,22.88Z"></path><path class="cls-40" d="M41.2,26.32c-.33.39-.69.79-1.07,1.21L40,27.7c-.11.13-.29.11-.31,0a4,4,0,0,0-1.1-2.16l-.1-.1A4.06,4.06,0,0,0,37,24.58c.49-.44.94-.85,1.38-1.23a1.12,1.12,0,0,1,1-.29,4.33,4.33,0,0,1,1,.43l.11.11a3.81,3.81,0,0,1,1,1.74,1.09,1.09,0,0,1-.29,1Z"></path><path class="cls-41" d="M39.66,27.68c0,.13.2.14.31,0q.66-.72,1.23-1.38a1.09,1.09,0,0,0,.29-1,3.81,3.81,0,0,0-1-1.74l-1.93,1.92A4,4,0,0,1,39.66,27.68Z"></path><path class="cls-42" d="M20.34,44l-.21-.22a.54.54,0,0,1,.13-.75L24,39.66a.32.32,0,1,1,.44.44l-3.33,3.72a.53.53,0,0,1-.75.14Z"></path><path class="cls-43" d="M7.26,51.57a4.12,4.12,0,0,1-.62,0A.46.46,0,0,1,6.26,51l.2-.74a.46.46,0,0,1,.48-.33,5,5,0,0,0,1.52-.14.46.46,0,0,1,.53.33l.2.73a.46.46,0,0,1-.35.57,7.21,7.21,0,0,1-1.58.19Zm3.66-1.34-.29-.7a.46.46,0,0,1,.25-.59c.51-.22,1-.48,1.62-.77a.45.45,0,0,1,.61.19l.36.66a.45.45,0,0,1-.2.62c-.61.32-1.19.6-1.75.84a.46.46,0,0,1-.6-.25Zm-6.18-.59a.46.46,0,0,1-.63-.31,4.62,4.62,0,0,1-.11-1,6.5,6.5,0,0,1,.13-1.26.45.45,0,0,1,.55-.36l.74.17a.47.47,0,0,1,.34.53,5.37,5.37,0,0,0-.09.92,2.93,2.93,0,0,0,0,.53.45.45,0,0,1-.27.5ZM15,48.14l-.38-.65a.45.45,0,0,1,.15-.62c.51-.31,1-.63,1.55-1A.45.45,0,0,1,17,46l.42.63a.45.45,0,0,1-.13.63c-.55.36-1.09.7-1.61,1A.46.46,0,0,1,15,48.14Zm4.49-2.4a.46.46,0,0,1-.64-.1M5.93,45.22,5.23,45a.46.46,0,0,1-.26-.6q.35-.84.81-1.77a.46.46,0,0,1,.62-.2l.67.35a.46.46,0,0,1,.2.61c-.29.57-.54,1.11-.75,1.63a.47.47,0,0,1-.59.25Zm2-4-.65-.38a.46.46,0,0,1-.16-.63v0A.46.46,0,0,1,7.75,40l.65.4a.45.45,0,0,1,.15.62h0a.46.46,0,0,1-.62.16ZM44.63,19.82,44,19.39a.45.45,0,0,1-.12-.63q.54-.78,1-1.53a.47.47,0,0,1,.63-.14l.64.41a.45.45,0,0,1,.14.63c-.34.51-.69,1-1.06,1.58A.45.45,0,0,1,44.63,19.82ZM47.12,16l-.65-.38a.45.45,0,0,1-.16-.62c.31-.55.6-1.08.86-1.6a.45.45,0,0,1,.6-.2l.68.33a.45.45,0,0,1,.21.61c-.27.55-.58,1.11-.91,1.7a.46.46,0,0,1-.63.16Zm2.06-4.13-.71-.27a.46.46,0,0,1-.26-.58,11.24,11.24,0,0,0,.46-1.64.45.45,0,0,1,.5-.36l.75.08a.47.47,0,0,1,.4.54,12.31,12.31,0,0,1-.55,2A.45.45,0,0,1,49.18,11.83ZM43,7.54l-.31-.69a.45.45,0,0,1,.23-.6,15.48,15.48,0,0,1,1.86-.69.44.44,0,0,1,.57.32l.2.73a.46.46,0,0,1-.31.55,14.71,14.71,0,0,0-1.64.61A.45.45,0,0,1,43,7.54Zm6-.12a.44.44,0,0,1-.52-.14l-.09-.1a1.65,1.65,0,0,0-1.21-.37h0V5.62a.47.47,0,0,1,.5-.46A3,3,0,0,1,49.57,6a2.51,2.51,0,0,1,.38.48.47.47,0,0,1-.22.67Z"></path><circle class="cls-44" cx="20.88" cy="12.02" r="1.42"></circle><circle class="cls-45" cx="13.29" cy="22.56" r="1.42"></circle><circle class="cls-46" cx="52.14" cy="26.21" r="1.42"></circle></g></g></g></g></svg>