<svg xmlns="http://www.w3.org/2000/svg" viewBox="0 0 60 60"><defs><style>      .cls-1, .cls-11 {        fill: #fff;      }      .cls-1 {        opacity: 0;      }      .cls-2 {        fill: #383838;      }      .cls-3 {        fill: #4c4c4c;      }      .cls-4 {        fill: #66c3e9;      }      .cls-5 {        fill: #8adef9;      }      .cls-6 {        fill: #0059be;      }      .cls-7 {        fill: #006bdb;      }      .cls-8 {        fill: #f2b129;      }      .cls-9 {        fill: #eed05f;      }      .cls-10 {        fill: #d7e0ef;      }    </style></defs><g id="Layer_2" data-name="Layer 2"><g id="Layer_1-2" data-name="Layer 1"><g><rect class="cls-1" width="60" height="60"></rect><g><path class="cls-2" d="M9.1,50.9V24.37A2.41,2.41,0,0,1,11.51,22h37a2.41,2.41,0,0,1,2.41,2.41V50.9Z"></path><path class="cls-3" d="M50.9,24.37a2.31,2.31,0,0,0-.11-.69,2.31,2.31,0,0,0-.69-.11h-37A2.41,2.41,0,0,0,10.71,26V36.43A10.45,10.45,0,0,0,21.16,46.88H50.9Z"></path><path class="cls-4" d="M12.31,50.9V25.18H47.69V50.9"></path><path class="cls-5" d="M47.69,25.18H12.31V42a10.44,10.44,0,0,0,8.85,4.9H47.69Z"></path><path class="cls-6" d="M15.53,36.43H44.47v9.65H15.53Z"></path><path class="cls-7" d="M26.78,44.47H44.47v-8H17.28A9.64,9.64,0,0,0,26.78,44.47Z"></path><path class="cls-8" d="M37.24,36.43h7.23v9.65H37.24Z"></path><path class="cls-9" d="M37.24,36.43h7.23v8H37.24Z"></path><path class="cls-10" d="M17.94,38.84h6.43v1.61H17.94Z"></path><path class="cls-10" d="M17.94,42.06H28.39v1.61H17.94Z"></path><path class="cls-11" d="M41.25,38.84h3.22v1.61H41.25Z"></path><path class="cls-11" d="M39.65,42.06h4.82v1.61H39.65Z"></path><circle class="cls-8" cx="30" cy="19.55" r="13.67"></circle><path class="cls-9" d="M30,5.88a13.63,13.63,0,0,0-8.82,3.24A13.66,13.66,0,0,0,40.43,28.37,13.66,13.66,0,0,0,30,5.88Z"></path><path class="cls-6" d="M31.88,20.09l3.75,7.5,1.61-2.41L35,17l-2.4-2.4-8.22-2.25L22,13.92l7.5,3.75Z"></path><path class="cls-11" d="M24.37,38.84H18A9.55,9.55,0,0,0,19,40.45h5.41Z"></path><path class="cls-11" d="M28.39,42.06h-8A9.71,9.71,0,0,0,23,43.67h5.44Z"></path><path class="cls-7" d="M38,12.74a1.2,1.2,0,0,1-.21.69,25.27,25.27,0,0,1-3.18,3.88l-6.26,6.26.81,4L27.59,29.2l-2.41-4.83L20.35,22,22,20.35l4,.81,6.25-6.26a25.84,25.84,0,0,1,3.89-3.18,1.2,1.2,0,0,1,.69-.21A1.23,1.23,0,0,1,38,12.74Z"></path><path class="cls-2" d="M54.12,49.29a4.83,4.83,0,0,1-4.83,4.83H10.71a4.84,4.84,0,0,1-4.83-4.83H24.37l2.41,1.61h6.44l2.41-1.61Z"></path><path class="cls-3" d="M35.63,49.29,33.22,50.9H26.78l-2.41-1.61H7a4.82,4.82,0,0,0,4.54,3.22H50.1a4.82,4.82,0,0,0,3.83-1.91,4.77,4.77,0,0,0,.19-1.31Z"></path></g></g></g></g></svg>