<svg xmlns="http://www.w3.org/2000/svg" xmlns:xlink="http://www.w3.org/1999/xlink" viewBox="0 0 60 60"><defs><style>      .cls-1 {        fill: #fff;        opacity: 0;      }      .cls-2 {        fill: url(#linear-gradient);      }      .cls-3 {        fill: url(#linear-gradient-2);      }      .cls-4 {        fill: url(#linear-gradient-3);      }      .cls-5 {        fill: url(#linear-gradient-4);      }      .cls-6 {        fill: url(#linear-gradient-5);      }      .cls-7 {        fill: url(#linear-gradient-6);      }      .cls-8 {        fill: url(#linear-gradient-7);      }      .cls-9 {        fill: url(#linear-gradient-8);      }      .cls-10 {        fill: url(#linear-gradient-9);      }      .cls-11 {        fill: url(#linear-gradient-10);      }      .cls-12 {        fill: url(#linear-gradient-11);      }      .cls-13 {        fill: url(#linear-gradient-12);      }      .cls-14 {        fill: url(#linear-gradient-13);      }      .cls-15 {        fill: url(#linear-gradient-14);      }      .cls-16 {        fill: url(#linear-gradient-15);      }      .cls-17 {        fill: url(#linear-gradient-16);      }      .cls-18 {        fill: url(#linear-gradient-17);      }      .cls-19 {        fill: url(#linear-gradient-18);      }      .cls-20 {        fill: url(#linear-gradient-19);      }      .cls-21 {        fill: url(#linear-gradient-20);      }      .cls-22 {        fill: url(#linear-gradient-21);      }      .cls-23 {        fill: url(#linear-gradient-22);      }      .cls-24 {        fill: url(#linear-gradient-23);      }      .cls-25 {        fill: url(#linear-gradient-24);      }      .cls-26 {        fill: url(#linear-gradient-25);      }      .cls-27 {        fill: url(#linear-gradient-26);      }      .cls-28 {        fill: url(#linear-gradient-27);      }      .cls-29 {        fill: url(#linear-gradient-28);      }      .cls-30 {        fill: url(#linear-gradient-29);      }      .cls-31 {        fill: url(#linear-gradient-30);      }      .cls-32 {        fill: url(#linear-gradient-31);      }      .cls-33 {        fill: url(#linear-gradient-32);      }      .cls-34 {        fill: url(#linear-gradient-33);      }      .cls-35 {        fill: url(#linear-gradient-34);      }      .cls-36 {        fill: url(#linear-gradient-35);      }      .cls-37 {        fill: url(#linear-gradient-36);      }      .cls-38 {        fill: url(#linear-gradient-37);      }      .cls-39 {        fill: url(#linear-gradient-38);      }      .cls-40 {        fill: url(#linear-gradient-39);      }      .cls-41 {        fill: url(#linear-gradient-40);      }      .cls-42 {        fill: url(#linear-gradient-41);      }      .cls-43 {        fill: url(#linear-gradient-42);      }      .cls-44 {        fill: url(#linear-gradient-43);      }      .cls-45 {        fill: url(#linear-gradient-44);      }      .cls-46 {        fill: url(#linear-gradient-45);      }      .cls-47 {        fill: #fdd330;      }      .cls-48 {        fill: #376cfb;      }    </style><linearGradient id="linear-gradient" x1="15.78" y1="-93.46" x2="40.78" y2="-118.45" gradientTransform="matrix(1, 0, 0, -1, 1.84, -74.05)" gradientUnits="userSpaceOnUse"><stop offset="0" stop-color="#00aefc"></stop><stop offset="1" stop-color="#3f3cee"></stop></linearGradient><linearGradient id="linear-gradient-2" x1="28.92" y1="-126.15" x2="21.5" y2="-72.7" gradientTransform="matrix(1, 0, 0, -1, 1.84, -74.05)" gradientUnits="userSpaceOnUse"><stop offset="0" stop-color="#00aefc" stop-opacity="0"></stop><stop offset="1" stop-color="#18cffc"></stop></linearGradient><linearGradient id="linear-gradient-3" x1="19.29" y1="-95.18" x2="51.78" y2="-118.23" gradientTransform="matrix(1, 0, 0, -1, 1.84, -74.05)" gradientUnits="userSpaceOnUse"><stop offset="0" stop-color="#e5f3ff"></stop><stop offset="1" stop-color="#b3ccff"></stop></linearGradient><linearGradient id="linear-gradient-4" x1="37.03" y1="-105.2" x2="51.59" y2="-107.76" xlink:href="#linear-gradient-3"></linearGradient><linearGradient id="linear-gradient-5" x1="32.58" y1="-99.37" x2="47.74" y2="-69.75" gradientTransform="matrix(1, 0, 0, -1, 1.84, -74.05)" gradientUnits="userSpaceOnUse"><stop offset="0" stop-color="#3f3cee" stop-opacity="0"></stop><stop offset="1" stop-color="#2f43bc"></stop></linearGradient><linearGradient id="linear-gradient-6" x1="34.76" y1="-115.32" x2="24.27" y2="-104.82" xlink:href="#linear-gradient-5"></linearGradient><linearGradient id="linear-gradient-7" x1="-505.55" y1="-1165.31" x2="-503.91" y2="-1166.95" gradientTransform="matrix(0.71, 0.71, 0.71, -0.71, 1208.07, -444.07)" gradientUnits="userSpaceOnUse"><stop offset="0" stop-color="#f9f7fc"></stop><stop offset="1" stop-color="#f0ddfc"></stop></linearGradient><linearGradient id="linear-gradient-8" x1="-504.66" y1="-1166.2" x2="-505.8" y2="-1165.06" gradientTransform="matrix(0.71, 0.71, 0.71, -0.71, 1208.07, -444.07)" gradientUnits="userSpaceOnUse"><stop offset="0" stop-color="#e9edf5" stop-opacity="0"></stop><stop offset="1" stop-color="#fff"></stop></linearGradient><linearGradient id="linear-gradient-9" x1="-505.01" y1="-1166.27" x2="-503.28" y2="-1163.03" gradientTransform="matrix(0.71, 0.71, 0.71, -0.71, 1208.07, -444.07)" gradientUnits="userSpaceOnUse"><stop offset="0" stop-color="#f0ddfc" stop-opacity="0"></stop><stop offset="0.29" stop-color="#c8b7e0" stop-opacity="0.29"></stop><stop offset="0.59" stop-color="#a595c8" stop-opacity="0.59"></stop><stop offset="0.84" stop-color="#8f81b8" stop-opacity="0.84"></stop><stop offset="1" stop-color="#8779b3"></stop></linearGradient><linearGradient id="linear-gradient-10" x1="-505.44" y1="-1165.25" x2="-504.77" y2="-1166.22" xlink:href="#linear-gradient-9"></linearGradient><linearGradient id="linear-gradient-11" x1="-503.33" y1="-1163.58" x2="-501.69" y2="-1165.22" xlink:href="#linear-gradient-7"></linearGradient><linearGradient id="linear-gradient-12" x1="-502.45" y1="-1164.47" x2="-503.59" y2="-1163.32" xlink:href="#linear-gradient-8"></linearGradient><linearGradient id="linear-gradient-13" x1="-502.8" y1="-1164.53" x2="-501.06" y2="-1161.3" xlink:href="#linear-gradient-9"></linearGradient><linearGradient id="linear-gradient-14" x1="-503.23" y1="-1163.52" x2="-502.56" y2="-1164.48" xlink:href="#linear-gradient-9"></linearGradient><linearGradient id="linear-gradient-15" x1="-214.55" y1="-1165.31" x2="-212.91" y2="-1166.95" gradientTransform="translate(710.02 -942.11) rotate(-135)" xlink:href="#linear-gradient-7"></linearGradient><linearGradient id="linear-gradient-16" x1="-213.68" y1="-1166.18" x2="-214.82" y2="-1165.04" gradientTransform="translate(710.02 -942.11) rotate(-135)" xlink:href="#linear-gradient-8"></linearGradient><linearGradient id="linear-gradient-17" x1="-214.02" y1="-1166.27" x2="-212.28" y2="-1163.04" gradientTransform="translate(710.02 -942.11) rotate(-135)" xlink:href="#linear-gradient-9"></linearGradient><linearGradient id="linear-gradient-18" x1="-214.45" y1="-1165.25" x2="-213.77" y2="-1166.21" gradientTransform="translate(710.02 -942.11) rotate(-135)" xlink:href="#linear-gradient-9"></linearGradient><linearGradient id="linear-gradient-19" x1="-212.34" y1="-1163.57" x2="-210.71" y2="-1165.2" gradientTransform="translate(710.02 -942.11) rotate(-135)" xlink:href="#linear-gradient-7"></linearGradient><linearGradient id="linear-gradient-20" x1="-211.45" y1="-1164.47" x2="-212.59" y2="-1163.32" gradientTransform="translate(710.02 -942.11) rotate(-135)" xlink:href="#linear-gradient-8"></linearGradient><linearGradient id="linear-gradient-21" x1="-211.8" y1="-1164.54" x2="-210.06" y2="-1161.3" gradientTransform="translate(710.02 -942.11) rotate(-135)" xlink:href="#linear-gradient-9"></linearGradient><linearGradient id="linear-gradient-22" x1="-212.23" y1="-1163.52" x2="-211.56" y2="-1164.48" gradientTransform="translate(710.02 -942.11) rotate(-135)" xlink:href="#linear-gradient-9"></linearGradient><linearGradient id="linear-gradient-23" x1="-498.96" y1="-1179.07" x2="-497.76" y2="-1180.69" gradientTransform="matrix(0.71, 0.71, 0.71, -0.71, 1208.07, -444.07)" gradientUnits="userSpaceOnUse"><stop offset="0" stop-color="#ffda45"></stop><stop offset="0.3" stop-color="#ffce3e"></stop><stop offset="0.86" stop-color="#ffae2b"></stop><stop offset="1" stop-color="#ffa425"></stop></linearGradient><linearGradient id="linear-gradient-24" x1="-498.86" y1="-1180.11" x2="-498.91" y2="-1175.9" gradientTransform="matrix(0.71, 0.71, 0.71, -0.71, 1208.07, -444.07)" gradientUnits="userSpaceOnUse"><stop offset="0" stop-color="#ffda45" stop-opacity="0"></stop><stop offset="1" stop-color="#b53759"></stop></linearGradient><linearGradient id="linear-gradient-25" x1="-54.28" y1="-1179.07" x2="-53.08" y2="-1180.68" gradientTransform="translate(819.1 -833.03) rotate(-135)" xlink:href="#linear-gradient-23"></linearGradient><linearGradient id="linear-gradient-26" x1="-54.18" y1="-1180.11" x2="-54.23" y2="-1175.9" gradientTransform="translate(819.1 -833.03) rotate(-135)" xlink:href="#linear-gradient-24"></linearGradient><linearGradient id="linear-gradient-27" x1="-503" y1="-1164.69" x2="-501.53" y2="-1170.51" xlink:href="#linear-gradient-23"></linearGradient><linearGradient id="linear-gradient-28" x1="-502.32" y1="-1168.77" x2="-504.52" y2="-1157.62" xlink:href="#linear-gradient-24"></linearGradient><linearGradient id="linear-gradient-29" x1="-504.59" y1="-1168.74" x2="-499.71" y2="-1169.29" xlink:href="#linear-gradient-9"></linearGradient><linearGradient id="linear-gradient-30" x1="-502.7" y1="-1168.2" x2="-501.92" y2="-1170.78" xlink:href="#linear-gradient-24"></linearGradient><linearGradient id="linear-gradient-31" x1="-212" y1="-1164.69" x2="-210.54" y2="-1170.51" gradientTransform="translate(710.02 -942.11) rotate(-135)" xlink:href="#linear-gradient-23"></linearGradient><linearGradient id="linear-gradient-32" x1="-211.47" y1="-1168.04" x2="-213.66" y2="-1156.89" gradientTransform="translate(710.02 -942.11) rotate(-135)" xlink:href="#linear-gradient-24"></linearGradient><linearGradient id="linear-gradient-33" x1="-214.05" y1="-1168.69" x2="-209.17" y2="-1169.24" gradientTransform="translate(710.02 -942.11) rotate(-135)" xlink:href="#linear-gradient-24"></linearGradient><linearGradient id="linear-gradient-34" x1="-211.7" y1="-1168.19" x2="-210.93" y2="-1170.78" gradientTransform="translate(710.02 -942.11) rotate(-135)" xlink:href="#linear-gradient-24"></linearGradient><linearGradient id="linear-gradient-35" x1="-34.07" y1="-384.39" x2="-34.07" y2="-388.08" gradientTransform="matrix(0.71, -0.71, -0.71, -0.71, -222.28, -265.66)" xlink:href="#linear-gradient-3"></linearGradient><linearGradient id="linear-gradient-36" x1="-34" y1="-386.87" x2="-34.28" y2="-381.91" gradientTransform="matrix(0.71, -0.71, -0.71, -0.71, -222.28, -265.66)" gradientUnits="userSpaceOnUse"><stop offset="0" stop-color="#e5f3ff" stop-opacity="0"></stop><stop offset="1" stop-color="#fff"></stop></linearGradient><linearGradient id="linear-gradient-37" x1="-494.12" y1="-1169.86" x2="-518.5" y2="-1137.33" gradientTransform="matrix(0.71, 0.71, 0.71, -0.71, 1208.07, -444.07)" gradientUnits="userSpaceOnUse"><stop offset="0" stop-color="#b3ccff" stop-opacity="0"></stop><stop offset="1" stop-color="#9fb0cb"></stop></linearGradient><linearGradient id="linear-gradient-38" x1="-498.03" y1="-1157.23" x2="-493.9" y2="-1158.14" gradientTransform="matrix(0.71, 0.71, 0.71, -0.71, 1208.07, -444.07)" gradientUnits="userSpaceOnUse"><stop offset="0" stop-color="#8b788a"></stop><stop offset="1" stop-color="#6e566e"></stop></linearGradient><linearGradient id="linear-gradient-39" x1="32.4" y1="-99.26" x2="31.8" y2="-97.18" gradientTransform="matrix(1, 0, 0, -1, 1.84, -74.05)" gradientUnits="userSpaceOnUse"><stop offset="0" stop-color="#8b788a" stop-opacity="0"></stop><stop offset="1" stop-color="#9e8c92"></stop></linearGradient><linearGradient id="linear-gradient-40" x1="-495.29" y1="-1157.68" x2="-496.88" y2="-1154.08" gradientTransform="matrix(0.71, 0.71, 0.71, -0.71, 1208.07, -444.07)" gradientUnits="userSpaceOnUse"><stop offset="0" stop-color="#555a66" stop-opacity="0"></stop><stop offset="1" stop-color="#555a66"></stop></linearGradient><linearGradient id="linear-gradient-41" x1="-44.24" y1="-385.48" x2="-44.24" y2="-385.92" gradientTransform="matrix(0.71, -0.71, -0.71, -0.71, -222.28, -265.66)" xlink:href="#linear-gradient-3"></linearGradient><linearGradient id="linear-gradient-42" x1="2.64" y1="-101.76" x2="41.62" y2="-101.76" gradientTransform="matrix(1, 0, 0, -1, 1.84, -74.05)" gradientUnits="userSpaceOnUse"><stop offset="0" stop-color="#ff7044"></stop><stop offset="1" stop-color="#f92814"></stop></linearGradient><linearGradient id="linear-gradient-43" x1="16.75" y1="-87.92" x2="18.07" y2="-89.24" xlink:href="#linear-gradient-42"></linearGradient><linearGradient id="linear-gradient-44" x1="9.95" y1="-96.38" x2="11.39" y2="-97.82" gradientTransform="matrix(1, 0, 0, -1, 1.84, -74.05)" gradientUnits="userSpaceOnUse"><stop offset="0" stop-color="#92f37f"></stop><stop offset="1" stop-color="#4ab272"></stop></linearGradient><linearGradient id="linear-gradient-45" x1="42.4" y1="-99.22" x2="44.47" y2="-101.28" xlink:href="#linear-gradient-44"></linearGradient></defs><g id="Layer_2" data-name="Layer 2"><g id="Layer_1-2" data-name="Layer 1"><g><rect class="cls-1" width="60" height="60"></rect><g><g><circle class="cls-2" cx="27.71" cy="29.8" r="20.7"></circle><path class="cls-3" d="M42.29,18.91A20,20,0,0,0,40,17.48a21.69,21.69,0,0,0-1.44-2.26c-2.89-3.94-6.76-6.11-10.89-6.11s-8,2.17-10.89,6.11a20.09,20.09,0,0,0-1.43,2.26,20,20,0,0,0-2.25,1.43C9.19,21.81,7,25.68,7,29.8s2.17,8,6.12,10.89a21.55,21.55,0,0,0,2.25,1.44,20,20,0,0,0,1.43,2.25c2.9,3.94,6.77,6.12,10.89,6.12s8-2.18,10.89-6.12A21.55,21.55,0,0,0,40,42.13a21.55,21.55,0,0,0,2.25-1.44c4-2.9,6.12-6.76,6.12-10.89s-2.17-8-6.12-10.89ZM27.71,49.52c-1.13,0-2.34-1.69-3.29-4.58a28.67,28.67,0,0,0,6.59,0C30.05,47.83,28.85,49.52,27.71,49.52Zm0-5.36a26.55,26.55,0,0,1-3.6-.24,45,45,0,0,1-1.39-8.06c1.61.12,3.29.17,5,.17s3.38-.05,5-.17a45,45,0,0,1-1.39,8.06A26.69,26.69,0,0,1,27.71,44.16Zm0-34.08c1.14,0,2.34,1.69,3.3,4.58a28.67,28.67,0,0,0-6.59,0C25.37,11.77,26.58,10.08,27.71,10.08Zm0,5.36a26.68,26.68,0,0,1,3.61.25,44.7,44.7,0,0,1,1.39,8c-1.62-.11-3.29-.17-5-.17s-3.38.06-5,.17a44.7,44.7,0,0,1,1.39-8A26.53,26.53,0,0,1,27.71,15.44ZM22.45,29.8c0-1.74.07-3.44.19-5.07,1.63-.13,3.34-.19,5.07-.19s3.44.06,5.08.19c.12,1.63.18,3.33.18,5.07s-.06,3.44-.18,5.08c-1.64.12-3.34.18-5.08.18s-3.44-.06-5.07-.18C22.52,33.24,22.45,31.54,22.45,29.8Zm-.8,5a44.86,44.86,0,0,1-8-1.39,27.2,27.2,0,0,1,0-7.21,44.86,44.86,0,0,1,8-1.39c-.11,1.61-.17,3.28-.17,5S21.54,33.18,21.65,34.8Zm12.12-10a45,45,0,0,1,8.06,1.39,26.44,26.44,0,0,1,.24,3.6,26.69,26.69,0,0,1-.24,3.61,45,45,0,0,1-8.06,1.39c.12-1.62.18-3.29.18-5S33.89,26.42,33.77,24.81Zm-.08-1a46.12,46.12,0,0,0-1.32-8,23.63,23.63,0,0,1,7,2.35,23.56,23.56,0,0,1,2.34,6.94A47.1,47.1,0,0,0,33.69,23.82Zm-12,0a47.27,47.27,0,0,0-8,1.32,23.57,23.57,0,0,1,2.35-6.94,23.57,23.57,0,0,1,6.94-2.35,48.13,48.13,0,0,0-1.32,8Zm-9.16,9.27C9.69,32.14,8,30.94,8,29.8s1.7-2.34,4.58-3.29a28.58,28.58,0,0,0,0,6.58Zm9.16,2.69a48.13,48.13,0,0,0,1.32,8,23.57,23.57,0,0,1-6.94-2.35,23.57,23.57,0,0,1-2.35-6.94,46.28,46.28,0,0,0,8,1.32Zm12,0a46.12,46.12,0,0,0,8-1.32,23.56,23.56,0,0,1-2.34,6.94,23.63,23.63,0,0,1-7,2.35A46.12,46.12,0,0,0,33.69,35.78Zm9.16-9.27c2.89.95,4.58,2.15,4.58,3.29s-1.69,2.34-4.58,3.29a27.29,27.29,0,0,0,.2-3.29A27.55,27.55,0,0,0,42.85,26.51Zm4.35,1.1a12.65,12.65,0,0,0-4.49-2.17,25.71,25.71,0,0,0-1.86-6.34A13.87,13.87,0,0,1,47.2,27.61ZM38.41,16.67a24.69,24.69,0,0,0-6.33-1.86,13,13,0,0,0-2.17-4.5A13.84,13.84,0,0,1,38.41,16.67ZM25.52,10.31a13,13,0,0,0-2.17,4.5A24.88,24.88,0,0,0,17,16.67,13.89,13.89,0,0,1,25.52,10.31ZM14.58,19.1a25.29,25.29,0,0,0-1.86,6.34,12.8,12.8,0,0,0-4.5,2.17A13.89,13.89,0,0,1,14.58,19.1ZM8.22,32a13,13,0,0,0,4.5,2.16,25.17,25.17,0,0,0,1.86,6.34A13.9,13.9,0,0,1,8.22,32ZM17,42.93a24.88,24.88,0,0,0,6.34,1.86,13,13,0,0,0,2.17,4.5A13.89,13.89,0,0,1,17,42.93Zm12.9,6.36a13,13,0,0,0,2.17-4.5,24.69,24.69,0,0,0,6.33-1.86,13.84,13.84,0,0,1-8.5,6.36ZM40.85,40.5a25.59,25.59,0,0,0,1.86-6.34A12.83,12.83,0,0,0,47.2,32,13.88,13.88,0,0,1,40.85,40.5Z"></path><path class="cls-4" d="M20.59,10.36A20.78,20.78,0,0,0,8.9,21.14,4.55,4.55,0,0,0,8.5,23a4.6,4.6,0,0,0,1.33,3.23l.43.42a10.11,10.11,0,0,0,7.15,3,.73.73,0,0,0,.72-.73.72.72,0,0,0-.72-.72H15.18a1.87,1.87,0,1,1,0-3.73h1.74a7.82,7.82,0,0,0,5.56-2.3l2.69-2.69a3.12,3.12,0,0,1,2.21-.92,3.11,3.11,0,0,0,2.81-1.76,2,2,0,0,0-1.79-2.86H24.93a1.84,1.84,0,0,1-1.85-1.84,1.84,1.84,0,0,0-2.49-1.73Z"></path><path class="cls-5" d="M47.93,25.34a2.84,2.84,0,0,0-2.78-2.22H40.67a4.8,4.8,0,0,0-4.8,4.8v.58a4.22,4.22,0,0,0,4.22,4.22,2.14,2.14,0,0,1,2.14,2.14v5.6a1.48,1.48,0,0,0,2.71.83,20.59,20.59,0,0,0,3.27-8.57,20.07,20.07,0,0,0,.21-2.92,20.52,20.52,0,0,0-.49-4.46Z"></path><path class="cls-6" d="M37,11.28A20.7,20.7,0,0,1,9.19,39.06,20.71,20.71,0,1,0,37,11.28Z"></path><path class="cls-7" d="M38.16,21.25c-1-1-3.62-.18-8.53,4.4l-2.87-.35-.93-1a1.27,1.27,0,0,0-2.06.4L23,24a1.27,1.27,0,0,0-1.79,0,1.22,1.22,0,0,0-.33.58l-1.11-.14a1,1,0,0,0-.8.32l-1.9,1.9c-.2.2-.2.49,0,.58l5.72,5.59c-1.67,1.94-3.19,3.85-4.36,5.51L15.61,38a.45.45,0,0,0-.34.14l-.89.88c-.17.17-.19.42,0,.52l2.14,2.07c-.36.79-.46,1.35-.22,1.58L23.11,50A20.74,20.74,0,0,0,48.35,31.44Z"></path><circle class="cls-8" cx="22.13" cy="24.9" r="1.27"></circle><circle class="cls-9" cx="22.13" cy="24.9" r="1.06"></circle><path class="cls-10" d="M23.34,24.5A1.17,1.17,0,0,1,23,25a1.26,1.26,0,0,1-1.79,0,1.17,1.17,0,0,1-.31-.49,1.27,1.27,0,1,0,2.41,0Z"></path><circle class="cls-11" cx="22.13" cy="24.9" r="1.27"></circle><path class="cls-12" d="M25.83,26.14a1.27,1.27,0,1,1,0-1.8A1.27,1.27,0,0,1,25.83,26.14Z"></path><circle class="cls-13" cx="24.94" cy="25.24" r="1.06"></circle><path class="cls-14" d="M26.14,24.84a1.27,1.27,0,0,1-2.41,0,1.29,1.29,0,0,0,.31,1.3,1.27,1.27,0,0,0,1.79,0A1.25,1.25,0,0,0,26.14,24.84Z"></path><path class="cls-15" d="M25.83,26.14a1.27,1.27,0,1,1,0-1.8A1.27,1.27,0,0,1,25.83,26.14Z"></path><circle class="cls-16" cx="34.51" cy="37.27" r="1.27"></circle><circle class="cls-17" cx="34.51" cy="37.27" r="1.06"></circle><path class="cls-18" d="M34.91,36.07a1.17,1.17,0,0,0-.49.31,1.26,1.26,0,0,0,0,1.79,1.17,1.17,0,0,0,.49.31,1.27,1.27,0,1,1,0-2.41Z"></path><circle class="cls-19" cx="34.51" cy="37.27" r="1.27"></circle><path class="cls-20" d="M33.27,33.58a1.27,1.27,0,1,0,1.79,0A1.26,1.26,0,0,0,33.27,33.58Z"></path><circle class="cls-21" cx="34.17" cy="34.47" r="1.06"></circle><path class="cls-22" d="M34.57,33.27a1.27,1.27,0,0,0-.5,2.1,1.39,1.39,0,0,0,.5.31,1.29,1.29,0,0,1-1.3-.31,1.27,1.27,0,0,1,1.3-2.1Z"></path><path class="cls-23" d="M33.27,33.58a1.27,1.27,0,1,0,1.79,0A1.26,1.26,0,0,0,33.27,33.58Z"></path><path class="cls-24" d="M14.35,39.49l2.72,1.75,2.72-2.72L15.61,38a.45.45,0,0,0-.34.14l-.89.88C14.21,39.14,14.19,39.39,14.35,39.49Z"></path><path class="cls-25" d="M14.64,38.71l-.26.26c-.17.17-.19.42,0,.52l2.72,1.75,2.1-2.1L15,38.57a.47.47,0,0,0-.35.14Z"></path><path class="cls-26" d="M19.92,45.06l-1.75-2.72,2.72-2.72.57,4.18a.45.45,0,0,1-.14.34l-.88.89c-.18.17-.42.19-.52,0Z"></path><path class="cls-27" d="M20.7,44.76l-.26.27c-.18.17-.42.19-.52,0l-1.75-2.72,2.1-2.1.57,4.18a.45.45,0,0,1-.14.34Z"></path><path class="cls-28" d="M17.1,27.24,25.76,31l5.15-5.16L19.8,24.44a1,1,0,0,0-.8.32l-1.9,1.9C16.9,26.86,16.9,27.15,17.1,27.24Z"></path><path class="cls-29" d="M17.77,26l-.67.67c-.2.2-.2.49,0,.58L25.76,31,29.69,27,18.57,25.67A1,1,0,0,0,17.77,26Z"></path><path class="cls-30" d="M22.72,26.18l-4.15-.51a1,1,0,0,0-.8.32l-.67.67c-.2.2-.2.49,0,.58l3.19,1.37Z"></path><path class="cls-31" d="M17.1,27.24,25.76,31l1.77-1.77-9.6-3.37-.83.83c-.2.2-.2.49,0,.58Z"></path><path class="cls-32" d="M32.17,42.31l-3.73-8.66L33.6,28.5,35,39.61a1,1,0,0,1-.32.8l-1.9,1.9c-.2.2-.49.2-.58,0Z"></path><path class="cls-33" d="M33.42,41.63l-.67.68c-.2.2-.49.2-.58,0l-3.73-8.66,3.93-3.93,1.37,11.12A1,1,0,0,1,33.42,41.63Z"></path><path class="cls-34" d="M33.23,36.69l.51,4.15a1,1,0,0,1-.32.79l-.67.68c-.2.2-.49.2-.58,0L30.8,39.12Z"></path><path class="cls-35" d="M32.17,42.31l-3.73-8.66,1.77-1.77,3.37,9.6-.83.83c-.2.2-.49.2-.58,0Z"></path><path class="cls-36" d="M32.08,31.5c-6,6-14.66,12.8-15.81,11.64s5.59-9.77,11.63-15.81S37,20.09,38.16,21.25s0,4.21-6.08,10.25Z"></path><path class="cls-37" d="M31.63,31.33C25.88,37.08,17.78,43.59,16.8,42.61s5.53-9.08,11.28-14.83,8.57-7,9.55-6-.24,3.8-6,9.55Z"></path><path class="cls-38" d="M32.08,31.5c6.05-6,7.24-9.1,6.08-10.25L16.27,43.14C17.42,44.3,26,37.55,32.08,31.5Z"></path><path class="cls-39" d="M33,23.49c-.37.32-.76.67-1.16,1-.11.1-.1.25,0,.27a3.26,3.26,0,0,1,2.75,2.74c0,.12.17.13.27,0,.37-.4.72-.79,1-1.16a.94.94,0,0,0,.24-.83,3.29,3.29,0,0,0-2.32-2.32A.93.93,0,0,0,33,23.49Z"></path><path class="cls-40" d="M35.92,26.4l-.91,1-.13.14c-.1.11-.25.1-.27,0a3.41,3.41,0,0,0-.92-1.83l-.09-.08a3.26,3.26,0,0,0-1.22-.71c.41-.38.79-.72,1.16-1a1,1,0,0,1,.83-.25,3.85,3.85,0,0,1,.86.37l.08.09a3.17,3.17,0,0,1,.85,1.47.94.94,0,0,1-.24.83Z"></path><path class="cls-41" d="M34.61,27.54c0,.12.17.13.27,0,.37-.4.72-.79,1-1.16a.94.94,0,0,0,.24-.83,3.17,3.17,0,0,0-.85-1.47l-1.62,1.62A3.41,3.41,0,0,1,34.61,27.54Z"></path><path class="cls-42" d="M18.3,41.29l-.18-.18c-.16-.15-.1-.44.11-.63l3.14-2.82a.27.27,0,1,1,.38.38l-2.82,3.14c-.19.21-.48.27-.63.11Z"></path><path class="cls-43" d="M7.25,47.72a4.28,4.28,0,0,1-.52,0,.39.39,0,0,1-.33-.48l.18-.63A.38.38,0,0,1,7,46.3a4,4,0,0,0,1.28-.11.38.38,0,0,1,.45.28l.17.61a.39.39,0,0,1-.29.48,6.16,6.16,0,0,1-1.34.16Zm3.09-1.13L10.1,46a.38.38,0,0,1,.2-.5c.44-.19.89-.41,1.37-.65a.38.38,0,0,1,.52.16l.3.56a.39.39,0,0,1-.16.53c-.52.26-1,.5-1.48.7a.38.38,0,0,1-.51-.21ZM5.12,46.1a.4.4,0,0,1-.53-.27,3.83,3.83,0,0,1-.1-.86,6,6,0,0,1,.11-1.06.39.39,0,0,1,.47-.31l.62.15a.38.38,0,0,1,.29.44A4.69,4.69,0,0,0,5.9,45a2.87,2.87,0,0,0,0,.44.39.39,0,0,1-.23.43Zm8.69-1.27-.32-.55a.39.39,0,0,1,.13-.53c.42-.25.86-.53,1.31-.82a.38.38,0,0,1,.53.11l.35.53a.37.37,0,0,1-.11.53c-.46.31-.91.59-1.36.86A.39.39,0,0,1,13.81,44.83Zm3.79-2a.38.38,0,0,1-.54-.09M6.13,42.36l-.6-.23a.39.39,0,0,1-.22-.51c.2-.47.43-1,.69-1.49A.39.39,0,0,1,6.52,40l.57.3a.37.37,0,0,1,.16.51q-.36.72-.63,1.38a.39.39,0,0,1-.49.21ZM7.81,39l-.55-.32a.38.38,0,0,1-.14-.53v0A.39.39,0,0,1,7.66,38l.55.34a.38.38,0,0,1,.13.52h0a.37.37,0,0,1-.52.13Zm31-18-.53-.37A.38.38,0,0,1,38.2,20c.3-.44.59-.87.86-1.29a.39.39,0,0,1,.53-.12l.54.34a.4.4,0,0,1,.12.54c-.28.43-.58.88-.89,1.33A.39.39,0,0,1,38.82,20.91Zm2.1-3.26-.55-.32a.39.39,0,0,1-.14-.53c.26-.46.51-.91.73-1.35a.39.39,0,0,1,.51-.17l.57.28a.38.38,0,0,1,.18.52c-.23.46-.49.93-.77,1.43a.39.39,0,0,1-.53.14Zm1.73-3.49-.59-.23a.38.38,0,0,1-.22-.49,8.57,8.57,0,0,0,.38-1.38.39.39,0,0,1,.43-.31l.63.07a.39.39,0,0,1,.34.45,11.1,11.1,0,0,1-.46,1.66A.4.4,0,0,1,42.65,14.16ZM37.4,10.53,37.14,10a.38.38,0,0,1,.2-.51,15.38,15.38,0,0,1,1.56-.58.38.38,0,0,1,.49.27l.16.62a.37.37,0,0,1-.26.46,14.42,14.42,0,0,0-1.38.52A.39.39,0,0,1,37.4,10.53Zm5.11-.09a.39.39,0,0,1-.44-.12L42,10.23a1.4,1.4,0,0,0-1-.32h0v-1a.38.38,0,0,1,.43-.38,2.55,2.55,0,0,1,1.61.7,2.15,2.15,0,0,1,.32.41.39.39,0,0,1-.19.56Z"></path><circle class="cls-44" cx="18.75" cy="14.31" r="1.2"></circle><circle class="cls-45" cx="12.34" cy="23.22" r="1.2"></circle><circle class="cls-46" cx="45.15" cy="26.3" r="1.2"></circle></g><circle class="cls-47" cx="46.51" cy="42.5" r="9"></circle><path class="cls-48" d="M45.31,45.5a.56.56,0,0,1-.42-.18l-2.4-2.4a.59.59,0,0,1,0-.84.6.6,0,0,1,.84,0l2,2,4.37-4.37a.6.6,0,0,1,.85,0,.61.61,0,0,1,0,.85l-4.8,4.79a.56.56,0,0,1-.42.18Z"></path></g></g></g></g></svg>