<svg xmlns="http://www.w3.org/2000/svg" viewBox="0 0 60 60"><defs><style>      .cls-1, .cls-14 {        fill: #fff;      }      .cls-1 {        opacity: 0;      }      .cls-2 {        fill: #f0cd00;      }      .cls-3 {        fill: #ffde50;      }      .cls-4 {        fill: #ffea94;      }      .cls-5 {        fill: #faa300;      }      .cls-6 {        fill: #ffbd00;      }      .cls-7 {        fill: #f68e00;      }      .cls-8 {        fill: #f8c460;      }      .cls-9 {        fill: #faaf42;      }      .cls-10 {        fill: #a7d0e1;      }      .cls-11 {        fill: #80bbce;      }      .cls-12 {        fill: #7a838b;      }      .cls-13 {        fill: #5d6972;      }    </style></defs><g id="Layer_2" data-name="Layer 2"><g id="Layer_1-2" data-name="Layer 1"><g><rect class="cls-1" width="60" height="60"></rect><g><g><g><path class="cls-2" d="M54.71,22.76a10.36,10.36,0,0,1-18,7A11,11,0,0,1,35.42,28a10.36,10.36,0,0,1,8.93-15.59,10.2,10.2,0,0,1,5.24,1.42,9.89,9.89,0,0,1,1.77,1.31A10.32,10.32,0,0,1,54.71,22.76Z"></path><path class="cls-3" d="M54.71,22.76a10.36,10.36,0,0,1-10,10.35,10.36,10.36,0,0,1,0-20.7A10.36,10.36,0,0,1,54.71,22.76Z"></path><path class="cls-4" d="M51.36,15.14,36.73,29.77A11,11,0,0,1,35.42,28L49.59,13.83A9.89,9.89,0,0,1,51.36,15.14Z"></path><path class="cls-4" d="M54,19,40.57,32.4A10,10,0,0,1,38,30.89L52.49,16.35A10.3,10.3,0,0,1,54,19Z"></path><path class="cls-5" d="M52.4,22.76a8.06,8.06,0,0,1-12.27,6.85,8.63,8.63,0,0,1-1.47-1.16,8.12,8.12,0,0,1-.88-1.06,7.36,7.36,0,0,1-.91-1.68,8,8,0,0,1-.56-2.85v-.1a8,8,0,0,1,8-8h.1a8,8,0,0,1,2.86.55,8.5,8.5,0,0,1,1.68.91,9,9,0,0,1,1,.89,8.25,8.25,0,0,1,1.16,1.47A8,8,0,0,1,52.4,22.76Z"></path><path class="cls-6" d="M50,17.07,38.66,28.45a8.12,8.12,0,0,1-.88-1.06,7.36,7.36,0,0,1-.91-1.68,8,8,0,0,1-.56-2.85v-.1a8,8,0,0,1,8-8h.1a8,8,0,0,1,2.86.55,8.5,8.5,0,0,1,1.68.91A9,9,0,0,1,50,17.07Z"></path><path class="cls-7" d="M52.4,22.76a8,8,0,0,1-8,8H43.9a8,8,0,0,0,0-16.06l.45,0A8.05,8.05,0,0,1,52.4,22.76Z"></path></g><path class="cls-7" d="M44.09,22.14V18.88a1.64,1.64,0,0,1,.85,1.44.79.79,0,1,0,1.58,0,3.24,3.24,0,0,0-2.43-3.13v-.64a.8.8,0,0,0-1.59,0v.64a3.25,3.25,0,0,0-2.43,3.13,2.87,2.87,0,0,0,.81,2.15,3.76,3.76,0,0,0,1.62.9v3.27a1.67,1.67,0,0,1-.85-1.44.79.79,0,1,0-1.58,0,3.23,3.23,0,0,0,2.43,3.12V29a.8.8,0,0,0,1.59,0v-.65a3.22,3.22,0,0,0,2.43-3.12A2.9,2.9,0,0,0,45.7,23,3.67,3.67,0,0,0,44.09,22.14ZM42,21.35a1.31,1.31,0,0,1-.35-1,1.66,1.66,0,0,1,.85-1.44v2.81A1.82,1.82,0,0,1,42,21.35Zm2.09,5.29V23.82a1.33,1.33,0,0,1,.85,1.38A1.65,1.65,0,0,1,44.09,26.64Z"></path><path class="cls-4" d="M45.14,22.14V18.88A1.65,1.65,0,0,1,46,20.32a.79.79,0,1,0,1.58,0,3.25,3.25,0,0,0-2.44-3.13v-.64a.79.79,0,1,0-1.58,0v.64a3.24,3.24,0,0,0-2.43,3.13,2.9,2.9,0,0,0,.8,2.15,3.86,3.86,0,0,0,1.63.9v3.27a1.65,1.65,0,0,1-.85-1.44.79.79,0,1,0-1.58,0,3.22,3.22,0,0,0,2.43,3.12V29a.79.79,0,0,0,1.58,0v-.65a3.23,3.23,0,0,0,2.44-3.12A2.94,2.94,0,0,0,46.76,23,3.71,3.71,0,0,0,45.14,22.14Zm-2.09-.79a1.31,1.31,0,0,1-.34-1,1.64,1.64,0,0,1,.85-1.44v2.81A2.05,2.05,0,0,1,43.05,21.35Zm2.09,5.29V23.82A1.34,1.34,0,0,1,46,25.2,1.66,1.66,0,0,1,45.14,26.64Z"></path></g><g id="Layer_31" data-name="Layer 31"><path class="cls-8" d="M11.64,29.78l1.16-2a16.58,16.58,0,0,1,14.39-8.35H29.5a16.56,16.56,0,0,1,14.39,8.35L45,29.64a3.31,3.31,0,0,0,2.33,1.63l2.85.47a6.63,6.63,0,0,1,5.54,6.54V41a3.31,3.31,0,0,1-3.31,3.31H7.62A3.31,3.31,0,0,1,4.31,41v-5.7A3.31,3.31,0,0,1,6.82,32l2.74-.69A3.3,3.3,0,0,0,11.64,29.78Z"></path><path class="cls-9" d="M54.86,41.78h-39a9,9,0,0,1-9-9,3.86,3.86,0,0,1,.1-.75l-.07,0a3.31,3.31,0,0,0-2.51,3.22V41a3.31,3.31,0,0,0,3.31,3.31H52.38A3.31,3.31,0,0,0,55.6,41.7,3.65,3.65,0,0,1,54.86,41.78Z"></path><path class="cls-10" d="M4.31,35.25v2.39H6.79l.83-3.31H4.44A3.2,3.2,0,0,0,4.31,35.25Z"></path><path class="cls-11" d="M7.28,35.68a8.89,8.89,0,0,1-.34-1.35H4.45l-.06.23c0,.06,0,.12,0,.18a3,3,0,0,0,0,.52v2.38H6.79Z"></path><path class="cls-10" d="M50.72,34.33A3.31,3.31,0,0,0,54,37.64h1.63a6.45,6.45,0,0,0-1.29-3.31Z"></path><path class="cls-9" d="M47.41,43.44a5,5,0,0,0-9.95-.06,5.26,5.26,0,0,0,.07.89h9.8A5.69,5.69,0,0,0,47.41,43.44Z"></path><circle class="cls-12" cx="44.09" cy="42.61" r="4.97"></circle><circle class="cls-10" cx="44.09" cy="42.61" r="1.66"></circle><circle class="cls-12" cx="15.91" cy="42.61" r="4.97"></circle><path class="cls-13" d="M18.4,45.1a5,5,0,0,1-5-5,4.9,4.9,0,0,1,.45-2.06,5,5,0,1,0,6.57,6.58A5,5,0,0,1,18.4,45.1Z"></path><path class="cls-13" d="M46.58,45.1a5,5,0,0,1-5-5,4.9,4.9,0,0,1,.45-2.06,5,5,0,1,0,6.57,6.58A5,5,0,0,1,46.58,45.1Z"></path><circle class="cls-10" cx="15.91" cy="42.61" r="1.66"></circle><path class="cls-10" d="M26.25,21.89h.43v8.29H15.08l.4-1A11.6,11.6,0,0,1,26.25,21.89Z"></path><path class="cls-11" d="M18.4,27.69l.39-1a11.54,11.54,0,0,1,2.27-3.57,11.59,11.59,0,0,0-5.58,6.06l-.4,1h11.6V27.69Z"></path><path class="cls-10" d="M41.6,30.18H30V21.89h.43a11.61,11.61,0,0,1,10.78,7.3Z"></path><path class="cls-14" d="M35.8,25.94a.76.76,0,0,1-.44-.13c-.25-.15-.5-.3-.76-.43a.84.84,0,0,1-.37-1.12.83.83,0,0,1,1.12-.36,10,10,0,0,1,.9.52.82.82,0,0,1,.25,1.14.81.81,0,0,1-.7.38Z"></path><path class="cls-11" d="M40.48,27.69H35.8a3.31,3.31,0,0,1-3.31-3.31v-2.3a12.94,12.94,0,0,0-2.06-.19H30v8.29H41.6l-.39-1A13,13,0,0,0,40.48,27.69Z"></path><g><path class="cls-12" d="M31.66,31.84H30a.83.83,0,0,0,0,1.66h1.66a.83.83,0,1,0,0-1.66Z"></path><path class="cls-12" d="M15.91,31.84H14.25a.83.83,0,0,0,0,1.66h1.66a.83.83,0,1,0,0-1.66Z"></path></g></g></g></g></g></g></svg>