<svg xmlns="http://www.w3.org/2000/svg" viewBox="0 0 201.73 68"><defs><style>      .cls-1 {        fill: #fff;        opacity: 0;      }      .cls-2 {        fill: #350c50;      }      .cls-3 {        fill: #fefefe;      }      .cls-4 {        fill: #a335ef;      }      .cls-5 {        fill: #a436ef;      }      .cls-6 {        fill: #a437ef;      }      .cls-7 {        fill: #080808;      }      .cls-8 {        fill: #050505;      }      .cls-9 {        fill: #070707;      }    </style></defs><g id="Layer_2" data-name="Layer 2"><g id="Layer_1-2" data-name="Layer 1"><g><rect class="cls-1" width="201.73" height="68"></rect><g><g><rect class="cls-2" x="3.56" y="0.76" width="66.49" height="66.49" rx="2.78"></rect><g><path class="cls-3" d="M38.2,53.74a7.82,7.82,0,0,0,2.26-1c2.06-1.46,2.68-3.51,2.68-5.88,0-5.43,0-10.86,0-16.3,0-.65.18-.77.79-.76,1.88,0,3.76,0,5.64,0,.37,0,.53.07.53.49,0,6.15.06,12.3-.06,18.44A11.55,11.55,0,0,1,39.75,60.26a16.28,16.28,0,0,1-9.4-1A10.94,10.94,0,0,1,23.7,50.3a18.76,18.76,0,0,1-.16-2.59c0-5.74,0-11.48,0-17.21,0-.53.12-.7.67-.69,1.88,0,3.76,0,5.64,0,.51,0,.65.12.65.64q0,8.39,0,16.76a6.55,6.55,0,0,0,1.66,4.71,5.28,5.28,0,0,0,2.42,1.61.37.37,0,0,0,.28,0,2.1,2.1,0,0,0,1,.25,1.14,1.14,0,0,1,.48.06.89.89,0,0,0,1,0,.85.85,0,0,1,.47-.07C37.91,53.73,38.06,53.89,38.2,53.74Z"></path><path class="cls-4" d="M50.07,19.18v3.5c0,.15,0,.34-.11.41s-.29-.08-.42-.15c-1.39-.83-2.81-1.61-4.16-2.49S42.44,18.76,41,17.84s-2.65-1.61-4-2.42c-.32-.2-.53,0-.75.18l-12,7.15c-.19.12-.39.38-.62.27s-.11-.43-.11-.66c0-2.16,0-4.32,0-6.49a.92.92,0,0,1,.53-.92q6.13-3.63,12.25-7.29a.8.8,0,0,1,1,0Q43.41,11.32,49.55,15a.9.9,0,0,1,.53.92C50.05,17,50.07,18.07,50.07,19.18Z"></path></g></g><g><path class="cls-4" d="M128,45.52v.13c0,1.73-.11,1.82-1.89,1.58-.21,0-.32-.07-.32-.3V44c0-.22.07-.33.29-.32h.13C128,43.61,128,43.61,128,45.52Z"></path><g><path class="cls-4" d="M105,61.54c-1.6,2.46-3.84,3.07-6.45,2.62A4.86,4.86,0,0,1,94.48,60a14,14,0,0,1-.2-2.58c0-3.16,0-6.32,0-9.47,0-.52.14-.66.66-.66,1.55,0,1.55,0,1.55,1.55,0,2.53,0,5.06,0,7.59a13.08,13.08,0,0,0,.34,3.41,3.11,3.11,0,0,0,3.05,2.42c3.14.21,5.11-1.77,5.14-5.11,0-3.08,0-6.15,0-9.22,0-.53.16-.64.65-.64,1.57,0,1.57,0,1.57,1.6,0,4.76,0,9.52,0,14.28,0,.56-.09.79-.72.77-1.5-.06-1.5,0-1.5-1.54Z"></path><path class="cls-4" d="M131.91,49.57a6,6,0,0,1,6.82-2.47,4.83,4.83,0,0,1,3.76,4.21,27,27,0,0,1,.19,3.23c0,2.92,0,5.84,0,8.76,0,.45-.13.58-.58.58-1.63,0-1.63,0-1.63-1.6,0-3.07.06-6.14-.1-9.21a8.09,8.09,0,0,0-.18-1.47A3.24,3.24,0,0,0,137,48.92c-3.56-.2-5,2.52-5.05,5,0,3.1,0,6.19,0,9.28,0,.56-.11.74-.71.72-1.51,0-1.51,0-1.51-1.51q0-7.24,0-14.47c0-.49.11-.67.64-.66,1.58,0,1.58,0,1.58,1.58Z"></path><path class="cls-4" d="M167.57,64.3a8,8,0,0,1-6.36-3c-.31-.38-.42-.64.11-.93s.76-.71,1.18-.76.63.61.94.94A6.55,6.55,0,0,0,170.13,62a2.63,2.63,0,0,0,1.75-3.25,2.22,2.22,0,0,0-1.48-1.51,30.9,30.9,0,0,0-4.24-1.16,16,16,0,0,1-2-.66,3.72,3.72,0,0,1-2.52-3.18,4.3,4.3,0,0,1,1.78-4.2c2.78-2,7.74-1.32,9.89,1.34.17.22.21.34,0,.52a6.39,6.39,0,0,0-.84.72c-.39.4-.64.4-1-.06a5.25,5.25,0,0,0-5.73-1.51,2.32,2.32,0,0,0-1.82,2.26,2.25,2.25,0,0,0,1.68,2.34,39.68,39.68,0,0,0,4.32,1.12,12.85,12.85,0,0,1,1.78.6,3.94,3.94,0,0,1,2.6,3.35,4.42,4.42,0,0,1-1.87,4.3A8,8,0,0,1,167.57,64.3Z"></path><path class="cls-4" d="M181.72,64.3a8,8,0,0,1-6.32-3.07c-.25-.31-.31-.52.09-.75s.84-.78,1.29-.83.66.65,1,1a6.54,6.54,0,0,0,6.7,1.33,2.64,2.64,0,0,0,1.69-3.19,2.27,2.27,0,0,0-1.47-1.54,25.57,25.57,0,0,0-3.74-1,17.72,17.72,0,0,1-2.48-.75,3.78,3.78,0,0,1-2.59-3.26,4.29,4.29,0,0,1,2-4.33,8,8,0,0,1,9.53,1.39c.28.32.29.51-.06.76s-.73.82-1.16.91-.7-.59-1.08-.88a5.42,5.42,0,0,0-5.43-.94,2.39,2.39,0,0,0-.13,4.47,34.65,34.65,0,0,0,4.5,1.19,14.1,14.1,0,0,1,2,.71c3.24,1.49,3,5.77.6,7.47A8.22,8.22,0,0,1,181.72,64.3Z"></path><path class="cls-4" d="M115.46,64.3a8,8,0,0,1-6.24-3c-.31-.38-.28-.6.15-.84s.8-.74,1.23-.78.61.64,1,1A6.33,6.33,0,0,0,118.18,62a2.58,2.58,0,0,0,1.8-3.11,2.23,2.23,0,0,0-1.49-1.65,32.39,32.39,0,0,0-4.24-1.16,14.1,14.1,0,0,1-1.91-.6,3.74,3.74,0,0,1-2.63-3.09A4.37,4.37,0,0,1,111.49,48c2.73-2,7.82-1.25,9.88,1.41.15.2.18.32,0,.46a1.62,1.62,0,0,0-.19.18c-.38.31-.74.82-1.16.89s-.65-.59-1-.88a5.44,5.44,0,0,0-5.37-1,2.39,2.39,0,0,0-.07,4.56,43.31,43.31,0,0,0,4.38,1.14A7.68,7.68,0,0,1,120.74,56a4.46,4.46,0,0,1-.21,6.93A8.23,8.23,0,0,1,115.46,64.3Z"></path><path class="cls-4" d="M126.48,55.62c0,2.55,0,5.11,0,7.66,0,.5-.14.61-.62.6-1.6,0-1.6,0-1.6-1.62,0-4.78,0-9.56,0-14.34,0-.55.15-.69.68-.68,1.54,0,1.54,0,1.54,1.57Z"></path><path class="cls-5" d="M197.36,48.78l-1.48,2.27-1.51-2.29c0,.91,0,1.64,0,2.38,0,.29,0,.55-.41.54s-.37-.32-.37-.58q0-1.65,0-3.3c0-.19-.13-.47.2-.53a.58.58,0,0,1,.71.29c.42.7.88,1.38,1.37,2.14.46-.71.89-1.37,1.3-2,.18-.29.37-.48.72-.4s.22.42.23.63q0,1.56,0,3.12c0,.27.19.68-.4.67s-.35-.39-.36-.64C197.35,50.35,197.36,49.66,197.36,48.78Z"></path><path class="cls-6" d="M190.87,49.87c0-.43,0-.87,0-1.3s-.14-.6-.58-.56c-.26,0-.63.15-.61-.38s.38-.36.64-.37c.73,0,1.47,0,2.2,0,.32,0,.41.11.41.41s-.14.41-.39.36c-.83-.18-.91.28-.87.93s0,1.56,0,2.33c0,.33-.1.4-.4.4s-.45,0-.43-.39S190.87,50.34,190.87,49.87Z"></path><path class="cls-4" d="M91.5,51.34a6.29,6.29,0,0,0-6.58-4.44,5.75,5.75,0,0,0-5,3V41.7c0-1.47,0-1.44-1.48-1.48-.59,0-.75.14-.75.74q0,10.6,0,21.22c0,1.77,0,1.76,1.77,1.7.35,0,.45-.11.44-.45,0-.64,0-1.29,0-2.07.29.39.48.68.71.94a6.46,6.46,0,0,0,10.2-1A11.46,11.46,0,0,0,91.5,51.34Zm-2.6,8.83c-1.58,2.92-6.53,3-8.12-.16a10,10,0,0,1-.92-5.22,9.07,9.07,0,0,1,.71-3.2,4.37,4.37,0,0,1,4.1-2.78A4.45,4.45,0,0,1,89,51.29a9.42,9.42,0,0,1,.91,4.43A9.62,9.62,0,0,1,88.9,60.17Z"></path><path class="cls-4" d="M159,59.21c-.83-.54-.83-.54-1.35.27-.09.15-.19.29-.29.43A5.77,5.77,0,0,1,149,61a6,6,0,0,1-1.81-4.3c0-.88,0-.88.82-.88h5.39c1.91,0,3.82,0,5.72,0,.47,0,.62-.13.57-.58-.07-.62-.06-1.26-.16-1.87a8.16,8.16,0,0,0-2-4.47,7.28,7.28,0,0,0-11.22,1.34A10.54,10.54,0,0,0,145,57.51a8.41,8.41,0,0,0,2.12,4.7c2.65,2.87,9.33,3.22,12.22-1.6C159.87,59.76,159.88,59.76,159,59.21Zm-8.93-10a4.78,4.78,0,0,1,5,.34,5.25,5.25,0,0,1,2.2,4c.05.4-.15.41-.45.41h-9.09c-.32,0-.54,0-.47-.45A5.26,5.26,0,0,1,150.1,49.26Z"></path></g><g><path d="M175.72,16c-.8,1.88-1.55,3.66-2.3,5.44l-6.09,14.3a15.4,15.4,0,0,1-1,1.88,5.36,5.36,0,0,1-5,2.73c-1.44,0-1.45,0-1.45-1.43,0-.57,0-1.13,0-1.69,0-.33.06-.5.42-.44,2,.32,3-.81,3.74-2.52a3.36,3.36,0,0,0,0-2.89c-2.1-5-4.12-10.07-6.17-15.11L157.8,16h3.82c.34,0,.33.3.41.5l4.49,11.19c0,.12.06.25.21.32q2.37-5.74,4.72-11.49a.69.69,0,0,1,.79-.53C173.37,16.05,174.49,16,175.72,16Z"></path><path d="M92.93,21.69c0,1.47,0,2.94,0,4.41,0,4.53-3.23,6.62-6.65,6.91a9.34,9.34,0,0,1-4.58-.63,6.26,6.26,0,0,1-4-6.05c-.06-3.27,0-6.53,0-9.8,0-.39.08-.53.49-.51q1.53,0,3.06,0c.43,0,.48.15.48.52,0,3.11,0,6.23,0,9.34a3.48,3.48,0,0,0,2.38,3.36,3.72,3.72,0,0,0,4.09-1.18A3.83,3.83,0,0,0,89,25.57c0-3,0-6,0-8.95,0-.49.11-.63.61-.6a26,26,0,0,0,2.79,0c.52,0,.6.15.59.62C92.91,18.31,92.93,20,92.93,21.69Z"></path><path class="cls-4" d="M77.71,12.3c0-1.37,0-2.72,0-4.07,0-.28.18-.37.37-.48L84.92,3.8a.69.69,0,0,1,.82,0c2.26,1.32,4.53,2.62,6.8,3.92a.65.65,0,0,1,.4.66c0,1.29,0,2.59,0,3.89-.24.08-.37-.1-.53-.19-2.17-1.24-4.35-2.48-6.51-3.76a.93.93,0,0,0-1.1,0c-2.14,1.27-4.3,2.49-6.45,3.73A1.18,1.18,0,0,1,77.71,12.3Z"></path><path d="M157.31,21c-.46-3.79-3.05-5.73-7-5.2A6.8,6.8,0,0,0,146,18.14a4.77,4.77,0,0,0-2.27-2,5.89,5.89,0,0,0-6.49,1.44c-.22,0-.22,0-.23-.13,0-.47,0-.94-.05-1.41-1.12,0-2.25,0-3.38,0-.37,0-.47.1-.47.47q0,7.86,0,15.71c0,.35.1.44.44.43,1,0,2,0,2.92,0,.5,0,.61-.12.61-.61,0-2.94,0-5.88,0-8.83a4.28,4.28,0,0,1,.94-2.89,2.94,2.94,0,0,1,2.85-1A2.65,2.65,0,0,1,143,21.21a5.27,5.27,0,0,1,.25,1.72c0,3,0,6,0,9,0,.6.18.7.72.68a25.05,25.05,0,0,1,2.6,0c.49,0,.65-.1.64-.62,0-3,0-5.93,0-8.9A4.23,4.23,0,0,1,148,20.5a3,3,0,0,1,3.09-1.21,2.7,2.7,0,0,1,2.21,2.18,6.88,6.88,0,0,1,.19,1.86c0,2.92,0,5.84,0,8.77,0,.41.09.55.53.54,1,0,2,0,2.92,0,.45,0,.53-.14.53-.55,0-1.55,0-3.11,0-4.67C157.37,25.28,157.56,23.13,157.31,21Z"></path><path d="M112.43,10.33c0-.49-.09-.68-.62-.65a24.86,24.86,0,0,1-2.73,0c-.5,0-.61.12-.61.61,0,2.37,0,4.74,0,7.22a8.75,8.75,0,0,0-8.67-1.15C96.25,18,94.38,21.62,95,25.83a8.32,8.32,0,0,0,13.51,5.29,7.9,7.9,0,0,1,0,1c-.06.44.12.54.53.53,1,0,2,0,3,0,.35,0,.44-.09.43-.43,0-.91,0-1.81,0-2.72Q112.42,19.9,112.43,10.33Zm-8.75,19a4.83,4.83,0,0,1-4.91-5.06,4.9,4.9,0,0,1,4.94-5.06,5,5,0,0,1,5.07,5.06A5,5,0,0,1,103.68,29.38Z"></path><path class="cls-7" d="M161.71,37.13a1.16,1.16,0,0,1-.18,0c-1.37.06-1.37.06-1.37,1.41s0,1.45,1.46,1.45a1,1,0,0,1,.61.13h-1.8c-.32,0-.41-.15-.41-.44,0-.75,0-1.51,0-2.26,0-.25.06-.42.35-.42h1.33Z"></path><path class="cls-8" d="M81.34,26.2V24.65c0-2.53,0-5.06,0-7.59,0-.55-.17-.71-.7-.68a15.86,15.86,0,0,1-2,0c-.49,0-.63.14-.62.63,0,3.15,0,6.31,0,9.47a1.35,1.35,0,0,1,0,.69c-.12-.14-.07-.3-.07-.44,0-3.27,0-6.53,0-9.79,0-.55.16-.72.69-.69.78,0,1.56,0,2.34,0,.3,0,.49.06.49.42l0,9.4S81.42,26.11,81.34,26.2Z"></path><path class="cls-9" d="M89.18,26.32c0-.16,0-.26,0-.36,0-3.05,0-6.1,0-9.15,0-.42.14-.57.56-.55.87,0,1.73,0,2.6,0,.3,0,.5,0,.5.41,0,3.18,0,6.36,0,9.53,0,0,0,0,0,.06-.13-.2-.06-.42-.06-.63,0-2.85,0-5.7,0-8.56,0-.53-.15-.72-.7-.69a15,15,0,0,1-2,0c-.53,0-.7.13-.7.68,0,2.86,0,5.71,0,8.56A1.2,1.2,0,0,1,89.18,26.32Z"></path><path d="M127.76,17a8.92,8.92,0,0,0-12.45,3,9.7,9.7,0,0,0-.9,5.73,7.73,7.73,0,0,0,3,5.53,9.84,9.84,0,0,0,13-1.47c-.94-.54-1.81-1-2.68-1.56-.23-.14-.37-.08-.56.08a6.17,6.17,0,0,1-4.53,1.35A4.51,4.51,0,0,1,118.33,26c-.09-.4,0-.5.39-.48s.87,0,1.3,0h10.6c.2,0,.51.18.56-.29A8.45,8.45,0,0,0,127.76,17Zm-9.29,5a4,4,0,0,1,1.88-2.3,4.9,4.9,0,0,1,5.67.42,3.73,3.73,0,0,1,.79.94c.68,1.18.55,1.41-.77,1.41h-3.25c-1.32,0-2.64,0-4,0C118.42,22.43,118.35,22.33,118.47,22Z"></path></g></g></g></g></g></g></svg>