<svg xmlns="http://www.w3.org/2000/svg" viewBox="0 0 267 90"><defs><style>      .cls-1 {        fill: #fff;        opacity: 0;      }      .cls-2 {        fill: #350c50;      }      .cls-3 {        fill: #fefefe;      }      .cls-4 {        fill: #a335ef;      }      .cls-5 {        fill: #a436ef;      }      .cls-6 {        fill: #a437ef;      }      .cls-7 {        fill: #080808;      }      .cls-8 {        fill: #050505;      }      .cls-9 {        fill: #070707;      }    </style></defs><g id="Layer_2" data-name="Layer 2"><g id="Layer_1-2" data-name="Layer 1"><g><rect class="cls-1" width="267" height="90"></rect><g><g><rect class="cls-2" x="4.72" y="1" width="88" height="88" rx="2.78"></rect><g><path class="cls-3" d="M50.56,71.13a10.47,10.47,0,0,0,3-1.32c2.73-1.93,3.55-4.64,3.55-7.77,0-7.19,0-14.38,0-21.58,0-.86.24-1,1.05-1,2.48.06,5,0,7.46,0,.49,0,.7.09.7.66,0,8.13.09,16.27-.08,24.41s-5.6,14-13.6,15.22a21.54,21.54,0,0,1-12.44-1.37,14.48,14.48,0,0,1-8.8-11.81,23.15,23.15,0,0,1-.21-3.43c0-7.59,0-15.18,0-22.78,0-.7.17-.92.89-.9q3.73.06,7.47,0c.66,0,.86.15.85.84q0,11.1,0,22.18a8.7,8.7,0,0,0,2.2,6.24,7,7,0,0,0,3.21,2.13.48.48,0,0,0,.36,0,2.91,2.91,0,0,0,1.29.33,1.38,1.38,0,0,1,.64.08,1.21,1.21,0,0,0,1.33,0,1,1,0,0,1,.62-.1C50.18,71.11,50.37,71.32,50.56,71.13Z"></path><path class="cls-4" d="M66.27,25.38V30c0,.19.07.45-.15.55s-.38-.11-.55-.21c-1.84-1.09-3.73-2.12-5.51-3.3s-3.88-2.23-5.76-3.45c-1.72-1.12-3.51-2.13-5.26-3.2-.43-.26-.7.05-1,.23l-15.9,9.47c-.26.16-.53.51-.82.35s-.14-.57-.15-.86c0-2.86,0-5.73,0-8.59a1.24,1.24,0,0,1,.7-1.22Q40,15,48.06,10.13a1.11,1.11,0,0,1,1.31,0Q57.46,15,65.58,19.79A1.21,1.21,0,0,1,66.29,21C66.24,22.46,66.27,23.92,66.27,25.38Z"></path></g></g><g><path class="cls-4" d="M169.34,60.24v.17c0,2.3-.14,2.42-2.5,2.1-.27,0-.42-.09-.42-.39V58.26c0-.28.09-.44.39-.42H167C169.34,57.72,169.34,57.72,169.34,60.24Z"></path><g><path class="cls-4" d="M139,81.46c-2.12,3.25-5.09,4.05-8.54,3.45A6.43,6.43,0,0,1,125,79.35a20.61,20.61,0,0,1-.26-3.41c0-4.19,0-8.37,0-12.55,0-.68.19-.87.87-.86,2.06,0,2.06,0,2.06,2,0,3.35,0,6.7,0,10.05a17.15,17.15,0,0,0,.45,4.51,4.12,4.12,0,0,0,4,3.21c4.16.27,6.77-2.35,6.81-6.77q0-6.1,0-12.2c0-.7.21-.85.86-.84,2.08,0,2.08,0,2.08,2.11,0,6.3,0,12.6,0,18.91,0,.73-.12,1-1,1-2-.07-2,0-2-2Z"></path><path class="cls-4" d="M174.59,65.6c2.3-3.23,5.39-4.09,9-3.26a6.38,6.38,0,0,1,5,5.57,34.24,34.24,0,0,1,.25,4.28c.07,3.86,0,7.73,0,11.59,0,.6-.17.77-.77.77-2.16,0-2.15,0-2.16-2.12,0-4.06.09-8.12-.12-12.18a12.52,12.52,0,0,0-.24-2,4.28,4.28,0,0,0-4.32-3.55c-4.72-.26-6.68,3.33-6.68,6.57,0,4.09,0,8.18,0,12.28,0,.73-.15,1-.93,1-2,0-2,0-2-2,0-6.39,0-12.77,0-19.15,0-.65.13-.89.83-.87,2.1,0,2.1,0,2.1,2.09Z"></path><path class="cls-4" d="M221.78,85.1a10.63,10.63,0,0,1-8.42-3.91c-.41-.5-.55-.86.15-1.23s1-.94,1.56-1,.83.81,1.25,1.24a8.65,8.65,0,0,0,8.85,1.87,3.49,3.49,0,0,0,2.32-4.3,3,3,0,0,0-2-2,43.46,43.46,0,0,0-5.61-1.53,19.18,19.18,0,0,1-2.69-.87,5,5,0,0,1-3.34-4.21,5.7,5.7,0,0,1,2.37-5.56c3.67-2.65,10.24-1.74,13.08,1.78.23.28.28.45,0,.69a9,9,0,0,0-1.11.94c-.51.53-.84.53-1.38-.07a7,7,0,0,0-7.6-2,3.07,3.07,0,0,0-2.4,3A3,3,0,0,0,219,71a58.56,58.56,0,0,0,5.72,1.49,16.18,16.18,0,0,1,2.35.78,5.25,5.25,0,0,1,3.45,4.44,5.89,5.89,0,0,1-2.47,5.69A10.59,10.59,0,0,1,221.78,85.1Z"></path><path class="cls-4" d="M240.51,85.1A10.55,10.55,0,0,1,232.14,81c-.32-.41-.4-.68.13-1s1.11-1,1.71-1.1.87.85,1.31,1.31A8.64,8.64,0,0,0,244.16,82a3.47,3.47,0,0,0,2.24-4.22,3,3,0,0,0-2-2,33.57,33.57,0,0,0-4.95-1.37,23.24,23.24,0,0,1-3.27-1,5,5,0,0,1-3.43-4.31,5.66,5.66,0,0,1,2.68-5.73c3.7-2.35,9.73-1.45,12.62,1.84.37.42.38.67-.09,1s-1,1.08-1.53,1.19-.93-.77-1.42-1.16A7.21,7.21,0,0,0,237.87,65a3.16,3.16,0,0,0-.18,5.91,46.71,46.71,0,0,0,6,1.59,15.87,15.87,0,0,1,2.66.94c4.29,2,3.91,7.63.8,9.88A10.93,10.93,0,0,1,240.51,85.1Z"></path><path class="cls-4" d="M152.81,85.1a10.57,10.57,0,0,1-8.26-4c-.4-.51-.37-.79.2-1.11s1.07-1,1.64-1,.8.85,1.25,1.27a8.37,8.37,0,0,0,8.77,1.84A3.42,3.42,0,0,0,158.8,78a2.94,2.94,0,0,0-2-2.19,43.06,43.06,0,0,0-5.61-1.54,19,19,0,0,1-2.53-.79,5,5,0,0,1-3.48-4.09,5.8,5.8,0,0,1,2.37-5.8c3.61-2.62,10.33-1.65,13.06,1.87.21.27.24.42,0,.61-.09.06-.16.16-.25.23-.51.42-1,1.09-1.53,1.18s-.87-.78-1.34-1.17a7.22,7.22,0,0,0-7.1-1.3,3.17,3.17,0,0,0-.1,6,54.88,54.88,0,0,0,5.8,1.51,10.29,10.29,0,0,1,3.75,1.62,5.9,5.9,0,0,1-.29,9.17C157.67,84.67,155.53,85.06,152.81,85.1Z"></path><path class="cls-4" d="M167.4,73.62c0,3.37,0,6.75,0,10.13,0,.67-.2.8-.82.8-2.12,0-2.12,0-2.12-2.15,0-6.32,0-12.65,0-19,0-.73.2-.91.91-.89,2,0,2,0,2,2.07Z"></path><path class="cls-5" d="M261.22,64.56l-2,3-2-3v3.15c0,.38.06.73-.54.72s-.48-.42-.48-.76c0-1.46,0-2.92,0-4.38,0-.25-.17-.62.26-.7a.79.79,0,0,1,.94.39c.56.93,1.17,1.83,1.82,2.83.6-.94,1.18-1.81,1.72-2.7.23-.38.48-.63.95-.53s.29.56.3.84c0,1.37,0,2.75,0,4.12,0,.36.26.9-.52.89s-.47-.51-.48-.85C261.2,66.64,261.22,65.72,261.22,64.56Z"></path><path class="cls-6" d="M252.62,66a16.26,16.26,0,0,1,0-1.71c.06-.62-.19-.79-.78-.75-.35,0-.82.2-.81-.5s.51-.48.85-.49c1,0,2,0,2.92,0,.42,0,.54.14.54.55s-.19.53-.52.46c-1.1-.23-1.2.37-1.15,1.24s0,2.06,0,3.08c0,.44-.13.53-.53.53s-.59-.06-.57-.51C252.64,67.26,252.62,66.63,252.62,66Z"></path><path class="cls-4" d="M121.1,68a8.31,8.31,0,0,0-8.7-5.88A7.64,7.64,0,0,0,105.77,66V55.19c0-1.94,0-1.91-2-2-.77,0-1,.18-1,1,0,9.36,0,18.72,0,28.08,0,2.36,0,2.34,2.35,2.25.45,0,.59-.14.58-.59,0-.85,0-1.7,0-2.74.39.52.64.91.94,1.24a8.56,8.56,0,0,0,13.51-1.35C122.66,76.92,122.68,72.42,121.1,68Zm-3.44,11.69c-2.09,3.87-8.64,4-10.74-.21a13.11,13.11,0,0,1-1.22-6.91,11.93,11.93,0,0,1,.94-4.24,5.75,5.75,0,0,1,5.42-3.67,5.9,5.9,0,0,1,5.78,3.28,12.59,12.59,0,0,1,1.2,5.85A12.79,12.79,0,0,1,117.66,79.64Z"></path><path class="cls-4" d="M210.49,78.37c-1.11-.72-1.11-.72-1.8.36l-.38.57a7.62,7.62,0,0,1-11.12,1.44,7.82,7.82,0,0,1-2.41-5.69c-.07-1.15,0-1.15,1.09-1.15H203c2.52,0,5.05,0,7.57,0,.61,0,.82-.17.75-.78-.1-.82-.09-1.65-.22-2.47a10.68,10.68,0,0,0-2.71-5.91c-4.09-4.29-11.68-3.38-14.84,1.77a14,14,0,0,0-1.64,9.59,11.24,11.24,0,0,0,2.81,6.23c3.51,3.8,12.35,4.25,16.17-2.12C211.59,79.09,211.61,79.1,210.49,78.37ZM198.66,65.2a6.32,6.32,0,0,1,6.6.45,6.92,6.92,0,0,1,2.92,5.3c.06.53-.2.55-.59.55-2,0-4,0-6,0s-4,0-6,0c-.43,0-.72,0-.63-.59C195.31,68.44,196.31,66.33,198.66,65.2Z"></path></g><g><path d="M232.57,21.21c-1,2.5-2,4.85-3,7.2q-4,9.47-8.06,18.93a20.48,20.48,0,0,1-1.32,2.49,7.07,7.07,0,0,1-6.64,3.62c-1.91-.07-1.91,0-1.91-1.9,0-.75,0-1.49,0-2.24,0-.43.08-.65.56-.58,2.69.43,4-1.07,4.94-3.33a4.43,4.43,0,0,0,.06-3.83c-2.78-6.64-5.46-13.33-8.17-20l-.12-.36h5.06c.45,0,.43.4.54.66l5.94,14.82c.06.15.08.34.28.42C222.76,32,224.86,27,226.92,21.9a.91.91,0,0,1,1.05-.7C229.46,21.24,230.94,21.21,232.57,21.21Z"></path><path d="M123,28.71c0,1.94,0,3.89,0,5.84.06,6-4.27,8.76-8.8,9.14a12.4,12.4,0,0,1-6-.83,8.28,8.28,0,0,1-5.27-8c-.08-4.32,0-8.65,0-13,0-.52.1-.7.65-.68,1.35,0,2.7.05,4,0,.57,0,.65.2.64.69q0,6.18,0,12.37a4.58,4.58,0,0,0,3.15,4.44,4.93,4.93,0,0,0,5.42-1.56,5.14,5.14,0,0,0,1-3.29c0-4,0-7.91,0-11.86,0-.64.15-.82.8-.79a35.13,35.13,0,0,0,3.7,0c.69,0,.79.2.78.82C123,24.24,123,26.47,123,28.71Z"></path><path class="cls-4" d="M102.85,16.27c0-1.8,0-3.59,0-5.38,0-.37.24-.48.49-.63,3-1.74,6-3.48,9.06-5.24a1,1,0,0,1,1.09,0q4.48,2.61,9,5.18a.88.88,0,0,1,.54.87c0,1.72,0,3.44,0,5.16-.32.1-.5-.14-.7-.25-2.88-1.65-5.77-3.29-8.62-5a1.2,1.2,0,0,0-1.45,0c-2.83,1.67-5.69,3.3-8.55,4.93A1.5,1.5,0,0,1,102.85,16.27Z"></path><path d="M208.2,27.8c-.6-5-4-7.59-9.24-6.89A9,9,0,0,0,193.27,24a6.31,6.31,0,0,0-3-2.66,7.81,7.81,0,0,0-8.59,1.9c-.29,0-.3,0-.31-.17l-.06-1.86c-1.49,0-3,0-4.47,0-.49,0-.63.13-.63.63q0,10.4,0,20.79c0,.46.14.58.58.57,1.29,0,2.58,0,3.87,0,.66,0,.81-.16.8-.8,0-3.9,0-7.79,0-11.69a5.62,5.62,0,0,1,1.24-3.82,3.85,3.85,0,0,1,3.77-1.37,3.52,3.52,0,0,1,2.84,2.56,7,7,0,0,1,.33,2.27c0,4,0,8,0,11.94,0,.81.24.94.95.91a32.89,32.89,0,0,1,3.44,0c.65,0,.85-.13.85-.82,0-3.93,0-7.85,0-11.78a5.67,5.67,0,0,1,1-3.47,4,4,0,0,1,4.09-1.6,3.58,3.58,0,0,1,2.93,2.88,9.33,9.33,0,0,1,.24,2.47c0,3.87,0,7.73,0,11.6,0,.55.11.74.7.72,1.28-.05,2.58-.05,3.87,0,.59,0,.7-.18.69-.72,0-2.06,0-4.13,0-6.19A82.89,82.89,0,0,0,208.2,27.8Z"></path><path d="M148.81,13.67c0-.65-.12-.9-.83-.86-1.2.07-2.41.06-3.61,0-.65,0-.81.15-.8.79,0,3.14,0,6.29,0,9.56a11.62,11.62,0,0,0-11.48-1.52c-4.71,2.11-7.2,7-6.4,12.54a11,11,0,0,0,17.88,7,11.11,11.11,0,0,1,0,1.31c-.08.58.16.71.7.69q2,0,4,0c.45,0,.58-.12.57-.57,0-1.2,0-2.4,0-3.61Q148.8,26.35,148.81,13.67ZM137.22,38.89a6.4,6.4,0,0,1-6.5-6.7,6.49,6.49,0,0,1,6.55-6.7,6.66,6.66,0,0,1,6.7,6.7A6.59,6.59,0,0,1,137.22,38.89Z"></path><path class="cls-7" d="M214,49.14a1,1,0,0,1-.24,0c-1.82.08-1.82.08-1.82,1.87S212,53,213.91,53a1.36,1.36,0,0,1,.8.17h-2.38c-.42,0-.54-.2-.53-.58q0-1.5,0-3c0-.33.09-.55.47-.54H214Z"></path><path class="cls-8" d="M107.65,34.68v-2c0-3.35,0-6.7,0-10,0-.73-.22-.95-.93-.91a20,20,0,0,1-2.57,0c-.65,0-.84.19-.83.83,0,4.18,0,8.36,0,12.53a1.85,1.85,0,0,1-.08.93c-.15-.19-.09-.4-.09-.59,0-4.32,0-8.64,0-13,0-.72.22-.94.93-.9,1,.06,2.06,0,3.09,0,.4,0,.65.07.65.56q0,6.21,0,12.44S107.76,34.56,107.65,34.68Z"></path><path class="cls-9" d="M118,34.84a4.11,4.11,0,0,1-.06-.48c0-4,0-8.07,0-12.11,0-.56.18-.75.74-.73,1.15,0,2.29,0,3.44,0,.39,0,.66.06.66.55q0,6.3,0,12.61s0,0-.06.08a1.48,1.48,0,0,1-.07-.83c0-3.78,0-7.56,0-11.33,0-.71-.2-1-.92-.92a19.68,19.68,0,0,1-2.66,0c-.7,0-.94.17-.93.9,0,3.78,0,7.56,0,11.33A1.65,1.65,0,0,1,118,34.84Z"></path><path d="M169.09,22.46A10.48,10.48,0,0,0,162,20.67a10.68,10.68,0,0,0-9.39,5.77,12.86,12.86,0,0,0-1.2,7.59,10.27,10.27,0,0,0,4,7.31c4.22,3.33,12.49,3.56,17.16-1.93-1.24-.72-2.4-1.38-3.55-2.07-.3-.19-.48-.11-.73.1a8.18,8.18,0,0,1-6,1.79,6,6,0,0,1-5.67-4.85c-.11-.53,0-.66.52-.63s1.15,0,1.72,0c4.68,0,9.35,0,14,0,.28,0,.68.24.75-.38C174.09,28.91,172.78,25.18,169.09,22.46Zm-12.3,6.59a5.34,5.34,0,0,1,2.49-3,6.47,6.47,0,0,1,7.51.56,4.74,4.74,0,0,1,1,1.24c.9,1.56.73,1.86-1,1.86h-4.29c-1.75,0-3.5,0-5.25,0C156.74,29.69,156.64,29.56,156.79,29.05Z"></path></g></g></g></g></g></g></svg>