<?xml version="1.0" encoding="UTF-8"?>
<svg version="1.1" xmlns="http://www.w3.org/2000/svg" width="512" height="512">
<path d="M0 0 C2.1198433 0.0056486 4.23967858 0.00846379 6.35952759 0.0110817 C26.90876038 0.04796487 47.20245193 0.45946186 67.58584595 3.31805801 C68.90952917 3.49711854 70.23326122 3.67581845 71.55703735 3.85419083 C122.10618129 10.7519002 161.99715664 22.87437544 199.58584595 58.31805801 C200.36959595 59.04766739 201.15334595 59.77727676 201.96084595 60.52899551 C246.50993772 103.3279444 256.86424001 168.62751994 258.693573 227.80281448 C258.74880884 231.37715725 258.77612174 234.95034434 258.78897095 238.52508926 C258.79598526 239.83704773 258.80299957 241.1490062 258.81022644 242.50072098 C258.82961945 246.71067164 258.83466028 250.92056719 258.83584595 255.13055801 C258.8362878 255.84770981 258.83672966 256.5648616 258.83718491 257.30374527 C258.84412648 278.78346315 258.57147759 300.00284254 255.58584595 321.31805801 C255.40671487 322.64710302 255.2280175 323.97620653 255.04971313 325.3053627 C250.9857077 355.22728298 246.12543491 385.54904319 231.58584595 412.31805801 C231.04186157 413.34415176 230.4978772 414.37024551 229.93740845 415.42743301 C222.46200588 428.91962301 212.63390769 440.87577656 201.93496704 451.92206192 C200.71835257 453.18094747 199.52005797 454.45747556 198.3241272 455.73602676 C155.64998043 500.30329649 90.15425688 510.60022749 31.10108948 512.42578506 C27.52674671 512.4810209 23.95355962 512.5083338 20.3788147 512.52118301 C19.06685623 512.52819733 17.75489777 512.53521164 16.40318298 512.54243851 C12.19323232 512.56183151 7.98333677 512.56687235 3.77334595 512.56805801 C3.05619415 512.56849987 2.33904236 512.56894173 1.60015869 512.56939697 C-19.88157172 512.5763392 -41.09596572 512.29262146 -62.41415405 509.31805801 C-63.70869507 509.14645157 -65.00323608 508.97484512 -66.33700562 508.79803848 C-123.55513301 501.15002596 -173.89688934 484.10638108 -210.45516968 436.68744278 C-244.94494478 390.8799212 -253.42992924 330.99491276 -253.61727905 274.73602676 C-253.62010643 274.05974039 -253.62293381 273.38345402 -253.62584686 272.68667412 C-253.64072652 269.09008418 -253.65002013 265.49353301 -253.65438843 261.89691544 C-253.65872089 259.0032288 -253.67242259 256.10984913 -253.69540405 253.21625137 C-253.89940006 226.96088532 -252.39703755 201.01326641 -248.10165405 175.06805801 C-247.8921814 173.77069717 -247.68270874 172.47333633 -247.46688843 171.13666153 C-240.11690294 126.37718679 -226.73378692 92.53311535 -195.41415405 59.31805801 C-194.68454468 58.53430801 -193.9549353 57.75055801 -193.20321655 56.94305801 C-170.22376058 33.02392169 -140.64811341 18.17551202 -108.53915405 11.25555801 C-107.77734833 11.08852371 -107.0155426 10.92148941 -106.23065186 10.74939346 C-94.6253594 8.21783618 -82.98357064 6.13098144 -71.22665405 4.44305801 C-70.55853699 4.34564316 -69.89041992 4.2482283 -69.20205688 4.14786148 C-46.21087322 0.84801317 -23.20467134 -0.06283861 0 0 Z " fill="#E4F3D8" transform="translate(253.41415405273438,-0.3180580139160156)"/>
<path d="M0 0 C30.30030966 28.98481142 48.88589184 71.21416753 50.61328125 112.96484375 C51.45591791 153.31895111 40.6226753 193.53916974 15.19921875 225.45703125 C14.54203857 226.28340088 14.54203857 226.28340088 13.87158203 227.12646484 C-13.73336168 261.4512292 -52.90544276 284.62823247 -96.80078125 290.45703125 C-97.77289551 290.59516235 -97.77289551 290.59516235 -98.76464844 290.73608398 C-124.55351761 294.06899288 -151.42756166 291.52685316 -175.80078125 282.45703125 C-176.81615967 282.08022217 -176.81615967 282.08022217 -177.85205078 281.69580078 C-215.49753493 267.46216438 -246.20947254 242.107894 -266.80078125 207.45703125 C-267.3127002 206.59803223 -267.3127002 206.59803223 -267.83496094 205.72167969 C-290.83623084 166.47645076 -294.52369173 119.52859858 -283.70703125 75.93359375 C-280.09855418 62.30381591 -274.21622047 49.52721822 -267.42578125 37.20703125 C-266.95446777 36.34259399 -266.95446777 36.34259399 -266.47363281 35.46069336 C-259.44520867 23.13373552 -250.71352033 12.72917968 -240.6328125 2.82250977 C-238.78980575 1.0087298 -236.96649779 -0.82331311 -235.14453125 -2.65820312 C-228.78105372 -9.01072091 -222.46004319 -14.75270209 -214.80078125 -19.54296875 C-214.17284668 -19.95200439 -213.54491211 -20.36104004 -212.89794922 -20.7824707 C-144.59690015 -64.76348799 -59.16741632 -53.72104327 0 0 Z " fill="#3DC42A" transform="translate(375.80078125,134.54296875)"/>
<path d="M0 0 C6.6921306 4.39313335 11.66880445 10.59792256 13.60546875 18.45703125 C15.06822005 27.8852599 13.96112101 35.72777367 9 44 C6.62867926 46.76787606 4.13761912 49.23830739 1.46484375 51.71484375 C-0.63763328 53.66404987 -2.47633718 55.61917832 -4.3125 57.8125 C-7.5223892 61.57134888 -10.98790122 65.02742407 -14.5 68.5 C-17.94938442 71.91069793 -21.36119945 75.29621535 -24.5 79 C-28.1645653 83.32418706 -32.21520866 87.24082291 -36.2421875 91.22265625 C-39.10574117 94.06641577 -41.8887719 96.91875084 -44.5 100 C-48.1645653 104.32418706 -52.21520866 108.24082291 -56.2421875 112.22265625 C-59.10574117 115.06641577 -61.8887719 117.91875084 -64.5 121 C-68.16389741 125.32339894 -72.21371646 129.23937981 -76.23999023 133.22045898 C-79.12492341 136.0854301 -81.92779008 138.9616989 -84.5625 142.0625 C-101.89717028 162.28628199 -101.89717028 162.28628199 -114.0390625 163.23828125 C-126.6937815 163.50019809 -132.93579352 160.41160583 -142 152 C-145.52800617 148.58874755 -149.00980667 145.13447458 -152.47290039 141.6574707 C-154.05959946 140.06541034 -155.65157742 138.4787701 -157.24414062 136.89257812 C-165.70914101 128.43212272 -165.70914101 128.43212272 -169.4921875 123.98046875 C-172.38688757 120.59025976 -175.5174563 117.48366239 -178.72265625 114.390625 C-179.2357283 113.89251816 -179.74880035 113.39441132 -180.27742004 112.88121033 C-182.40271863 110.81854459 -184.52780395 108.75649461 -186.67797852 106.71972656 C-194.54883044 99.24511068 -202.38307842 91.24003269 -203.76171875 79.8984375 C-203.55877164 70.26379056 -201.92745062 63.67048182 -195.6875 56.25 C-188.36269083 50.11760163 -183.73660085 46.81262421 -173.9375 46.625 C-172.86725586 46.56892578 -172.86725586 46.56892578 -171.77539062 46.51171875 C-163.06299844 46.37157303 -156.80974002 50.07923108 -150.55604553 55.95770264 C-147.92326201 58.52676933 -145.3663433 61.1653547 -142.8125 63.8125 C-141.7621922 64.87936342 -140.71076499 65.94512599 -139.65820312 67.00976562 C-134.7490993 71.99815362 -129.94243321 77.05480778 -125.40283203 82.38549805 C-123.38078743 84.71264405 -121.21248362 86.85456134 -119 89 C-115.73858395 87.91286132 -115.20884837 87.31971975 -113.125 84.75 C-109.77429273 80.78618459 -106.19192267 77.1405659 -102.5 73.5 C-98.44477418 69.49149731 -94.56016679 65.441294 -90.87109375 61.08984375 C-87.85780378 57.72426936 -84.6127901 54.59310392 -81.39990234 51.41943359 C-78.6757179 48.71571251 -76.04649806 45.99250269 -73.5625 43.0625 C-69.91441827 38.76905738 -65.90792489 34.8527289 -61.88110352 30.91821289 C-59.00381351 28.08658718 -56.26127905 25.19565888 -53.62109375 22.140625 C-49.76244611 17.68069902 -45.70377608 13.44718889 -41.5625 9.25 C-40.85029297 8.50878906 -40.13808594 7.76757812 -39.40429688 7.00390625 C-28.07596992 -4.45817934 -14.76543439 -7.47113297 0 0 Z " fill="#E7F9DD" transform="translate(347,181)"/>
</svg>
