<svg xmlns="http://www.w3.org/2000/svg" width="38.635" height="43.002" viewBox="0 0 38.635 43.002"><g id="calendar_1_" data-name="calendar (1)" transform="translate(-26)"><g id="&#x421;&#x433;&#x440;&#x443;&#x43F;&#x43F;&#x438;&#x440;&#x43E;&#x432;&#x430;&#x442;&#x44C;_8212" data-name="&#x421;&#x433;&#x440;&#x443;&#x43F;&#x43F;&#x438;&#x440;&#x43E;&#x432;&#x430;&#x442;&#x44C; 8212" transform="translate(44.477 37.963)"><g id="&#x421;&#x433;&#x440;&#x443;&#x43F;&#x43F;&#x438;&#x440;&#x43E;&#x432;&#x430;&#x442;&#x44C;_8211" data-name="&#x421;&#x433;&#x440;&#x443;&#x43F;&#x43F;&#x438;&#x440;&#x43E;&#x432;&#x430;&#x442;&#x44C; 8211"><path id="&#x41A;&#x43E;&#x43D;&#x442;&#x443;&#x440;_6051" data-name="&#x41A;&#x43E;&#x43D;&#x442;&#x443;&#x440; 6051" d="M246.84,452a.84.84,0,1,0,.84.84A.84.84,0,0,0,246.84,452Z" transform="translate(-246 -452)"></path></g></g><g id="&#x421;&#x433;&#x440;&#x443;&#x43F;&#x43F;&#x438;&#x440;&#x43E;&#x432;&#x430;&#x442;&#x44C;_8214" data-name="&#x421;&#x433;&#x440;&#x443;&#x43F;&#x43F;&#x438;&#x440;&#x43E;&#x432;&#x430;&#x442;&#x44C; 8214" transform="translate(26)"><g id="&#x421;&#x433;&#x440;&#x443;&#x43F;&#x43F;&#x438;&#x440;&#x43E;&#x432;&#x430;&#x442;&#x44C;_8213" data-name="&#x421;&#x433;&#x440;&#x443;&#x43F;&#x43F;&#x438;&#x440;&#x43E;&#x432;&#x430;&#x442;&#x44C; 8213"><path id="&#x41A;&#x43E;&#x43D;&#x442;&#x443;&#x440;_6052" data-name="&#x41A;&#x43E;&#x43D;&#x442;&#x443;&#x440; 6052" d="M62.115,3.36h-1.68V2.52a2.52,2.52,0,0,0-5.039,0v.84h-3.36V2.52A2.52,2.52,0,0,0,47,2.52v.84h-3.36V2.52a2.52,2.52,0,1,0-5.039,0v.84h-3.36V2.52a2.52,2.52,0,0,0-5.039,0v.84H28.52A2.523,2.523,0,0,0,26,5.879V38.8A4.2,4.2,0,0,0,30.2,43H60.435a4.2,4.2,0,0,0,4.2-4.2V5.879A2.523,2.523,0,0,0,62.115,3.36Zm-5.039-.84a.84.84,0,1,1,1.68,0v.84h-1.68Zm-8.4,0a.84.84,0,1,1,1.68,0v.84h-1.68Zm-8.4,0a.84.84,0,0,1,1.68,0v.84h-1.68Zm-8.4,0a.84.84,0,0,1,1.68,0v.84h-1.68ZM62.955,35.443a2.523,2.523,0,0,1-2.52,2.52H48.677a.84.84,0,0,0,0,1.68H60.435a4.178,4.178,0,0,0,2.52-.842v0a2.523,2.523,0,0,1-2.52,2.52H30.2a2.523,2.523,0,0,1-2.52-2.52v0a4.178,4.178,0,0,0,2.52.842H41.958a.84.84,0,1,0,0-1.68H30.2a2.523,2.523,0,0,1-2.52-2.52v-22H62.955Zm0-23.685H27.68V5.879a.841.841,0,0,1,.84-.84H30.2v.84a2.523,2.523,0,0,0,2.52,2.52.84.84,0,1,0,0-1.68.841.841,0,0,1-.84-.84v-.84H38.6v.84a2.523,2.523,0,0,0,2.52,2.52.84.84,0,0,0,0-1.68.841.841,0,0,1-.84-.84v-.84H47v.84a2.523,2.523,0,0,0,2.52,2.52.84.84,0,0,0,0-1.68.841.841,0,0,1-.84-.84v-.84H55.4v.84a2.523,2.523,0,0,0,2.52,2.52.84.84,0,1,0,0-1.68.841.841,0,0,1-.84-.84v-.84h5.039a.841.841,0,0,1,.84.84Z" transform="translate(-26)"></path></g></g><g id="&#x421;&#x433;&#x440;&#x443;&#x43F;&#x43F;&#x438;&#x440;&#x43E;&#x432;&#x430;&#x442;&#x44C;_8216" data-name="&#x421;&#x433;&#x440;&#x443;&#x43F;&#x43F;&#x438;&#x440;&#x43E;&#x432;&#x430;&#x442;&#x44C; 8216" transform="translate(31.039 17.302)"><g id="&#x421;&#x433;&#x440;&#x443;&#x43F;&#x43F;&#x438;&#x440;&#x43E;&#x432;&#x430;&#x442;&#x44C;_8215" data-name="&#x421;&#x433;&#x440;&#x443;&#x43F;&#x43F;&#x438;&#x440;&#x43E;&#x432;&#x430;&#x442;&#x44C; 8215"><path id="&#x41A;&#x43E;&#x43D;&#x442;&#x443;&#x440;_6053" data-name="&#x41A;&#x43E;&#x43D;&#x442;&#x443;&#x440; 6053" d="M91.879,206H86.84a.84.84,0,0,0-.84.84v5.039a.84.84,0,0,0,.84.84h5.039a.84.84,0,0,0,.84-.84V206.84A.84.84,0,0,0,91.879,206Zm-.84,5.039H87.68v-3.36h3.36Z" transform="translate(-86 -206)"></path></g></g><g id="&#x421;&#x433;&#x440;&#x443;&#x43F;&#x43F;&#x438;&#x440;&#x43E;&#x432;&#x430;&#x442;&#x44C;_8218" data-name="&#x421;&#x433;&#x440;&#x443;&#x43F;&#x43F;&#x438;&#x440;&#x43E;&#x432;&#x430;&#x442;&#x44C; 8218" transform="translate(41.958 17.302)"><g id="&#x421;&#x433;&#x440;&#x443;&#x43F;&#x43F;&#x438;&#x440;&#x43E;&#x432;&#x430;&#x442;&#x44C;_8217" data-name="&#x421;&#x433;&#x440;&#x443;&#x43F;&#x43F;&#x438;&#x440;&#x43E;&#x432;&#x430;&#x442;&#x44C; 8217"><path id="&#x41A;&#x43E;&#x43D;&#x442;&#x443;&#x440;_6054" data-name="&#x41A;&#x43E;&#x43D;&#x442;&#x443;&#x440; 6054" d="M221.879,206H216.84a.84.84,0,0,0-.84.84v5.039a.84.84,0,0,0,.84.84h5.039a.84.84,0,0,0,.84-.84V206.84A.84.84,0,0,0,221.879,206Zm-.84,5.039h-3.36v-3.36h3.36Z" transform="translate(-216 -206)"></path></g></g><g id="&#x421;&#x433;&#x440;&#x443;&#x43F;&#x43F;&#x438;&#x440;&#x43E;&#x432;&#x430;&#x442;&#x44C;_8220" data-name="&#x421;&#x433;&#x440;&#x443;&#x43F;&#x43F;&#x438;&#x440;&#x43E;&#x432;&#x430;&#x442;&#x44C; 8220" transform="translate(52.876 17.302)"><g id="&#x421;&#x433;&#x440;&#x443;&#x43F;&#x43F;&#x438;&#x440;&#x43E;&#x432;&#x430;&#x442;&#x44C;_8219" data-name="&#x421;&#x433;&#x440;&#x443;&#x43F;&#x43F;&#x438;&#x440;&#x43E;&#x432;&#x430;&#x442;&#x44C; 8219"><path id="&#x41A;&#x43E;&#x43D;&#x442;&#x443;&#x440;_6055" data-name="&#x41A;&#x43E;&#x43D;&#x442;&#x443;&#x440; 6055" d="M351.879,206H346.84a.84.84,0,0,0-.84.84v5.039a.84.84,0,0,0,.84.84h5.039a.84.84,0,0,0,.84-.84V206.84A.84.84,0,0,0,351.879,206Zm-.84,5.039h-3.36v-3.36h3.36Z" transform="translate(-346 -206)"></path></g></g><g id="&#x421;&#x433;&#x440;&#x443;&#x43F;&#x43F;&#x438;&#x440;&#x43E;&#x432;&#x430;&#x442;&#x44C;_8222" data-name="&#x421;&#x433;&#x440;&#x443;&#x43F;&#x43F;&#x438;&#x440;&#x43E;&#x432;&#x430;&#x442;&#x44C; 8222" transform="translate(31.039 27.38)"><g id="&#x421;&#x433;&#x440;&#x443;&#x43F;&#x43F;&#x438;&#x440;&#x43E;&#x432;&#x430;&#x442;&#x44C;_8221" data-name="&#x421;&#x433;&#x440;&#x443;&#x43F;&#x43F;&#x438;&#x440;&#x43E;&#x432;&#x430;&#x442;&#x44C; 8221"><path id="&#x41A;&#x43E;&#x43D;&#x442;&#x443;&#x440;_6056" data-name="&#x41A;&#x43E;&#x43D;&#x442;&#x443;&#x440; 6056" d="M91.879,326H86.84a.84.84,0,0,0-.84.84v5.039a.84.84,0,0,0,.84.84h5.039a.84.84,0,0,0,.84-.84V326.84A.84.84,0,0,0,91.879,326Zm-.84,5.039H87.68v-3.36h3.36Z" transform="translate(-86 -326)"></path></g></g><g id="&#x421;&#x433;&#x440;&#x443;&#x43F;&#x43F;&#x438;&#x440;&#x43E;&#x432;&#x430;&#x442;&#x44C;_8224" data-name="&#x421;&#x433;&#x440;&#x443;&#x43F;&#x43F;&#x438;&#x440;&#x43E;&#x432;&#x430;&#x442;&#x44C; 8224" transform="translate(41.958 27.38)"><g id="&#x421;&#x433;&#x440;&#x443;&#x43F;&#x43F;&#x438;&#x440;&#x43E;&#x432;&#x430;&#x442;&#x44C;_8223" data-name="&#x421;&#x433;&#x440;&#x443;&#x43F;&#x43F;&#x438;&#x440;&#x43E;&#x432;&#x430;&#x442;&#x44C; 8223"><path id="&#x41A;&#x43E;&#x43D;&#x442;&#x443;&#x440;_6057" data-name="&#x41A;&#x43E;&#x43D;&#x442;&#x443;&#x440; 6057" d="M221.879,326H216.84a.84.84,0,0,0-.84.84v5.039a.84.84,0,0,0,.84.84h5.039a.84.84,0,0,0,.84-.84V326.84A.84.84,0,0,0,221.879,326Zm-.84,5.039h-3.36v-3.36h3.36Z" transform="translate(-216 -326)"></path></g></g><g id="&#x421;&#x433;&#x440;&#x443;&#x43F;&#x43F;&#x438;&#x440;&#x43E;&#x432;&#x430;&#x442;&#x44C;_8226" data-name="&#x421;&#x433;&#x440;&#x443;&#x43F;&#x43F;&#x438;&#x440;&#x43E;&#x432;&#x430;&#x442;&#x44C; 8226" transform="translate(52.876 27.38)"><g id="&#x421;&#x433;&#x440;&#x443;&#x43F;&#x43F;&#x438;&#x440;&#x43E;&#x432;&#x430;&#x442;&#x44C;_8225" data-name="&#x421;&#x433;&#x440;&#x443;&#x43F;&#x43F;&#x438;&#x440;&#x43E;&#x432;&#x430;&#x442;&#x44C; 8225"><path id="&#x41A;&#x43E;&#x43D;&#x442;&#x443;&#x440;_6058" data-name="&#x41A;&#x43E;&#x43D;&#x442;&#x443;&#x440; 6058" d="M351.879,326H346.84a.84.84,0,0,0-.84.84v5.039a.84.84,0,0,0,.84.84h5.039a.84.84,0,0,0,.84-.84V326.84A.84.84,0,0,0,351.879,326Zm-.84,5.039h-3.36v-3.36h3.36Z" transform="translate(-346 -326)"></path></g></g></g></svg>