<svg xmlns="http://www.w3.org/2000/svg" width="42.064" height="39.435" viewBox="0 0 42.064 39.435"><g id="coding" transform="translate(0 -16)"><g id="&#x421;&#x433;&#x440;&#x443;&#x43F;&#x43F;&#x438;&#x440;&#x43E;&#x432;&#x430;&#x442;&#x44C;_8228" data-name="&#x421;&#x433;&#x440;&#x443;&#x43F;&#x43F;&#x438;&#x440;&#x43E;&#x432;&#x430;&#x442;&#x44C; 8228" transform="translate(25.14 19.286)"><g id="&#x421;&#x433;&#x440;&#x443;&#x43F;&#x43F;&#x438;&#x440;&#x43E;&#x432;&#x430;&#x442;&#x44C;_8227" data-name="&#x421;&#x433;&#x440;&#x443;&#x43F;&#x43F;&#x438;&#x440;&#x43E;&#x432;&#x430;&#x442;&#x44C; 8227" transform="translate(0 0)"><path id="&#x41A;&#x43E;&#x43D;&#x442;&#x443;&#x440;_6059" data-name="&#x41A;&#x43E;&#x43D;&#x442;&#x443;&#x440; 6059" d="M306.822,56a.822.822,0,1,0,.822.822A.822.822,0,0,0,306.822,56Z" transform="translate(-306 -56)"></path></g></g><g id="&#x421;&#x433;&#x440;&#x443;&#x43F;&#x43F;&#x438;&#x440;&#x43E;&#x432;&#x430;&#x442;&#x44C;_8230" data-name="&#x421;&#x433;&#x440;&#x443;&#x43F;&#x43F;&#x438;&#x440;&#x43E;&#x432;&#x430;&#x442;&#x44C; 8230" transform="translate(11.995 19.286)"><g id="&#x421;&#x433;&#x440;&#x443;&#x43F;&#x43F;&#x438;&#x440;&#x43E;&#x432;&#x430;&#x442;&#x44C;_8229" data-name="&#x421;&#x433;&#x440;&#x443;&#x43F;&#x43F;&#x438;&#x440;&#x43E;&#x432;&#x430;&#x442;&#x44C; 8229" transform="translate(0 0)"><path id="&#x41A;&#x43E;&#x43D;&#x442;&#x443;&#x440;_6060" data-name="&#x41A;&#x43E;&#x43D;&#x442;&#x443;&#x440; 6060" d="M146.822,56a.822.822,0,1,0,.822.822A.822.822,0,0,0,146.822,56Z" transform="translate(-146 -56)"></path></g></g><g id="&#x421;&#x433;&#x440;&#x443;&#x43F;&#x43F;&#x438;&#x440;&#x43E;&#x432;&#x430;&#x442;&#x44C;_8232" data-name="&#x421;&#x433;&#x440;&#x443;&#x43F;&#x43F;&#x438;&#x440;&#x43E;&#x432;&#x430;&#x442;&#x44C; 8232" transform="translate(8.709 19.286)"><g id="&#x421;&#x433;&#x440;&#x443;&#x43F;&#x43F;&#x438;&#x440;&#x43E;&#x432;&#x430;&#x442;&#x44C;_8231" data-name="&#x421;&#x433;&#x440;&#x443;&#x43F;&#x43F;&#x438;&#x440;&#x43E;&#x432;&#x430;&#x442;&#x44C; 8231" transform="translate(0 0)"><path id="&#x41A;&#x43E;&#x43D;&#x442;&#x443;&#x440;_6061" data-name="&#x41A;&#x43E;&#x43D;&#x442;&#x443;&#x440; 6061" d="M106.822,56a.822.822,0,1,0,.822.822A.822.822,0,0,0,106.822,56Z" transform="translate(-106 -56)"></path></g></g><g id="&#x421;&#x433;&#x440;&#x443;&#x43F;&#x43F;&#x438;&#x440;&#x43E;&#x432;&#x430;&#x442;&#x44C;_8234" data-name="&#x421;&#x433;&#x440;&#x443;&#x43F;&#x43F;&#x438;&#x440;&#x43E;&#x432;&#x430;&#x442;&#x44C; 8234" transform="translate(5.422 19.286)"><g id="&#x421;&#x433;&#x440;&#x443;&#x43F;&#x43F;&#x438;&#x440;&#x43E;&#x432;&#x430;&#x442;&#x44C;_8233" data-name="&#x421;&#x433;&#x440;&#x443;&#x43F;&#x43F;&#x438;&#x440;&#x43E;&#x432;&#x430;&#x442;&#x44C; 8233" transform="translate(0 0)"><path id="&#x41A;&#x43E;&#x43D;&#x442;&#x443;&#x440;_6062" data-name="&#x41A;&#x43E;&#x43D;&#x442;&#x443;&#x440; 6062" d="M66.822,56a.822.822,0,1,0,.822.822A.822.822,0,0,0,66.822,56Z" transform="translate(-66 -56)"></path></g></g><g id="&#x421;&#x433;&#x440;&#x443;&#x43F;&#x43F;&#x438;&#x440;&#x43E;&#x432;&#x430;&#x442;&#x44C;_8236" data-name="&#x421;&#x433;&#x440;&#x443;&#x43F;&#x43F;&#x438;&#x440;&#x43E;&#x432;&#x430;&#x442;&#x44C; 8236" transform="translate(0 16)"><g id="&#x421;&#x433;&#x440;&#x443;&#x43F;&#x43F;&#x438;&#x440;&#x43E;&#x432;&#x430;&#x442;&#x44C;_8235" data-name="&#x421;&#x433;&#x440;&#x443;&#x43F;&#x43F;&#x438;&#x440;&#x43E;&#x432;&#x430;&#x442;&#x44C; 8235" transform="translate(0 0)"><path id="&#x41A;&#x43E;&#x43D;&#x442;&#x443;&#x440;_6063" data-name="&#x41A;&#x43E;&#x43D;&#x442;&#x443;&#x440; 6063" d="M39.6,16H2.465A2.468,2.468,0,0,0,0,18.465V52.971a2.468,2.468,0,0,0,2.465,2.465H39.6a2.468,2.468,0,0,0,2.465-2.465V18.465A2.468,2.468,0,0,0,39.6,16Zm.822,36.971a.823.823,0,0,1-.822.822H2.465a.823.823,0,0,1-.822-.822V24.216H40.421Zm0-30.4H1.643V18.465a.823.823,0,0,1,.822-.822H39.6a.823.823,0,0,1,.822.822Z" transform="translate(0 -16)"></path></g></g><g id="&#x421;&#x433;&#x440;&#x443;&#x43F;&#x43F;&#x438;&#x440;&#x43E;&#x432;&#x430;&#x442;&#x44C;_8238" data-name="&#x421;&#x433;&#x440;&#x443;&#x43F;&#x43F;&#x438;&#x440;&#x43E;&#x432;&#x430;&#x442;&#x44C; 8238" transform="translate(28.426 19.286)"><g id="&#x421;&#x433;&#x440;&#x443;&#x43F;&#x43F;&#x438;&#x440;&#x43E;&#x432;&#x430;&#x442;&#x44C;_8237" data-name="&#x421;&#x433;&#x440;&#x443;&#x43F;&#x43F;&#x438;&#x440;&#x43E;&#x432;&#x430;&#x442;&#x44C; 8237" transform="translate(0 0)"><path id="&#x41A;&#x43E;&#x43D;&#x442;&#x443;&#x440;_6064" data-name="&#x41A;&#x43E;&#x43D;&#x442;&#x443;&#x440; 6064" d="M353.887,56h-7.065a.822.822,0,0,0,0,1.643h7.065a.822.822,0,1,0,0-1.643Z" transform="translate(-346 -56)"></path></g></g><g id="&#x421;&#x433;&#x440;&#x443;&#x43F;&#x43F;&#x438;&#x440;&#x43E;&#x432;&#x430;&#x442;&#x44C;_8240" data-name="&#x421;&#x433;&#x440;&#x443;&#x43F;&#x43F;&#x438;&#x440;&#x43E;&#x432;&#x430;&#x442;&#x44C; 8240" transform="translate(7.065 32.432)"><g id="&#x421;&#x433;&#x440;&#x443;&#x43F;&#x43F;&#x438;&#x440;&#x43E;&#x432;&#x430;&#x442;&#x44C;_8239" data-name="&#x421;&#x433;&#x440;&#x443;&#x43F;&#x43F;&#x438;&#x440;&#x43E;&#x432;&#x430;&#x442;&#x44C; 8239"><path id="&#x41A;&#x43E;&#x43D;&#x442;&#x443;&#x440;_6065" data-name="&#x41A;&#x43E;&#x43D;&#x442;&#x443;&#x440; 6065" d="M87.983,223.4l5.992-5.992a.822.822,0,0,0-1.162-1.162l-6.573,6.573a.822.822,0,0,0,0,1.162l6.573,6.573a.822.822,0,1,0,1.162-1.162Z" transform="translate(-85.999 -216.001)"></path></g></g><g id="&#x421;&#x433;&#x440;&#x443;&#x43F;&#x43F;&#x438;&#x440;&#x43E;&#x432;&#x430;&#x442;&#x44C;_8242" data-name="&#x421;&#x433;&#x440;&#x443;&#x43F;&#x43F;&#x438;&#x440;&#x43E;&#x432;&#x430;&#x442;&#x44C; 8242" transform="translate(26.783 32.432)"><g id="&#x421;&#x433;&#x440;&#x443;&#x43F;&#x43F;&#x438;&#x440;&#x43E;&#x432;&#x430;&#x442;&#x44C;_8241" data-name="&#x421;&#x433;&#x440;&#x443;&#x43F;&#x43F;&#x438;&#x440;&#x43E;&#x432;&#x430;&#x442;&#x44C; 8241"><path id="&#x41A;&#x43E;&#x43D;&#x442;&#x443;&#x440;_6066" data-name="&#x41A;&#x43E;&#x43D;&#x442;&#x443;&#x440; 6066" d="M333.974,222.814l-6.573-6.573a.822.822,0,1,0-1.162,1.162l5.992,5.992-5.992,5.992a.822.822,0,1,0,1.162,1.162l6.573-6.573A.822.822,0,0,0,333.974,222.814Z" transform="translate(-325.999 -216.001)"></path></g></g><g id="&#x421;&#x433;&#x440;&#x443;&#x43F;&#x43F;&#x438;&#x440;&#x43E;&#x432;&#x430;&#x442;&#x44C;_8244" data-name="&#x421;&#x433;&#x440;&#x443;&#x43F;&#x43F;&#x438;&#x440;&#x43E;&#x432;&#x430;&#x442;&#x44C; 8244" transform="translate(18.567 29.145)"><g id="&#x421;&#x433;&#x440;&#x443;&#x43F;&#x43F;&#x438;&#x440;&#x43E;&#x432;&#x430;&#x442;&#x44C;_8243" data-name="&#x421;&#x433;&#x440;&#x443;&#x43F;&#x43F;&#x438;&#x440;&#x43E;&#x432;&#x430;&#x442;&#x44C; 8243" transform="translate(0 0)"><path id="&#x41A;&#x43E;&#x43D;&#x442;&#x443;&#x440;_6067" data-name="&#x41A;&#x43E;&#x43D;&#x442;&#x443;&#x440; 6067" d="M230.241,176.01a.822.822,0,0,0-.945.675L226.009,196.4a.822.822,0,1,0,1.621.27l3.286-19.718A.822.822,0,0,0,230.241,176.01Z" transform="translate(-225.997 -175.999)"></path></g></g></g></svg>