<svg xmlns="http://www.w3.org/2000/svg" id="Page-1" width="45.678" height="45.678" viewBox="0 0 45.678 45.678"><g id="_024---New-Artboard" data-name="024---New-Artboard"><path id="Shape" d="M42.633,5.329H31.213a2.284,2.284,0,0,0-2.284-2.284H26.645V2.284A2.284,2.284,0,0,0,24.361,0H21.316a2.284,2.284,0,0,0-2.284,2.284v.761H16.749a2.284,2.284,0,0,0-2.284,2.284H3.045A3.045,3.045,0,0,0,0,8.374v23.6A3.045,3.045,0,0,0,3.045,35.02H5.329V37.3a2.284,2.284,0,0,0,2.284,2.284h6.514l-1.127,3a2.284,2.284,0,0,0,2.138,3.086h2.077A2.3,2.3,0,0,0,19.354,44.2l1.728-4.608H24.6L26.323,44.2a2.3,2.3,0,0,0,2.138,1.482h2.077a2.284,2.284,0,0,0,2.138-3.086l-1.127-3h6.514A2.284,2.284,0,0,0,40.349,37.3V35.02h2.284a3.045,3.045,0,0,0,3.045-3.045V8.374a3.045,3.045,0,0,0-3.045-3.045ZM20.555,2.284a.761.761,0,0,1,.761-.761h3.045a.761.761,0,0,1,.761.761v.761H20.555ZM15.987,5.329a.761.761,0,0,1,.761-.761H28.929a.761.761,0,0,1,.761.761V9.136a.761.761,0,0,1-.761.761H16.749a.761.761,0,0,1-.761-.761Zm1.942,38.332a.767.767,0,0,1-.713.494H15.139a.761.761,0,0,1-.713-1.029l1.327-3.539h3.7Zm13.323-.533a.761.761,0,0,1-.713,1.027H28.462a.761.761,0,0,1-.713-.494l-1.528-4.074h3.7ZM38.826,37.3a.761.761,0,0,1-.761.761H7.613a.761.761,0,0,1-.761-.761V35.02H38.826Zm5.329-5.329A1.523,1.523,0,0,1,42.633,33.5H3.045a1.523,1.523,0,0,1-1.523-1.523V8.374A1.523,1.523,0,0,1,3.045,6.852H14.465V9.136a2.284,2.284,0,0,0,2.284,2.284H28.929a2.284,2.284,0,0,0,2.284-2.284V6.852H42.633a1.523,1.523,0,0,1,1.523,1.523Z"></path><path id="Shape-2" data-name="Shape" d="M42.065,11H34.452a.761.761,0,0,0,0,1.523h7.613V24.4c-2.757,3.077-8.831,1.123-8.9,1.1a.761.761,0,0,0-.962.963c1.186,3.558-2.473,6.09-3.3,6.611H5.523V12.523h7.613a.761.761,0,1,0,0-1.523H5.523A1.523,1.523,0,0,0,4,12.523V33.078A1.523,1.523,0,0,0,5.523,34.6h23.6c14.3,0,14.465-9.8,14.465-9.9V12.523A1.523,1.523,0,0,0,42.065,11ZM31.493,32.976a7.134,7.134,0,0,0,2.436-5.7c1.8.4,5.165.846,7.741-.615C40.887,28.91,38.537,32.345,31.493,32.976Z" transform="translate(-0.955 -2.626)"></path><path id="Shape-3" data-name="Shape" d="M10.523,19H9.761a.761.761,0,1,0,0,1.523h.761a.761.761,0,0,0,0-1.523Z" transform="translate(-2.148 -4.535)"></path><path id="Shape-4" data-name="Shape" d="M14,19.761a.761.761,0,0,0,.761.761h8.374a.761.761,0,0,0,0-1.523H14.761A.761.761,0,0,0,14,19.761Z" transform="translate(-3.342 -4.535)"></path><path id="Shape-5" data-name="Shape" d="M10.523,23H9.761a.761.761,0,1,0,0,1.523h.761a.761.761,0,1,0,0-1.523Z" transform="translate(-2.148 -5.49)"></path><path id="Shape-6" data-name="Shape" d="M23.136,23H14.761a.761.761,0,1,0,0,1.523h8.374a.761.761,0,0,0,0-1.523Z" transform="translate(-3.342 -5.49)"></path><path id="Shape-7" data-name="Shape" d="M10.523,27H9.761a.761.761,0,1,0,0,1.523h.761a.761.761,0,1,0,0-1.523Z" transform="translate(-2.148 -6.445)"></path><path id="Shape-8" data-name="Shape" d="M23.136,27H14.761a.761.761,0,1,0,0,1.523h8.374a.761.761,0,0,0,0-1.523Z" transform="translate(-3.342 -6.445)"></path></g></svg>