<svg xmlns="http://www.w3.org/2000/svg" width="47.385" height="47.385" viewBox="0 0 47.385 47.385"><g id="target" transform="translate(1 0)"><path id="&#x41A;&#x43E;&#x43D;&#x442;&#x443;&#x440;_6092" data-name="&#x41A;&#x43E;&#x43D;&#x442;&#x443;&#x440; 6092" d="M308.422,309.351a.925.925,0,1,1,0-1.851h0a.925.925,0,1,1,0,1.851Zm0,0" transform="translate(-284.73 -284.733)"></path><path id="&#x41A;&#x43E;&#x43D;&#x442;&#x443;&#x440;_6093" data-name="&#x41A;&#x43E;&#x43D;&#x442;&#x443;&#x440; 6093" d="M42.014,36.021a.927.927,0,0,0-.81-.258l-3.529.6-.918-.918a17.515,17.515,0,0,0,4.495-10.831h5.207a.925.925,0,0,0,0-1.851H41.252A17.609,17.609,0,0,0,24.618,6.132V.925a.925.925,0,0,0-1.851,0V6.132A17.609,17.609,0,0,0,6.132,22.767H.925a.925.925,0,1,0,0,1.851H6.132A17.609,17.609,0,0,0,22.767,41.252v5.207a.925.925,0,0,0,1.851,0V41.252a17.509,17.509,0,0,0,10.831-4.495l.936.936-.459,3.684a.924.924,0,0,0,.263.768l4.9,4.895a.926.926,0,0,0,.654.271.907.907,0,0,0,.284-.046.924.924,0,0,0,.63-.732l.541-3.339,3.376-.542a.926.926,0,0,0,.507-1.568Zm-6.567-1.883-2.622-2.622a12.045,12.045,0,1,0-1.309,1.309l2.622,2.622A15.653,15.653,0,0,1,24.618,39.4v-.342a.925.925,0,1,0-1.851,0V39.4a15.754,15.754,0,0,1-14.78-14.78h.342a.925.925,0,1,0,0-1.851H7.987a15.754,15.754,0,0,1,14.78-14.78v.342a.925.925,0,0,0,1.851,0V7.987A15.754,15.754,0,0,1,39.4,22.767h-.342a.925.925,0,0,0,0,1.851H39.4a15.664,15.664,0,0,1-3.951,9.521ZM23.692,17.214A6.478,6.478,0,1,0,27.57,28.878L30.2,31.512a10.2,10.2,0,1,1,1.308-1.31L28.878,27.57a6.475,6.475,0,0,0-5.186-10.356Zm1.6,9.385.952.952a4.629,4.629,0,1,1,1.31-1.309L26.6,25.29A.925.925,0,1,0,25.29,26.6ZM42.24,41.473a.926.926,0,0,0-.766.766l-.359,2.214-3.3-3.3.374-3,2.851-.487,3.444,3.444Zm0,0" transform="translate(-1)"></path></g></svg>