<svg xmlns="http://www.w3.org/2000/svg" xmlns:xlink="http://www.w3.org/1999/xlink" id="Layer_1" x="0px" y="0px" viewBox="0 0 309.42 228.84" style="enable-background:new 0 0 309.42 228.84;" xml:space="preserve"><style type="text/css">	.st0{fill:#EDF7F9;}	.st1{fill:#BCDCDB;}	.st2{fill:#42C7C2;}	.st3{fill:#E4F3F5;}	.st4{fill:#606060;}	.st5{font-family:'ArialMTStd';}	.st6{font-size:13.3798px;}	.st7{font-size:6.8792px;}	.st8{fill:#E0E0E0;}	.st9{fill:#373536;}	.st10{fill:#E82134;}	.st11{fill:#EF9D25;}	.st12{fill:#00D4C5;}	.st13{fill:#DFE1DE;}	.st14{fill:#96A9A9;}	.st15{clip-path:url(#SVGID_2_);}	.st16{fill:#FFFFFF;}	.st17{fill:#E1E1E1;}	.st18{fill:#A245EB;}	.st19{fill:#A435F0;}	.st20{fill:#564230;}	.st21{fill:#4D5282;}	.st22{fill:#585B92;}	.st23{fill:#EE436E;}	.st24{fill:#FFC7AE;}	.st25{fill:#563839;}	.st26{fill:#FFAE85;}	.st27{fill:#BE6D5C;}	.st28{fill:#FFF9D9;}	.st29{fill:#C4BEA9;}	.st30{fill:#ADA895;}	.st31{fill:#020D32;}	.st32{fill:#50BFC5;}	.st33{fill:#0A85C9;}	.st34{fill:#0E709B;}	.st35{fill:#EADEDC;}	.st36{fill:#F5EBE9;}	.st37{fill:#39AAAA;}	.st38{fill:#E0E8EA;}	.st39{fill:#A146EB;}	.st40{fill:#FFFFFD;}	.st41{fill:#CFEEEF;}	.st42{fill:#E35351;}	.st43{fill:#288DD5;}	.st44{fill:#A0564A;}	.st45{fill:#748780;}	.st46{fill:#AD7264;}	.st47{fill:#9B6459;}	.st48{fill:#CD9A79;}	.st49{fill:#566B62;}	.st50{fill:#A2DADF;}</style><g>	<rect x="82.27" y="86.21" class="st0" width="70.26" height="47.85"></rect>	<g>		<path class="st1" d="M260.3,29.48c-0.2,0-0.4,0.01-0.6,0.02l0.56,21.92l-20.09-8.27c-0.98,2.48-1.53,5.17-1.53,8   c0,11.96,9.7,21.66,21.66,21.66c11.96,0,21.66-9.7,21.66-21.66S272.26,29.48,260.3,29.48z"></path>		<path class="st2" d="M259.7,29.5c-8.88,0.24-16.42,5.82-19.53,13.65l20.59,8.69L259.7,29.5z"></path>	</g>	<g>		<rect x="81.37" y="45.59" class="st3" width="138.42" height="28.03"></rect>		<text transform="matrix(1 0 0 1 168.2432 64.6456)" class="st4 st5 st6">63%</text>		<text transform="matrix(1 0 0 1 86.8362 58.3082)"><tspan x="0" y="0" class="st4 st5 st7">Organization</tspan><tspan x="0" y="7" class="st4 st5 st7">Adoption</tspan></text>	</g>	<g>		<rect x="80.25" y="6.23" class="st8" width="213.8" height="12.58"></rect>		<path class="st9" d="M291.98,0H84.43c-5.35,0-9.69,4.34-9.69,9.69v148.03c0,5.35,4.34,9.69,9.69,9.69h207.55   c5.35,0,9.69-4.34,9.69-9.69V9.69C301.68,4.34,297.34,0,291.98,0z M293.02,157.68H83.39V8.85h209.63V157.68z"></path>		<g>			<circle class="st10" cx="90.68" cy="14.18" r="1.88"></circle>			<circle class="st11" cx="99.16" cy="14.18" r="1.88"></circle>			<circle class="st12" cx="107.65" cy="14.18" r="1.88"></circle>		</g>	</g>	<g>		<g>			<g>				<path class="st13" d="M270.67,175.24H138.04c-2.37,0-4.55,1.3-5.68,3.38l-19.11,35.33H295.4l-19.05-35.32     C275.22,176.54,273.04,175.24,270.67,175.24z"></path>				<rect x="113.27" y="213.72" class="st9" width="181.85" height="5.1"></rect>			</g>			<polygon class="st14" points="186.35,199.7 180.16,212.09 228.84,212.09 222.65,199.82    "></polygon>			<g>				<defs>					<path id="SVGID_1_" d="M139.45,181.54l-5.29,13.48c-0.38,0.97,0.33,2.02,1.38,2.02h140.48c1.16,0,1.87-1.27,1.26-2.26      l-8.16-13.23c-0.27-0.44-0.74-0.7-1.26-0.7l-127.03-0.25C140.22,180.6,139.67,180.98,139.45,181.54z"></path>				</defs>				<clipPath id="SVGID_2_">					<use xlink:href="#SVGID_1_" style="overflow:visible;"></use>				</clipPath>				<g class="st15">					<rect x="127.8" y="195.06" class="st9" width="154.41" height="2.11"></rect>					<rect x="127.8" y="191.52" class="st9" width="154.41" height="2.11"></rect>					<rect x="127.8" y="187.98" class="st9" width="154.41" height="2.11"></rect>					<rect x="127.8" y="184.44" class="st9" width="154.41" height="2.11"></rect>					<rect x="127.8" y="180.9" class="st9" width="154.41" height="2.11"></rect>				</g>			</g>		</g>		<g>			<path class="st9" d="M268.77,174.56H139.94c-3.82,0-6.92-3.1-6.92-6.92V91.09c0-3.82,3.1-6.92,6.92-6.92h128.83    c3.82,0,6.92,3.1,6.92,6.92v76.55C275.69,171.46,272.59,174.56,268.77,174.56z"></path>			<g>				<rect x="138.59" y="94.05" class="st16" width="131.53" height="75.95"></rect>				<rect x="138.59" y="88.73" class="st17" width="131.53" height="5.32"></rect>			</g>			<g>				<path class="st18" d="M232.52,147.2h-56.34c-3.21,0-5.8-2.6-5.8-5.8v-25.9c0-3.21,2.6-5.8,5.8-5.8h56.34c3.21,0,5.8,2.6,5.8,5.8     v25.9C238.33,144.6,235.73,147.2,232.52,147.2z"></path>				<polygon class="st16" points="214.44,128.44 196.44,118.05 196.44,138.84     "></polygon>			</g>			<g>				<circle class="st10" cx="142.13" cy="91.55" r="0.88"></circle>				<circle class="st11" cx="146.12" cy="91.55" r="0.88"></circle>				<circle class="st12" cx="150.11" cy="91.55" r="0.88"></circle>			</g>			<polyline class="st9" points="171.99,173.01 169.92,177.39 238.79,177.39 235.56,171.75    "></polyline>		</g>	</g>	<g>		<g>			<path class="st19" d="M96.38,29.08l-3.24-1.87l-3.23,1.87v-1.87l3.23-1.87l3.24,1.87V29.08L96.38,29.08z"></path>			<path d="M89.9,30.66h1.7v4.12c0,1.06,0.79,1.58,1.54,1.58s1.54-0.53,1.54-1.6v-4.11h1.7v4.22c0,0.98-0.31,1.74-0.92,2.26    c-0.61,0.52-1.39,0.77-2.33,0.77c-0.94,0-1.71-0.25-2.31-0.77c-0.6-0.52-0.91-1.25-0.91-2.21C89.9,34.92,89.9,30.66,89.9,30.66z     M111.04,35.78c-0.51,0.46-1.1,0.68-1.76,0.68c-1.21,0-2.03-0.69-2.13-1.77h5.48c0,0,0.04-0.35,0.04-0.67    c0-1.01-0.32-1.85-0.98-2.53c-0.65-0.69-1.49-1.02-2.51-1.02c-1.08,0-1.96,0.34-2.66,1.02c-0.69,0.69-1.04,1.58-1.04,2.71v0.05    c0,1.11,0.35,1.99,1.04,2.65c0.69,0.66,1.6,1,2.71,1c1.29,0,2.31-0.51,3.08-1.39C112.3,36.5,111.04,35.78,111.04,35.78z     M107.82,32.34c0.38-0.3,0.84-0.45,1.36-0.45c0.49,0,0.9,0.15,1.25,0.46c0.34,0.28,0.51,0.63,0.53,1.02h-3.76    C107.24,32.97,107.45,32.62,107.82,32.34L107.82,32.34z M128.11,38.84c-0.69,1.62-1.41,2.18-2.52,2.18h-0.77v-1.51h0.62    c0.38,0,0.73-0.15,1.07-0.92l0.34-0.78l-2.9-7.16h1.72l2.06,5.16l2.12-5.16h1.73L128.11,38.84L128.11,38.84z M102.98,27.95v3.35    c-0.55-0.5-1.42-0.79-2.26-0.79c-1,0-1.84,0.35-2.52,1.06c-0.67,0.7-1.01,1.57-1.01,2.62s0.34,1.92,1.01,2.63    c0.69,0.7,1.52,1.05,2.52,1.05c1.15,0,1.87-0.45,2.26-0.81v0.65h1.68v-9.77L102.98,27.95L102.98,27.95z M102.47,35.73    c-0.41,0.41-0.92,0.61-1.52,0.61c-0.6,0-1.1-0.21-1.5-0.61c-0.39-0.41-0.59-0.92-0.59-1.54c0-0.61,0.2-1.14,0.59-1.54    c0.41-0.41,0.9-0.61,1.5-0.61c0.6,0,1.12,0.21,1.52,0.61c0.42,0.41,0.63,0.92,0.63,1.54S102.89,35.32,102.47,35.73z     M121.34,30.52c-1.28,0-1.94,0.53-2.4,1.04c-0.18-0.35-0.69-1.04-1.89-1.04c-1.01,0-1.61,0.51-1.91,0.88v-0.73h-1.67v7.06h1.67    v-4.07c0-0.95,0.59-1.64,1.37-1.64c0.8,0,1.26,0.6,1.26,1.57v4.13h1.67v-4.07c0-0.96,0.57-1.64,1.4-1.64    c0.8,0,1.26,0.6,1.26,1.57v4.13h1.68v-4.37C123.79,31.51,122.8,30.52,121.34,30.52L121.34,30.52z"></path>		</g>		<g>			<path class="st19" d="M135.24,28.48v3.92h0.03c0.09-0.25,0.21-0.46,0.38-0.65c0.16-0.19,0.35-0.34,0.56-0.47s0.44-0.22,0.69-0.28    c0.25-0.06,0.5-0.09,0.74-0.09c0.52,0,0.97,0.1,1.36,0.29c0.38,0.19,0.7,0.46,0.96,0.79s0.45,0.71,0.57,1.15    c0.12,0.44,0.19,0.9,0.19,1.38s-0.06,0.95-0.19,1.38c-0.12,0.44-0.31,0.82-0.57,1.15s-0.58,0.59-0.96,0.78    c-0.38,0.19-0.84,0.28-1.36,0.28c-0.56,0-1.05-0.13-1.49-0.38c-0.44-0.26-0.75-0.62-0.95-1.1h-0.03v1.3h-0.77v-9.45H135.24z     M139.75,33.47c-0.08-0.35-0.22-0.66-0.4-0.93c-0.18-0.27-0.41-0.5-0.69-0.67c-0.28-0.17-0.62-0.26-1.02-0.26    c-0.44,0-0.81,0.09-1.12,0.26c-0.3,0.17-0.55,0.4-0.74,0.67c-0.19,0.27-0.33,0.58-0.41,0.93c-0.08,0.35-0.12,0.7-0.12,1.05    s0.04,0.7,0.12,1.05s0.22,0.66,0.41,0.93c0.19,0.27,0.44,0.5,0.74,0.67c0.3,0.17,0.68,0.26,1.12,0.26c0.4,0,0.74-0.09,1.02-0.26    c0.28-0.17,0.51-0.4,0.69-0.67c0.18-0.27,0.31-0.58,0.4-0.93s0.13-0.7,0.13-1.05S139.83,33.82,139.75,33.47z"></path>			<path class="st19" d="M146.51,37.94v-1.23h-0.03c-0.22,0.46-0.54,0.81-0.96,1.05c-0.42,0.24-0.88,0.36-1.4,0.36    c-0.43,0-0.8-0.06-1.11-0.18s-0.55-0.29-0.74-0.51c-0.19-0.22-0.33-0.49-0.42-0.81c-0.09-0.32-0.13-0.68-0.13-1.09v-4.44h0.83    v4.45c0.02,0.62,0.16,1.09,0.43,1.4c0.27,0.32,0.73,0.48,1.4,0.48c0.36,0,0.67-0.08,0.93-0.23c0.26-0.15,0.47-0.36,0.64-0.62    c0.17-0.26,0.29-0.55,0.37-0.88c0.08-0.33,0.12-0.67,0.12-1.01v-3.59h0.83v6.83H146.51z"></path>			<path class="st19" d="M152.52,32.44c-0.1-0.19-0.23-0.35-0.39-0.47s-0.35-0.21-0.56-0.27c-0.21-0.06-0.44-0.09-0.67-0.09    c-0.19,0-0.37,0.02-0.56,0.06c-0.19,0.04-0.36,0.11-0.52,0.2s-0.29,0.21-0.38,0.36c-0.1,0.15-0.15,0.34-0.15,0.56    c0,0.19,0.05,0.34,0.14,0.47c0.09,0.13,0.21,0.24,0.35,0.32s0.3,0.16,0.46,0.22c0.17,0.06,0.32,0.1,0.46,0.14l1.11,0.25    c0.24,0.04,0.47,0.1,0.71,0.19c0.23,0.09,0.44,0.21,0.62,0.36c0.18,0.15,0.33,0.34,0.44,0.56c0.11,0.22,0.17,0.48,0.17,0.78    c0,0.37-0.08,0.69-0.25,0.95c-0.17,0.26-0.38,0.47-0.64,0.64c-0.26,0.16-0.55,0.28-0.88,0.35c-0.33,0.07-0.65,0.11-0.97,0.11    c-0.8,0-1.46-0.19-1.95-0.57c-0.5-0.38-0.78-0.99-0.85-1.83h0.83c0.04,0.56,0.24,0.99,0.62,1.28c0.38,0.29,0.84,0.43,1.4,0.43    c0.2,0,0.41-0.02,0.63-0.07c0.22-0.04,0.42-0.12,0.6-0.23s0.34-0.24,0.46-0.4c0.12-0.16,0.18-0.36,0.18-0.6    c0-0.2-0.04-0.37-0.13-0.51c-0.08-0.14-0.2-0.25-0.34-0.34c-0.14-0.09-0.3-0.17-0.48-0.23c-0.18-0.06-0.36-0.11-0.55-0.16    l-1.07-0.24c-0.27-0.07-0.53-0.15-0.75-0.25c-0.23-0.09-0.43-0.21-0.6-0.34c-0.17-0.14-0.31-0.3-0.4-0.5    c-0.1-0.2-0.15-0.44-0.15-0.73c0-0.34,0.08-0.64,0.23-0.89c0.15-0.25,0.35-0.45,0.6-0.6c0.25-0.15,0.52-0.26,0.83-0.33    c0.3-0.07,0.61-0.11,0.91-0.11c0.34,0,0.66,0.04,0.96,0.13c0.29,0.09,0.56,0.23,0.78,0.41c0.22,0.19,0.4,0.42,0.54,0.69    c0.13,0.27,0.21,0.6,0.22,0.97h-0.83C152.67,32.85,152.62,32.63,152.52,32.44z"></path>			<path class="st19" d="M155.54,28.48v1.34h-0.83v-1.34H155.54z M155.54,31.11v6.83h-0.83v-6.83H155.54z"></path>			<path class="st19" d="M157.7,31.11v1.18h0.03c0.16-0.41,0.44-0.75,0.85-1s0.85-0.38,1.34-0.38c0.48,0,0.88,0.06,1.2,0.19    s0.58,0.3,0.77,0.52c0.19,0.23,0.33,0.5,0.41,0.83c0.08,0.33,0.12,0.69,0.12,1.1v4.4h-0.83v-4.26c0-0.29-0.03-0.56-0.08-0.81    c-0.05-0.25-0.15-0.47-0.28-0.66c-0.13-0.19-0.31-0.33-0.54-0.44c-0.22-0.11-0.5-0.16-0.84-0.16c-0.34,0-0.63,0.06-0.89,0.18    c-0.26,0.12-0.48,0.28-0.66,0.49c-0.18,0.21-0.32,0.45-0.42,0.74c-0.1,0.29-0.16,0.6-0.17,0.93v3.99h-0.83v-6.83H157.7z"></path>			<path class="st19" d="M164.34,35.68c0.08,0.32,0.22,0.61,0.4,0.87c0.19,0.26,0.42,0.47,0.7,0.64c0.28,0.17,0.62,0.25,1.02,0.25    c0.61,0,1.09-0.16,1.43-0.48c0.34-0.32,0.58-0.74,0.71-1.27h0.83c-0.18,0.78-0.5,1.38-0.97,1.8s-1.14,0.64-2.01,0.64    c-0.54,0-1-0.1-1.4-0.28c-0.39-0.19-0.71-0.45-0.96-0.78s-0.43-0.72-0.55-1.15c-0.12-0.44-0.18-0.9-0.18-1.38    c0-0.45,0.06-0.89,0.18-1.32c0.12-0.43,0.3-0.82,0.55-1.16s0.57-0.61,0.96-0.82c0.39-0.21,0.86-0.31,1.4-0.31    c0.55,0,1.01,0.11,1.4,0.33s0.7,0.51,0.95,0.87c0.24,0.36,0.42,0.77,0.52,1.23c0.11,0.46,0.15,0.93,0.13,1.41h-5.26    C164.21,35.05,164.25,35.36,164.34,35.68z M168.47,33.13c-0.1-0.29-0.25-0.55-0.43-0.77c-0.18-0.23-0.41-0.41-0.67-0.54    s-0.57-0.21-0.9-0.21c-0.34,0-0.65,0.07-0.91,0.21c-0.27,0.14-0.49,0.32-0.68,0.54s-0.33,0.49-0.44,0.78    c-0.11,0.3-0.18,0.6-0.22,0.91h4.42C168.62,33.73,168.57,33.42,168.47,33.13z"></path>			<path class="st19" d="M174.26,32.44c-0.1-0.19-0.23-0.35-0.39-0.47s-0.35-0.21-0.56-0.27c-0.21-0.06-0.44-0.09-0.67-0.09    c-0.19,0-0.37,0.02-0.56,0.06c-0.19,0.04-0.36,0.11-0.52,0.2s-0.29,0.21-0.38,0.36c-0.1,0.15-0.15,0.34-0.15,0.56    c0,0.19,0.05,0.34,0.14,0.47c0.09,0.13,0.21,0.24,0.35,0.32s0.3,0.16,0.46,0.22c0.17,0.06,0.32,0.1,0.46,0.14l1.11,0.25    c0.24,0.04,0.47,0.1,0.71,0.19c0.23,0.09,0.44,0.21,0.62,0.36c0.18,0.15,0.33,0.34,0.44,0.56c0.11,0.22,0.17,0.48,0.17,0.78    c0,0.37-0.08,0.69-0.25,0.95c-0.17,0.26-0.38,0.47-0.64,0.64c-0.26,0.16-0.55,0.28-0.88,0.35c-0.33,0.07-0.65,0.11-0.97,0.11    c-0.8,0-1.46-0.19-1.95-0.57c-0.5-0.38-0.78-0.99-0.85-1.83h0.83c0.04,0.56,0.24,0.99,0.62,1.28c0.38,0.29,0.84,0.43,1.4,0.43    c0.2,0,0.41-0.02,0.63-0.07c0.22-0.04,0.42-0.12,0.6-0.23s0.34-0.24,0.46-0.4c0.12-0.16,0.18-0.36,0.18-0.6    c0-0.2-0.04-0.37-0.13-0.51c-0.08-0.14-0.2-0.25-0.34-0.34c-0.14-0.09-0.3-0.17-0.48-0.23c-0.18-0.06-0.36-0.11-0.55-0.16    l-1.07-0.24c-0.27-0.07-0.53-0.15-0.75-0.25c-0.23-0.09-0.43-0.21-0.6-0.34c-0.17-0.14-0.31-0.3-0.4-0.5    c-0.1-0.2-0.15-0.44-0.15-0.73c0-0.34,0.08-0.64,0.23-0.89c0.15-0.25,0.35-0.45,0.6-0.6c0.25-0.15,0.52-0.26,0.83-0.33    c0.3-0.07,0.61-0.11,0.91-0.11c0.34,0,0.66,0.04,0.96,0.13c0.29,0.09,0.56,0.23,0.78,0.41c0.22,0.19,0.4,0.42,0.54,0.69    c0.13,0.27,0.21,0.6,0.22,0.97h-0.83C174.41,32.85,174.36,32.63,174.26,32.44z"></path>			<path class="st19" d="M180.36,32.44c-0.1-0.19-0.23-0.35-0.39-0.47s-0.35-0.21-0.56-0.27c-0.21-0.06-0.44-0.09-0.67-0.09    c-0.19,0-0.37,0.02-0.56,0.06c-0.19,0.04-0.36,0.11-0.52,0.2s-0.29,0.21-0.38,0.36c-0.1,0.15-0.15,0.34-0.15,0.56    c0,0.19,0.05,0.34,0.14,0.47c0.09,0.13,0.21,0.24,0.35,0.32s0.3,0.16,0.46,0.22c0.17,0.06,0.32,0.1,0.46,0.14l1.11,0.25    c0.24,0.04,0.47,0.1,0.71,0.19c0.23,0.09,0.44,0.21,0.62,0.36c0.18,0.15,0.33,0.34,0.44,0.56c0.11,0.22,0.17,0.48,0.17,0.78    c0,0.37-0.08,0.69-0.25,0.95c-0.17,0.26-0.38,0.47-0.64,0.64c-0.26,0.16-0.55,0.28-0.88,0.35c-0.33,0.07-0.65,0.11-0.97,0.11    c-0.8,0-1.46-0.19-1.95-0.57c-0.5-0.38-0.78-0.99-0.85-1.83h0.83c0.04,0.56,0.24,0.99,0.62,1.28c0.38,0.29,0.84,0.43,1.4,0.43    c0.2,0,0.41-0.02,0.63-0.07c0.22-0.04,0.42-0.12,0.6-0.23s0.34-0.24,0.46-0.4c0.12-0.16,0.18-0.36,0.18-0.6    c0-0.2-0.04-0.37-0.13-0.51c-0.08-0.14-0.2-0.25-0.34-0.34c-0.14-0.09-0.3-0.17-0.48-0.23c-0.18-0.06-0.36-0.11-0.55-0.16    l-1.07-0.24c-0.27-0.07-0.53-0.15-0.75-0.25c-0.23-0.09-0.43-0.21-0.6-0.34c-0.17-0.14-0.31-0.3-0.4-0.5    c-0.1-0.2-0.15-0.44-0.15-0.73c0-0.34,0.08-0.64,0.23-0.89c0.15-0.25,0.35-0.45,0.6-0.6c0.25-0.15,0.52-0.26,0.83-0.33    c0.3-0.07,0.61-0.11,0.91-0.11c0.34,0,0.66,0.04,0.96,0.13c0.29,0.09,0.56,0.23,0.78,0.41c0.22,0.19,0.4,0.42,0.54,0.69    c0.13,0.27,0.21,0.6,0.22,0.97h-0.83C180.51,32.85,180.46,32.63,180.36,32.44z"></path>		</g>	</g>	<g>		<polygon class="st20" points="296.58,173.22 301.13,184.6 300.45,184.6 295.33,172.99   "></polygon>		<polygon class="st20" points="292.29,170.28 296.84,181.65 296.16,181.65 291.04,170.05   "></polygon>		<polygon class="st20" points="278.24,171.21 273.69,182.58 274.37,182.58 279.49,170.97   "></polygon>		<path class="st21" d="M285.81,148.25c0,0-7.64-0.74-9.77,0c-2.13,0.74,3.27,17.82,3.27,17.82l6.5,1.55l7.64,0.98   c0,0-1.27-8.83-2.21-11.85C290.3,153.73,290.14,149.23,285.81,148.25z"></path>		<path class="st22" d="M272.92,148.78c1.77-0.8,4.88-0.99,7.15-0.85c-1.65-0.02-3.23,0.05-4.02,0.32   c-2.13,0.74,3.27,17.82,3.27,17.82l6.5,1.55l4.38,0.56c0.09,0.59,0.14,0.95,0.14,0.95l-7.64-0.98l-6.5-1.55   C276.19,166.6,270.87,149.71,272.92,148.78z"></path>		<path class="st22" d="M295.16,167.98c0,0-5.54,0.16-8.16-0.44c-2.63-0.6-3.66-2.13-5.24-4.99c-1.58-2.86-4.2-1.39-3.87,1.23   c0.33,2.62,1.85,8.06,4.25,9.21c2.4,1.14,13.79,0.49,16.13,0c2.34-0.49,3.6-6.7,2.4-9.21c-1.2-2.51-3.76-1.85-4.3,0.33   C295.82,166.29,296.47,167.27,295.16,167.98z"></path>		<path class="st21" d="M274.62,160.73c0.15-0.23,0.44-0.38,0.75-0.48c0.6-0.2,1.26-0.19,1.87-0.02l2.82,0.81   c-1.25-0.28-2.39,0.96-2.17,2.74c0.33,2.62,1.85,8.06,4.25,9.21c0,0-3.38-0.44-5.23-1.69   C275.06,170.05,274.18,161.38,274.62,160.73z"></path>		<path class="st23" d="M287.15,150.05l1.23-0.08c0,0,1.76,2.41,1.92,3.76c0.16,1.35-0.53,2.04-0.53,2.04l-0.08,3.72   c0,0,0.12,0.69-0.53,1.1c-0.65,0.41-1.63,1.23-2.78,1.19c-1.14-0.04-2.89-0.86-2.89-0.86s0.72-1.88,0.68-3.68   c-0.04-1.8-0.16-2.45-0.16-2.45s0.53-0.74,0.12-2.37c-0.29-1.31-0.94-1.47-0.94-1.47l1.63-1.06L287.15,150.05z"></path>		<path class="st24" d="M290.3,153.73c-0.16-1.35-1.92-3.76-1.92-3.76s1.88-0.12,2.74,0.98c0.86,1.1,3.15,4.17,3.15,4.17l3.27-4.41   c0,0,0.9,0.41,0.98,1.84c0,0-3.02,4.86-3.64,5.6c-0.6,0.72-2.87-1.01-4.6-3.46C290.32,154.41,290.34,154.09,290.3,153.73z"></path>		<path class="st24" d="M290.52,141.85c0,0,0.25,2.51,0.25,4.27c0,1.76-0.96,2.91-3.62,2.62v1.31c0,0,0.37,1.02-0.49,1.06   c-0.86,0.04-1.84-1.23-1.84-1.23v-2.21c0,0-1.06-0.45-1.31-2c-0.25-1.55,1.39-1.8,1.76,0.37h0.53c0,0-0.98-3.23,1.06-4.74   C288.91,139.79,290.47,141.25,290.52,141.85z"></path>		<path class="st25" d="M285.15,139.1c0,0,2.08-0.78,4.01,0.29c1.92,1.06,1.46,3.54,1.46,3.54c-0.05-0.64-0.09-1.07-0.09-1.07   c-0.06-0.6-1.61-2.06-3.65-0.55c-2.04,1.51-1.06,4.74-1.06,4.74h-0.53c-0.37-2.17-2-1.92-1.76-0.37c0.05,0.31,0.13,0.57,0.23,0.8   c-0.27-0.3-0.53-0.7-0.76-1.25C281.92,142.69,282.62,139.95,285.15,139.1z"></path>		<g>			<path class="st25" d="M282.74,137.71c0,0,2.08-0.12,2.41,1.39c-2.53,0.86-3.23,3.6-2.17,6.13c0.23,0.55,0.49,0.95,0.76,1.25v0    c0.06,0.14,0.13,0.27,0.2,0.38v0c0,0,0.21,2.17-1.44,2.79c-1.28,0.49-1.81,0.29-1.81,0.29s0.78-0.93,0.78-2.65    c0-1.72-1.55-2.91-1.63-5.36C279.76,139.46,280.49,137.91,282.74,137.71z"></path>		</g>		<path class="st26" d="M287.15,148.74c0,0-0.78-0.25-1.35-0.49c0,0,0.69,0.86,1.33,1.14L287.15,148.74z"></path>		<path class="st27" d="M301.07,146.17l-0.89,7.64l-1.17,1.59c0,0,0,0.83-0.78,1.09l-3.66,1.08l0.76-8.17l3.19,0.49   c0,0,0.96,0.08,0.77-0.49L301.07,146.17z"></path>		<path class="st28" d="M294.65,148.33l3.74,0.57l1.49-2.88l1.19,0.14l-1.78,3.23c0.19,0.57-0.77,0.49-0.77,0.49l-3.19-0.49   l-0.76,8.17l-0.63-0.82L294.65,148.33z"></path>		<path class="st29" d="M286.38,161.78c1.14,0.04,2.13-0.78,2.78-1.19c0.26-0.16,0.39-0.36,0.46-0.55l0,0c0,0-0.01,0.96,2.93,1.74   c2.94,0.78,6.17,1.27,7.07,2.7c0.9,1.43,0.04,6.01-0.53,8.95c-0.57,2.94-1.27,5.07-1.27,5.07s-0.78,0.78-2,0   c0,0-0.04-2.7-0.04-4.21c0-1.51,0.12-5.76,0.12-5.76s-5.39-0.33-8.17-1.23c-2.78-0.9-4.09-2.25-4.33-3.88s0.1-2.49,0.1-2.49   S285.23,161.74,286.38,161.78z"></path>		<path class="st30" d="M299.62,164.47c-0.9-1.43-4.13-1.92-7.07-2.7c-1.85-0.49-2.53-1.05-2.79-1.4l0,0c0,0,8.75,1.56,9.44,2.18   c0.69,0.61,4.99,14.18,4.99,14.18s-1,1.91-1.88,0.82c-0.18-0.22-1.66-3.03-2.96-5.52C299.87,169.2,300.39,165.69,299.62,164.47z"></path>		<path d="M295.81,179.86c0,0,0.59,1.37,1.1,2.39c0.51,1.02,1.24,2.01,1.57,1.41c0.17-0.3-0.01-1.07-0.25-1.84   c-0.04-0.12-0.07-0.23-0.11-0.34l0,0c0,0,0,0,0.61,1.39s0.45,1.97,0.45,1.97c-0.31,1.2-1.45,0.5-2.02-0.24s-1.52-2.9-1.57-3.44   C295.54,180.62,295.81,179.86,295.81,179.86z"></path>		<path d="M305.22,181.13c0.82,0.33,2.13,1.17,2.72,0.87c0.48-0.24,0.09-0.76-0.6-1.36c0,0,0,0,0,0c0.32,0.26,1.72,1.42,1.72,1.42   s0.49,0.24,0.33,1.08c-0.16,0.84-1.33,0.52-2.97-0.35c-1.63-0.87-2.64-0.87-2.83-1.72s0-1.42,0-1.42   C303.85,180.54,304.4,180.81,305.22,181.13z"></path>		<path class="st24" d="M304.17,176.77c0.53,0.83,1.81,2.79,2.6,3.41c1.01,0.79,1.77,1.53,1.17,1.83c-0.6,0.3-1.91-0.54-2.72-0.87   s-1.36-0.6-1.63-1.47c-0.15-0.48-0.47-1.22-0.72-1.78C303.49,177.94,304.06,176.98,304.17,176.77z"></path>		<path class="st24" d="M297.65,178.62c-0.05,0.52-0.07,1.1-0.01,1.38c0.07,0.29,0.36,1.05,0.6,1.82c0.24,0.77,0.41,1.54,0.25,1.84   c-0.33,0.6-1.06-0.39-1.57-1.41c-0.51-1.02-1.1-2.39-1.1-2.39l0.24-1.23C296.82,179.01,297.38,178.79,297.65,178.62z"></path>		<polygon class="st20" points="282.57,173.22 278.02,184.6 278.7,184.6 283.82,172.99   "></polygon>		<path class="st24" d="M300.76,148.45c0,0,0.37,0.16,0.29,0.61c-0.08,0.45,0.18,0.78-0.14,1.06c-0.31,0.29,0.3,0.61-0.15,0.98   c-0.45,0.37-0.94,0.98-1.1,0.86c-0.16-0.12,0.29-0.86,0.29-0.86s-0.41,0.33-0.61,0.2c-0.2-0.12,0.69-1.43,0.69-1.43   s-0.55,0.37-0.72-0.16C299.13,149.19,300.76,148.45,300.76,148.45z"></path>		<path class="st24" d="M293.49,158.19c0,0,1.19-0.05,1.76-0.67c0.57-0.61,1.1-1.02,0.87-1.36c0,0,0.6-0.61,0.44-0.96   c-0.16-0.35-0.5-0.05-0.5-0.05s0.03-0.54-0.4-0.37c-0.42,0.18-1.73,1.16-1.73,1.16s0.07-0.48,0.05-0.95s-0.45-0.31-0.49-0.15   c-0.04,0.16-0.41,1.2-0.37,1.59c0.04,0.4-0.57,0.8-0.57,0.8l0.53,1.07L293.49,158.19z"></path>		<path class="st24" d="M283.19,150.95c0,0-1.92,0.57-2.25,2.04c-0.33,1.47,3.84,8.87,4.58,9.48c0.74,0.61,5.19-2.41,7.56-4.17   l-0.53-1.07c0,0-0.94,0.46-1.89,0.62c-0.94,0.16-3.91,0.9-3.91,0.9l-2.75-3.96C284.01,154.79,285.07,152.54,283.19,150.95z"></path>	</g>	<g>		<path class="st31" d="M236.01,204.81c0,0-1.42,0.68-1.42,2.9c0,2.23,0.41,4.19,0,5.88c-0.41,1.69-0.41,1.69-0.41,1.69   s1.15,1.49,2.9,1.22c1.76-0.27,6.42-1.49,6.42-1.49s4.26-0.74,5.67-2.77c0,0-1.15-2.77-2.23-5.2   C245.87,204.6,241.48,200.95,236.01,204.81z"></path>		<path class="st24" d="M235.74,207.03c0,0,0.14,1.28,0.61,2.9c0.47,1.62,1.15,6.15,3.11,5.88c1.96-0.27,2.77-0.81,2.77-0.81   l0.81,1.49c0,0,0.61-0.81,1.08-1.15l-1.15-3.04c0,0,0.81-1.42,0.54-3.31c-0.27-1.89-2.63-0.68-2.03,0.95   C241.48,209.94,238.1,209.87,235.74,207.03z"></path>		<path class="st32" d="M243.03,216.49c0,0-1.01,1.49-0.95,3.92c0.07,2.43,0.47,4.32,0.47,4.32s-1.89-0.68-3.65,0   c-1.76,0.68-3.18,0.34-3.18,0.34s-0.34,1.42,0.27,3.11c0,0,7.5,0.47,9.66,0c2.16-0.47,1.35-2.7,1.35-2.7s0.88,0.68,5.27,1.76   c4.39,1.08,5.61,1.7,8.17,1.16c2.57-0.55,2.57-0.55,2.57-0.55s-0.61-1.89-0.74-3.38c-0.14-1.49,0.81-4.66-0.14-5.27   c-0.95-0.61-1.89,0.2-5.61-1.01c-3.72-1.22-8.31-5-12.43-2.84L243.03,216.49z"></path>		<path class="st33" d="M281.27,218.2c-0.14-1.37-0.61-7.85-0.61-7.85s-2.23-0.68-2.84,0.34c0,0-1.01,4.26-1.01,5.81   c0,1.55,0.54,5.81,0.54,5.81s-1.42,0.2-3.65-1.28c-2.23-1.49-3.51-2.23-3.51-2.23s-3.92-1.66-7.86,0.58   c0.64,0.89-0.17,3.72-0.04,5.09c0.14,1.49,0.74,3.38,0.74,3.38s2.84,0.07,7.16,0c4.32-0.07,7.43,0.2,10.2-0.68   C283.16,226.29,281.4,219.56,281.27,218.2z"></path>		<path class="st34" d="M277.12,220.35c-0.15-1.33-0.31-3-0.31-3.85c0-1.55,1.01-5.81,1.01-5.81c-1.62-0.07-3.18,0.61-3.18,0.61   s-0.14,1.76,0.34,4.05C275.46,217.64,277.12,220.35,277.12,220.35z"></path>		<path class="st35" d="M274.65,211.29c0,0-0.68-1.35-0.9-1.88s-0.23-1.67,0.76-1.93c0.99-0.25,3.65-1.7,4.84-2.25   c1.19-0.56,1.39-0.96,1.8-0.58c0.41,0.38-0.61,2.15-1.27,2.89c-0.66,0.73-2.2,1.38-2.05,3.15   C277.82,210.68,276.03,210.49,274.65,211.29z"></path>		<path class="st36" d="M280.66,210.34c0,0-0.1-1.09,1.47-2.23c1.57-1.14,2.71-1.93,2.86-2.99c0.15-1.06-0.63-0.91-1.22-0.76   c-0.58,0.15-2.61,0.79-4.1,1.39c-1.49,0.61-2.56,0.76-2.48,1.65c0.08,0.89,0.63,3.28,0.63,3.28S278.08,209.69,280.66,210.34z"></path>		<polygon class="st26" points="242.22,215.01 243.09,214.52 242.49,215.49   "></polygon>		<path class="st37" d="M247.02,225.48c-0.15-0.68-0.2-1.37-0.22-2.06c-0.02-0.69-0.01-1.37,0.09-2.07c0.15,0.68,0.2,1.37,0.22,2.06   C247.12,224.1,247.12,224.79,247.02,225.48z"></path>		<path class="st37" d="M238.91,224.73c1.76-0.68,3.65,0,3.65,0s-0.17-0.8-0.31-2.02l-0.03-0.01c0,0-1.03-0.1-2.3,0.1   c-1.27,0.2-2.94,0.3-2.94,0.3s-0.76,0.79-0.73,2.03C236.82,225.18,237.8,225.16,238.91,224.73z"></path>		<path class="st26" d="M236.99,223.11c0,0,0.03-0.76-0.3-1.37c-0.33-0.61-1.27-1.17-1.27-1.17l-0.51,0.56c0,0,0.41,0.41,0.3,0.61   c-0.1,0.2-0.63-0.25-0.63-0.25l-0.68,0.9l1.14,2.16l0.7,0.52l0.52,0.07C236.25,225.14,236.25,223.86,236.99,223.11z"></path>		<polygon class="st21" points="223.18,221.36 226.02,216.3 229.02,212.9 236.66,220.4 233.9,223.64 233.24,228.1 232.81,228.84      "></polygon>		<polygon class="st28" points="226.32,216.53 224.14,220.81 233.24,228.1 233.9,223.64   "></polygon>		<polygon class="st28" points="229.44,213.03 226.32,216.53 233.9,223.64 236.86,220.17   "></polygon>		<path class="st24" d="M235.74,225.07l-0.7-0.52c0,0,0.1-0.73-0.1-1.14c-0.2-0.41-1.39-1.39-1.82-1.47   c-0.43-0.08-0.28,0.61-0.28,0.61l1.06,1.09l-0.46,3.34c0,0,1.2,0.66,2.4,0.64C235.84,227.62,235.5,226.27,235.74,225.07z"></path>	</g>	<g>		<path class="st22" d="M23.07,100.1c0,0-1.27,1.49-1.93,2.95c-0.66,1.46-3.06,8.74-3.01,9.98c0.05,1.24,0.9,6.97,5.69,7.11   c4.79,0.14,8.87-1.97,9.48-5.96c0.61-3.99-0.75-6.43-0.56-9.13c0.19-2.7,0.38-7.44-5.75-6.5C23.59,99.02,23.07,100.1,23.07,100.1z   "></path>		<g>			<g>				<g>					<path class="st38" d="M18.36,153.05c0,0,1.63-0.12,1.63-1.49c0-0.97,0-8.2,0-8.2s0.12-2.19-1.2-2.46h23.82l1.86,8.12      l-4.73,4.48L18.36,153.05z"></path>					<path class="st39" d="M90.41,153.56c0,0,6.79-6.47-0.82-13.03H18.54v0.69h19.77c0,0,4.02,0.95,4.02,5.95      c0,5.01-3.91,5.78-3.91,5.78H17.93v0.86h72.07L90.41,153.56z"></path>					<g>													<rect x="21.6" y="150.57" transform="matrix(-1 -1.224647e-16 1.224647e-16 -1 59.9574 301.3767)" class="st40" width="16.76" height="0.23"></rect>													<rect x="21.6" y="148.26" transform="matrix(-1 -1.224647e-16 1.224647e-16 -1 59.9574 296.7584)" class="st40" width="16.76" height="0.23"></rect>													<rect x="21.6" y="146" transform="matrix(-1 -1.224647e-16 1.224647e-16 -1 59.9574 292.2352)" class="st40" width="16.76" height="0.23"></rect>													<rect x="21.6" y="143.72" transform="matrix(-1 -1.224647e-16 1.224647e-16 -1 59.9574 287.6782)" class="st40" width="16.76" height="0.23"></rect>					</g>				</g>			</g>			<g>				<g>					<path class="st38" d="M104.66,119.73c0,0-2.28,0.21-2.28,2.49c0,1.63,0,13.67,0,13.67s-0.17,3.65,1.68,4.1H70.74l-2.6-13.55      l6.61-7.48L104.66,119.73z"></path>					<path class="st41" d="M3.9,118.88c0,0-9.5,10.8,1.15,21.74h99.35v-1.15H76.75c0,0-5.62-1.58-5.62-9.93s5.47-9.65,5.47-9.65      h28.65v-1.44H4.48L3.9,118.88z"></path>					<g>						<rect x="76.69" y="123.48" class="st40" width="23.44" height="0.39"></rect>						<rect x="76.69" y="127.33" class="st40" width="23.44" height="0.39"></rect>						<rect x="76.69" y="131.11" class="st40" width="23.44" height="0.39"></rect>						<rect x="76.69" y="134.91" class="st40" width="23.44" height="0.39"></rect>					</g>				</g>				<g>					<path class="st19" d="M24.06,126.02l-2.64-1.52l-2.64,1.52v-1.52l2.64-1.52l2.64,1.52V126.02L24.06,126.02z"></path>					<path d="M18.78,127.3h1.38v3.36c0,0.87,0.65,1.29,1.26,1.29s1.26-0.44,1.26-1.3v-3.35h1.38v3.44c0,0.8-0.25,1.41-0.75,1.84      s-1.13,0.63-1.9,0.63c-0.76,0-1.39-0.2-1.88-0.63s-0.74-1.02-0.74-1.8C18.78,130.77,18.78,127.3,18.78,127.3z M36.01,131.47      c-0.42,0.37-0.89,0.55-1.44,0.55c-0.99,0-1.66-0.56-1.73-1.44h4.46c0,0,0.03-0.29,0.03-0.55c0-0.82-0.26-1.51-0.8-2.07      c-0.53-0.56-1.21-0.83-2.04-0.83c-0.88,0-1.6,0.27-2.17,0.83c-0.56,0.56-0.84,1.29-0.84,2.21v0.04c0,0.9,0.29,1.62,0.84,2.16      c0.56,0.54,1.3,0.81,2.21,0.81c1.05,0,1.88-0.41,2.51-1.13C37.03,132.06,36.01,131.47,36.01,131.47z M33.38,128.67      c0.31-0.24,0.68-0.37,1.11-0.37c0.4,0,0.73,0.12,1.02,0.38c0.27,0.23,0.42,0.51,0.43,0.83h-3.07      C32.91,129.18,33.08,128.9,33.38,128.67L33.38,128.67z M49.91,133.97c-0.56,1.32-1.15,1.77-2.05,1.77h-0.62v-1.23h0.51      c0.31,0,0.6-0.12,0.87-0.75l0.27-0.63l-2.37-5.84h1.4l1.68,4.2l1.73-4.2h1.41L49.91,133.97L49.91,133.97z M29.44,125.09v2.73      c-0.45-0.4-1.16-0.65-1.84-0.65c-0.81,0-1.5,0.29-2.05,0.87c-0.55,0.57-0.82,1.28-0.82,2.14s0.27,1.57,0.82,2.15      c0.56,0.57,1.24,0.86,2.05,0.86c0.94,0,1.53-0.37,1.84-0.66v0.53h1.37v-7.96H29.44L29.44,125.09z M29.02,131.43      c-0.33,0.33-0.75,0.5-1.24,0.5c-0.49,0-0.89-0.17-1.22-0.5c-0.32-0.33-0.48-0.75-0.48-1.26c0-0.5,0.16-0.93,0.48-1.26      c0.33-0.33,0.73-0.5,1.22-0.5c0.49,0,0.91,0.17,1.24,0.5c0.34,0.33,0.52,0.75,0.52,1.26S29.37,131.1,29.02,131.43z       M44.4,127.18c-1.04,0-1.58,0.43-1.95,0.85c-0.15-0.29-0.56-0.85-1.54-0.85c-0.82,0-1.31,0.41-1.55,0.72v-0.6h-1.36v5.76h1.36      v-3.31c0-0.77,0.48-1.33,1.12-1.33c0.65,0,1.03,0.49,1.03,1.28v3.37h1.36v-3.31c0-0.79,0.47-1.33,1.14-1.33      c0.65,0,1.03,0.49,1.03,1.28v3.37h1.37v-3.56C46.4,127.99,45.59,127.18,44.4,127.18L44.4,127.18z"></path>				</g>			</g>			<g>				<g>					<path class="st38" d="M109.87,154.98c0,0-2.28,0.21-2.28,2.49c0,1.63,0,13.67,0,13.67s-0.17,3.65,1.68,4.1H75.95l-2.6-13.55      l6.61-7.48L109.87,154.98z"></path>					<path class="st41" d="M9.11,154.13c0,0-9.5,10.8,1.15,21.74h99.35v-1.15H81.96c0,0-5.62-1.58-5.62-9.93s5.47-9.65,5.47-9.65      h28.65v-1.44H9.69L9.11,154.13z"></path>					<g>						<rect x="81.9" y="158.73" class="st40" width="23.44" height="0.39"></rect>						<rect x="81.9" y="162.59" class="st40" width="23.44" height="0.39"></rect>						<rect x="81.9" y="166.36" class="st40" width="23.44" height="0.39"></rect>						<rect x="81.9" y="170.16" class="st40" width="23.44" height="0.39"></rect>					</g>				</g>				<g>					<path class="st19" d="M33.47,161.27l-2.64-1.52l-2.64,1.52v-1.52l2.64-1.52l2.64,1.52V161.27L33.47,161.27z"></path>					<path d="M28.19,162.55h1.38v3.36c0,0.87,0.65,1.29,1.26,1.29c0.61,0,1.26-0.44,1.26-1.3v-3.35h1.38v3.44      c0,0.8-0.25,1.41-0.75,1.84s-1.13,0.63-1.9,0.63c-0.76,0-1.39-0.2-1.88-0.63s-0.74-1.02-0.74-1.8      C28.19,166.02,28.19,162.55,28.19,162.55z M45.41,166.72c-0.42,0.37-0.89,0.55-1.44,0.55c-0.99,0-1.66-0.56-1.73-1.44h4.46      c0,0,0.03-0.29,0.03-0.55c0-0.82-0.26-1.51-0.8-2.07c-0.53-0.56-1.21-0.83-2.04-0.83c-0.88,0-1.6,0.27-2.17,0.83      c-0.56,0.56-0.84,1.29-0.84,2.21v0.04c0,0.9,0.29,1.62,0.84,2.16c0.56,0.54,1.3,0.81,2.21,0.81c1.05,0,1.88-0.41,2.51-1.13      C46.44,167.31,45.41,166.72,45.41,166.72z M42.79,163.92c0.31-0.24,0.68-0.37,1.11-0.37c0.4,0,0.73,0.12,1.02,0.38      c0.27,0.23,0.42,0.51,0.43,0.83h-3.07C42.32,164.43,42.49,164.15,42.79,163.92L42.79,163.92z M59.32,169.22      c-0.56,1.32-1.15,1.77-2.05,1.77h-0.62v-1.23h0.51c0.31,0,0.6-0.12,0.87-0.75l0.27-0.63l-2.37-5.84h1.4l1.68,4.2l1.73-4.2h1.41      L59.32,169.22L59.32,169.22z M38.85,160.34v2.73c-0.45-0.4-1.16-0.65-1.84-0.65c-0.81,0-1.5,0.29-2.05,0.87      c-0.55,0.57-0.82,1.28-0.82,2.14s0.27,1.57,0.82,2.15c0.56,0.57,1.24,0.86,2.05,0.86c0.94,0,1.53-0.37,1.84-0.66v0.53h1.37      v-7.96H38.85L38.85,160.34z M38.43,166.68c-0.33,0.33-0.75,0.5-1.24,0.5s-0.89-0.17-1.22-0.5c-0.32-0.33-0.48-0.75-0.48-1.26      c0-0.5,0.16-0.93,0.48-1.26c0.33-0.33,0.73-0.5,1.22-0.5c0.49,0,0.91,0.17,1.24,0.5c0.34,0.33,0.52,0.75,0.52,1.26      C38.95,165.93,38.78,166.35,38.43,166.68z M53.81,162.44c-1.04,0-1.58,0.43-1.95,0.85c-0.15-0.29-0.56-0.85-1.54-0.85      c-0.82,0-1.31,0.41-1.55,0.72v-0.6H47.4v5.76h1.36V165c0-0.77,0.48-1.33,1.12-1.33c0.65,0,1.03,0.49,1.03,1.28v3.37h1.36V165      c0-0.79,0.47-1.33,1.14-1.33c0.65,0,1.03,0.49,1.03,1.28v3.37h1.37v-3.56C55.8,163.24,55,162.44,53.81,162.44L53.81,162.44z"></path>				</g>			</g>		</g>		<g>			<path class="st31" d="M94.78,105.34c0,0,0.81,0.39,0.81,1.67c0,1.28-0.23,2.41,0,3.38c0.23,0.97,0.23,0.97,0.23,0.97    s-0.66,0.85-1.67,0.7c-1.01-0.16-3.69-0.85-3.69-0.85s-2.44-0.43-3.26-1.59c0,0,0.66-1.59,1.28-2.99    C89.11,105.22,91.63,103.13,94.78,105.34z"></path>			<path class="st24" d="M94.93,106.62c0,0-0.08,0.74-0.35,1.67c-0.27,0.93-0.66,3.53-1.78,3.38c-1.13-0.16-1.59-0.47-1.59-0.47    l-0.47,0.85c0,0-0.35-0.47-0.62-0.66l0.66-1.75c0,0-0.47-0.81-0.31-1.9s1.51-0.39,1.16,0.54    C91.63,108.29,93.57,108.25,94.93,106.62z"></path>			<path class="st42" d="M90.74,112.05c0,0,0.58,0.85,0.54,2.25c-0.04,1.4-0.27,2.48-0.27,2.48s1.09-0.39,2.09,0    c1.01,0.39,1.82,0.19,1.82,0.19s0.19,0.81-0.16,1.78c0,0-4.31,0.27-5.55,0c-1.24-0.27-0.78-1.55-0.78-1.55s-0.5,0.39-3.03,1.01    c-2.52,0.62-3.22,0.98-4.69,0.66c-1.47-0.31-1.47-0.31-1.47-0.31s0.35-1.09,0.43-1.94c0.08-0.85-0.47-2.68,0.08-3.03    c0.54-0.35,1.09,0.12,3.22-0.58c2.13-0.7,4.77-2.87,7.14-1.63L90.74,112.05z"></path>			<path class="st43" d="M68.78,113.03c0.08-0.78,0.35-4.51,0.35-4.51s1.28-0.39,1.63,0.19c0,0,0.58,2.44,0.58,3.34    c0,0.89-0.31,3.34-0.31,3.34s0.81,0.12,2.1-0.74c1.28-0.85,2.02-1.28,2.02-1.28s2.25-0.96,4.52,0.33    c-0.36,0.51,0.1,2.13,0.02,2.93c-0.08,0.85-0.43,1.94-0.43,1.94s-1.63,0.04-4.11,0c-2.48-0.04-4.27,0.12-5.86-0.39    C67.7,117.68,68.71,113.82,68.78,113.03z"></path>			<path class="st43" d="M71.17,114.27c0.08-0.76,0.18-1.72,0.18-2.21c0-0.89-0.58-3.34-0.58-3.34c0.93-0.04,1.82,0.35,1.82,0.35    s0.08,1.01-0.19,2.33C72.12,112.71,71.17,114.27,71.17,114.27z"></path>			<path class="st35" d="M72.59,109.06c0,0,0.39-0.78,0.52-1.08c0.13-0.31,0.13-0.96-0.44-1.11c-0.57-0.15-2.1-0.97-2.78-1.29    c-0.68-0.32-0.8-0.55-1.03-0.33c-0.23,0.22,0.35,1.24,0.73,1.66c0.38,0.42,1.27,0.8,1.18,1.81    C70.76,108.72,71.79,108.6,72.59,109.06z"></path>			<path class="st36" d="M69.13,108.52c0,0,0.06-0.63-0.84-1.28c-0.9-0.65-1.56-1.11-1.64-1.72c-0.09-0.61,0.36-0.52,0.7-0.44    c0.33,0.09,1.5,0.45,2.36,0.8c0.86,0.35,1.47,0.44,1.43,0.95s-0.36,1.88-0.36,1.88S70.62,108.14,69.13,108.52z"></path>			<polygon class="st26" points="91.21,111.2 90.71,110.92 91.06,111.48    "></polygon>			<path class="st44" d="M88.45,117.21c0.08-0.39,0.11-0.79,0.13-1.18c0.01-0.39,0.01-0.79-0.05-1.19    c-0.08,0.39-0.11,0.79-0.13,1.18C88.39,116.42,88.4,116.82,88.45,117.21z"></path>			<path class="st44" d="M93.11,116.79c-1.01-0.39-2.09,0-2.09,0s0.1-0.46,0.18-1.16l0.02-0.01c0,0,0.59-0.06,1.32,0.06    c0.73,0.12,1.69,0.17,1.69,0.17s0.43,0.45,0.42,1.16C94.31,117.04,93.75,117.03,93.11,116.79z"></path>			<path class="st26" d="M94.21,115.85c0,0-0.01-0.44,0.17-0.79c0.19-0.35,0.73-0.67,0.73-0.67l0.29,0.32c0,0-0.23,0.23-0.17,0.35    c0.06,0.12,0.36-0.15,0.36-0.15l0.39,0.52l-0.65,1.24l-0.4,0.3l-0.3,0.04C94.64,117.02,94.64,116.28,94.21,115.85z"></path>			<polygon class="st21" points="102.14,114.85 100.51,111.94 98.79,109.99 94.4,114.3 95.99,116.16 96.37,118.72 96.62,119.14        "></polygon>			<polygon class="st28" points="100.34,112.07 101.59,114.53 96.37,118.72 95.99,116.16    "></polygon>			<polygon class="st28" points="98.55,110.06 100.34,112.07 95.99,116.16 94.29,114.17    "></polygon>			<path class="st24" d="M94.93,116.98l0.4-0.3c0,0-0.06-0.42,0.06-0.65c0.12-0.23,0.8-0.8,1.05-0.84c0.25-0.04,0.16,0.35,0.16,0.35    l-0.61,0.63l0.26,1.92c0,0-0.69,0.38-1.38,0.37C94.87,118.45,95.07,117.67,94.93,116.98z"></path>		</g>		<g>			<path class="st29" d="M22.1,111.96c0,0-5.17-0.09-6.44,0.33c-1.27,0.42-3.94,4.47-4.72,6.09c-0.53,1.02-0.56,1.41-0.56,1.41    s1.06,0.77,1.97,0.42c0,0,2.57-2.11,3.13-3.1c0.56-0.99,0.99-2.08,0.99-2.08l2.05,0.56c0,0-0.89,0.95-1.77,2.01    c-0.88,1.06-4.16,3.87-4.16,3.87s0.35,1.23,1.27,1.41c0,0,2.75-1.8,4.29-2.68c1.55-0.88,2.39-1.55,2.39-1.55s1.04-1.76,2.21-2.92    c1.17-1.16,3.14-1.87,3.14-1.87l-0.96-2.25L22.1,111.96z"></path>			<path class="st45" d="M24.52,104.7c0,0-0.96-0.15-1.56,0s-1.51,1.1-2.53,2.77c-1.02,1.67-1.72,3.22-1.57,3.49    c0.16,0.26,1.32,1.23,1.74,1.23c0.42,0,1.5-0.23,1.5-0.23l2.32,0.39c0,0,0.74,1.07,1.48,1.53c0.74,0.46,1.64,0.74,2.52,0.44    c0.88-0.3,1.04-1.23,1.04-1.97c0-0.74-0.32-4.35-0.48-4.98c-0.16-0.63-0.44-1.32-1.36-1.72c-0.92-0.4-1.69-0.8-1.69-0.8    L24.52,104.7z"></path>			<path class="st46" d="M23.59,99.02c0,0-0.73,2.39-0.82,3.33c-0.09,0.94,0.54,1.55,1.92,1.67l-0.26,1.03c0,0-0.09,0.56,0.54,0.42    c0.63-0.14,0.96-0.63,0.96-0.63l0.33-1.12c0,0,0.96-0.06,1.17-1.03s-0.68-1.32-1.1-0.74c-0.42,0.59-0.42,0.59-0.42,0.59    l-0.35-0.09l0.35-1.36c0,0-0.59-0.59-0.38-1.64c0,0-1.08-0.05-1.2-0.66C24.34,98.79,24.01,99.16,23.59,99.02z"></path>			<path class="st25" d="M29.41,99.54c-0.26-1.55-1.17-1.62-1.17-1.62s0.16-1.55-1.81-1.71c0,0-0.68-0.61-1.67-0.4    c-0.99,0.21-0.99,0.63-0.99,0.63s-1.15,0.09-1.43,0.89c-0.27,0.77-0.11,1.72,1.05,2.35c0.11-0.39,0.19-0.66,0.19-0.66    c0.42,0.14,0.75-0.23,0.75-0.23c0.12,0.61,1.2,0.66,1.2,0.66c-0.21,1.06,0.38,1.64,0.38,1.64l-0.35,1.36l0.35,0.09    c0,0,0,0,0.42-0.59c0.42-0.59,1.31-0.23,1.1,0.74c-0.03,0.12-0.07,0.23-0.11,0.33l0,0c0,0,0.47,0.17,1.22-0.33    c0,0,0.42-0.15,0.33-1.02C28.87,101.67,29.67,101.09,29.41,99.54z"></path>			<path class="st47" d="M24.69,104.02c0,0,0.36,0.04,0.57,0c0,0-0.32,0.28-0.64,0.28L24.69,104.02z"></path>			<path class="st48" d="M19.28,110.53l-0.12-4.65c0,0,2.15,0.37,3.15,1.34c0,0,0.12,0.33,0.58,0.11c0,0,2.89-0.84,4.1-0.84    l-0.12,5.25c0,0-1.07,0.18-3.87,0.88c0,0-0.63,0.37-0.86-0.18C22.13,112.43,20.99,111.13,19.28,110.53z"></path>			<path class="st28" d="M22.89,107.33c0,0,2.89-0.84,4.1-0.84l-0.97-0.35c0,0-1.57,0.19-3.27,0.72c0,0-1.38-1.06-3-1.36l-0.6,0.39    c0,0,2.15,0.37,3.15,1.34C22.31,107.22,22.43,107.56,22.89,107.33z"></path>			<path class="st46" d="M25.11,113.03c0,0-0.68-0.18-1.04-0.39c-0.37-0.21-0.99-1.09-0.99-1.32c-0.01-0.23,0.27-0.11,0.27-0.11    s-0.14-0.44-0.02-0.58c0.12-0.14,0.59,0.6,0.76,0.81c0,0-0.17-0.67-0.1-0.83c0.07-0.16,0.26-0.07,0.48,0.37    c0.21,0.44,0.88,1.05,0.88,1.05l0.95-0.21c0,0-0.17,0.37-0.4,0.45C25.9,112.29,25.89,112.93,25.11,113.03z"></path>			<path class="st49" d="M28.4,112.87c-0.03-0.11-0.12-0.19-0.21-0.24c-0.09-0.05-0.2-0.09-0.3-0.11c-0.21-0.04-0.43-0.04-0.66-0.04    c-0.22,0.01-0.45,0-0.68-0.02c-0.22-0.03-0.45-0.06-0.65-0.17c0.11,0.04,0.22,0.05,0.33,0.06c0.11,0.01,0.22,0.02,0.33,0.02    c0.22,0.01,0.44,0.01,0.67,0c0.22,0,0.46,0,0.68,0.06c0.11,0.03,0.22,0.08,0.31,0.15C28.31,112.66,28.39,112.76,28.4,112.87z"></path>			<path class="st49" d="M27.15,110.45c0.06,0.33,0.09,0.66,0.12,0.99c0.02,0.33,0.03,0.66,0.01,1c-0.06-0.33-0.09-0.66-0.12-0.99    C27.14,111.11,27.13,110.78,27.15,110.45z"></path>			<path class="st46" d="M19.34,111.44c0,0,0.53-0.27,0.54-0.66c0,0-0.15-0.67,0-0.88c0.15-0.21,0.38-0.93,0.42-1.21    c0.04-0.28-0.18-0.16-0.28,0c-0.11,0.16-0.2,0.4-0.2,0.4s0.21-0.81,0.21-1.23c0-0.42-0.16-0.33-0.21-0.23    c-0.05,0.11-0.35,0.79-0.35,0.79s0.02-0.77-0.13-1.01c-0.15-0.24-0.27,0.06-0.29,0.57c-0.02,0.51-0.09,1.13-0.28,1.56    C18.58,109.97,18.08,110.69,19.34,111.44z"></path>			<path class="st30" d="M18.51,115.6c0.29-0.22,0.6-0.42,0.9-0.63c0.3-0.21,0.61-0.41,0.91-0.6c0.31-0.19,0.63-0.38,0.95-0.56    l0.48-0.27c0.16-0.09,0.32-0.18,0.48-0.26c-0.15,0.11-0.3,0.2-0.46,0.31l-0.46,0.3c-0.31,0.2-0.62,0.39-0.93,0.58    c-0.31,0.19-0.62,0.39-0.93,0.58C19.14,115.23,18.83,115.42,18.51,115.6z"></path>			<path class="st36" d="M12.68,121.71c0,0-1.17,0.78-2.04,1.18c-0.87,0.4-2.3,0.82-2.39,1.22c-0.09,0.4-0.21,1.34,0.75,1.57    c0.96,0.23,1.64-0.33,2.42-0.54c0.77-0.21,1.1-0.31,1.27-0.59c0.16-0.28,1.19-1.67,1.19-1.67S13.17,122.91,12.68,121.71z"></path>			<path class="st36" d="M10.6,119.93c0,0-0.71,0.85-1.84,1.1c-1.13,0.26-2.09,0.7-2.18,1.74c0,0,2.23,0.02,3.36-0.16    c1.13-0.19,1.76-0.28,1.76-0.28s0.48-0.86,0.44-2.05C12.13,120.28,11.43,120.31,10.6,119.93z"></path>		</g>	</g>	<path class="st13" d="M266.48,176.68l4.19-1.44c0,0,4.72-0.44,7.09,6.09c2.37,6.54-4.7,0.19-4.7,0.19"></path>	<g>		<polygon class="st18" points="150.94,162.51 144.58,158.71 144.58,166.31   "></polygon>		<rect x="205.44" y="160.91" class="st50" width="57.65" height="2.96"></rect>		<rect x="153.83" y="160.91" class="st18" width="57.65" height="2.96"></rect>		<circle class="st18" cx="210.13" cy="162.13" r="3.77"></circle>	</g>	<g>		<path class="st16" d="M14.63,152.49l0.4-0.41h-1.1l-0.4,0.41c0,0-6.62,10.33,0.8,20.8h1.1C8.01,162.82,14.63,152.49,14.63,152.49z   "></path>		<path class="st16" d="M18.14,152.49l0.4-0.41h-1.1l-0.4,0.41c0,0-6.62,10.33,0.8,20.8h1.1C11.52,162.82,18.14,152.49,18.14,152.49   z"></path>	</g></g></svg>