<svg xmlns="http://www.w3.org/2000/svg" xmlns:xlink="http://www.w3.org/1999/xlink" id="Layer_1" x="0px" y="0px" viewBox="0 0 51.06 51.78" style="enable-background:new 0 0 51.06 51.78;" xml:space="preserve"><style type="text/css">	.st0{fill:#F3B448;}	.st1{clip-path:url(#SVGID_2_);}	.st2{fill:#F3B445;}	.st3{fill:#FCD049;}	.st4{fill:#E4E2E3;}	.st5{fill:#F6F4F1;}</style><g>	<g>		<g>			<path class="st0" d="M0,16.04c0.23,0.58,27.91,29.69,27.91,29.69L12.21,4.44L0,16.04z"></path>			<path class="st0" d="M51.06,16.3c-0.23,0.58-27.92,29.43-27.92,29.43l15.7-41.29L51.06,16.3z"></path>			<g>				<defs>					<path id="SVGID_1_" d="M46.17,51.78H4.99C2.23,51.78,0,49.54,0,46.79V15.95h51.06v30.93C51.06,49.59,48.87,51.78,46.17,51.78z"></path>				</defs>				<clipPath id="SVGID_2_">					<use xlink:href="#SVGID_1_" style="overflow:visible;"></use>				</clipPath>				<g class="st1">					<rect x="0.7" y="29.68" class="st2" width="50.94" height="26.98"></rect>					<path class="st3" d="M29.66,29.68c0.23,0.58,27.91,29.19,27.91,29.19V12.23L29.66,29.68z"></path>					<path class="st3" d="M22.1,29.68C21.87,30.26-6.16,58.87-6.16,58.87V12.24L22.1,29.68z"></path>				</g>			</g>		</g>		<path class="st4" d="M25.97,32.05L44.43,20.4V4.3c0-2.11-1.71-3.81-3.81-3.81H10.44c-2.11,0-3.81,1.71-3.81,3.81v15.85   L25.97,32.05z"></path>		<path class="st5" d="M25.97,29.93l18.46-11.65V3.81c0-2.11-1.71-3.81-3.81-3.81H10.44C8.34,0,6.63,1.71,6.63,3.81v14.22   L25.97,29.93z"></path>	</g></g></svg>