<svg xmlns="http://www.w3.org/2000/svg" xmlns:xlink="http://www.w3.org/1999/xlink" id="Layer_1" x="0px" y="0px" viewBox="0 0 45.93 41.09" style="enable-background:new 0 0 45.93 41.09;" xml:space="preserve"><style type="text/css">	.st0{fill:#FFBD41;}	.st1{fill:#FFDF40;}	.st2{fill:#4E4B80;}	.st3{fill:#443B66;}</style><g>	<g>		<path class="st0" d="M45.27,33.68L27.24,2.46c-0.93-1.62-2.56-2.44-4.2-2.46v41.09h17.95C44.79,41.09,47.17,36.97,45.27,33.68z"></path>		<path class="st1" d="M18.69,2.46L0.67,33.68c-1.9,3.29,0.47,7.4,4.27,7.4h18.1V0C21.36-0.03,19.66,0.79,18.69,2.46z"></path>	</g>	<g>		<g>			<path class="st2" d="M21.47,15.94v7.09c0,0.9,0.71,1.63,1.6,1.66V14.28C22.18,14.31,21.47,15.04,21.47,15.94z"></path>			<path class="st3" d="M24.8,23.03v-7.09c0-0.92-0.75-1.67-1.67-1.67c-0.02,0-0.04,0.01-0.06,0.01v10.41    c0.02,0,0.04,0.01,0.06,0.01C24.05,24.69,24.8,23.95,24.8,23.03z"></path>		</g>		<g>			<path class="st2" d="M23.07,28.1c-0.96,0-1.74,0.77-1.74,1.71c0,0.95,0.78,1.71,1.74,1.71c0.01,0,0.01,0,0.02,0v-3.43    C23.08,28.11,23.08,28.1,23.07,28.1z"></path>			<path class="st3" d="M24.82,29.82c0-0.94-0.77-1.71-1.73-1.71v3.43C24.05,31.52,24.82,30.76,24.82,29.82z"></path>		</g>	</g></g></svg>