<svg xmlns="http://www.w3.org/2000/svg" xmlns:xlink="http://www.w3.org/1999/xlink" id="Layer_1" x="0px" y="0px" viewBox="0 0 35.54 53.13" style="enable-background:new 0 0 35.54 53.13;" xml:space="preserve"><style type="text/css">	.st0{fill:#E5E2E4;}	.st1{fill:#F7F4F1;}	.st2{fill:#CAC1C9;}	.st3{fill:#29B9C2;}	.st4{fill:#1EA9B9;}	.st5{fill:#FEA821;}	.st6{fill:#F48D27;}	.st7{fill:#FDE268;}	.st8{fill:#FBD52A;}	.st9{fill:#FDD230;}</style><g>	<g>		<g>			<path class="st0" d="M32.99,53.13H2.55C1.14,53.13,0,51.99,0,50.58V2.55C0,1.14,1.14,0,2.55,0h30.45c1.41,0,2.55,1.14,2.55,2.55    v48.03C35.54,51.99,34.4,53.13,32.99,53.13z"></path>			<path class="st1" d="M32,53.13H2.79c-1.41,0-2.55-1.14-2.55-2.55V2.55C0.24,1.14,1.38,0,2.79,0H32c0.45,0,0.81,0.36,0.81,0.81    v51.51C32.81,52.76,32.45,53.13,32,53.13z"></path>		</g>		<g>			<path class="st2" d="M17.8,8.58h-2.61c-0.42,0-0.76-0.34-0.76-0.76v0c0-0.42,0.34-0.76,0.76-0.76h2.61    c0.42,0,0.76,0.34,0.76,0.76v0C18.56,8.24,18.22,8.58,17.8,8.58z"></path>			<path class="st2" d="M29.99,11.6h-14.8c-0.42,0-0.76-0.34-0.76-0.76v0c0-0.42,0.34-0.76,0.76-0.76h14.8    c0.42,0,0.76,0.34,0.76,0.76v0C30.75,11.27,30.41,11.6,29.99,11.6z"></path>		</g>		<g>			<path class="st2" d="M17.8,19.32h-2.61c-0.42,0-0.76-0.34-0.76-0.76v0c0-0.42,0.34-0.76,0.76-0.76h2.61    c0.42,0,0.76,0.34,0.76,0.76v0C18.56,18.98,18.22,19.32,17.8,19.32z"></path>			<path class="st2" d="M29.99,22.35h-14.8c-0.42,0-0.76-0.34-0.76-0.76l0,0c0-0.42,0.34-0.76,0.76-0.76h14.8    c0.42,0,0.76,0.34,0.76,0.76l0,0C30.75,22.01,30.41,22.35,29.99,22.35z"></path>		</g>		<g>			<path class="st2" d="M17.8,30.06h-2.61c-0.42,0-0.76-0.34-0.76-0.76v0c0-0.42,0.34-0.76,0.76-0.76h2.61    c0.42,0,0.76,0.34,0.76,0.76v0C18.56,29.72,18.22,30.06,17.8,30.06z"></path>			<path class="st2" d="M29.99,33.09h-14.8c-0.42,0-0.76-0.34-0.76-0.76l0,0c0-0.42,0.34-0.76,0.76-0.76h14.8    c0.42,0,0.76,0.34,0.76,0.76l0,0C30.75,32.75,30.41,33.09,29.99,33.09z"></path>		</g>		<g>			<path class="st2" d="M17.8,40.8h-2.61c-0.42,0-0.76-0.34-0.76-0.76l0,0c0-0.42,0.34-0.76,0.76-0.76h2.61    c0.42,0,0.76,0.34,0.76,0.76l0,0C18.56,40.47,18.22,40.8,17.8,40.8z"></path>			<path class="st2" d="M29.99,43.83h-14.8c-0.42,0-0.76-0.34-0.76-0.76v0c0-0.42,0.34-0.76,0.76-0.76h14.8    c0.42,0,0.76,0.34,0.76,0.76v0C30.75,43.49,30.41,43.83,29.99,43.83z"></path>		</g>	</g>	<g>		<path class="st3" d="M6.24,5.39c-0.68,0-1.24,0.55-1.24,1.24v3.99c0,0.68,0.55,1.24,1.24,1.24h2.06V5.39H6.24z"></path>		<path class="st4" d="M11.47,10.62V6.63c0-0.68-0.55-1.24-1.24-1.24H8.31v6.46h1.93C10.92,11.86,11.47,11.31,11.47,10.62z"></path>	</g>	<g>		<path class="st3" d="M6.15,16.06c-0.68,0-1.24,0.55-1.24,1.24v3.99c0,0.68,0.55,1.24,1.24,1.24h2.06v-6.46H6.15z"></path>		<path class="st4" d="M11.38,21.29V17.3c0-0.68-0.55-1.24-1.24-1.24H8.22v6.46h1.93C10.83,22.52,11.38,21.97,11.38,21.29z"></path>	</g>	<g>		<path class="st5" d="M6.15,26.73c-0.68,0-1.24,0.55-1.24,1.24v3.99c0,0.68,0.55,1.24,1.24,1.24h2.06v-6.46H6.15z"></path>		<path class="st6" d="M11.38,31.95v-3.99c0-0.68-0.55-1.24-1.24-1.24H8.22v6.46h1.93C10.83,33.19,11.38,32.64,11.38,31.95z"></path>	</g>	<g>		<path class="st7" d="M6.15,37.39c-0.68,0-1.24,0.55-1.24,1.24v3.99c0,0.68,0.55,1.24,1.24,1.24h2.06v-6.46H6.15z"></path>		<path class="st8" d="M11.38,42.62v-3.99c0-0.68-0.55-1.24-1.24-1.24H8.22v6.46h1.93C10.83,43.86,11.38,43.3,11.38,42.62z"></path>	</g>	<path class="st9" d="M12.38,4.5L12.93,5c0.15,0.13,0.16,0.36,0.02,0.51l-4.47,4.81c-0.14,0.15-0.37,0.15-0.52,0.01L6.33,8.69  C6.19,8.55,6.19,8.32,6.34,8.18l0.63-0.61c0.14-0.13,0.36-0.13,0.5,0L8,8.08c0.14,0.14,0.37,0.13,0.51-0.01l3.37-3.55  C12.01,4.37,12.24,4.37,12.38,4.5z"></path>	<path class="st9" d="M12.38,15.23l0.55,0.51c0.15,0.13,0.16,0.36,0.02,0.51l-4.47,4.81c-0.14,0.15-0.37,0.15-0.52,0.01l-1.63-1.65  c-0.14-0.14-0.14-0.37,0.01-0.51l0.63-0.61c0.14-0.13,0.36-0.13,0.5,0L8,18.81c0.14,0.14,0.37,0.13,0.51-0.01l3.37-3.55  C12.01,15.1,12.24,15.1,12.38,15.23z"></path></g></svg>